# WaveFront *.obj file (generated by Autodesk ATF)

mtllib shell.mtl

g Body1

v -190.000000 -195.000000 110.000000
v -190.000000 -195.000000 -110.000000
v -190.000000 195.000000 -110.000000
v -190.000000 195.000000 110.000000
v 190.000000 -195.000000 -110.000000
v 190.000000 195.000000 -110.000000
v 190.000000 -195.000000 110.000000
v 190.000000 195.000000 110.000000
v -200.000000 -195.000000 -120.000000
v -200.000000 -195.000000 120.000000
v -200.000000 205.000000 120.000000
v -200.000000 205.000000 -120.000000
v 200.000000 -195.000000 -120.000000
v 200.000000 205.000000 -120.000000
v 200.000000 -195.000000 120.000000
v 200.000000 205.000000 120.000000
vt -23.000000 0.000000 0.000000
vt -1.000000 0.000000 0.000000
vt -23.000000 39.000000 0.000000
vt -1.000000 39.000000 0.000000
vt -39.000000 0.000000 0.000000
vt -1.000000 0.000000 0.000000
vt -39.000000 39.000000 0.000000
vt -1.000000 39.000000 0.000000
vt -23.000000 0.000000 0.000000
vt -1.000000 0.000000 0.000000
vt -23.000000 39.000000 0.000000
vt -1.000000 39.000000 0.000000
vt -39.000000 0.000000 0.000000
vt -1.000000 0.000000 0.000000
vt -39.000000 39.000000 0.000000
vt -1.000000 39.000000 0.000000
vt -11.000000 -19.000000 0.000000
vt 11.000000 -19.000000 0.000000
vt -11.000000 19.000000 0.000000
vt 11.000000 19.000000 0.000000
vt 0.000000 0.000000 0.000000
vt 24.000000 0.000000 0.000000
vt 0.000000 40.000000 0.000000
vt 24.000000 40.000000 0.000000
vt -0.000000 0.000000 0.000000
vt 40.000000 0.000000 0.000000
vt -0.000000 40.000000 0.000000
vt 40.000000 40.000000 0.000000
vt -0.000000 0.000000 0.000000
vt 24.000000 0.000000 0.000000
vt -0.000000 40.000000 0.000000
vt 24.000000 40.000000 0.000000
vt 0.000000 0.000000 0.000000
vt 40.000000 0.000000 0.000000
vt 0.000000 40.000000 0.000000
vt 40.000000 40.000000 0.000000
vt 12.000000 20.000000 0.000000
vt -12.000000 20.000000 0.000000
vt 12.000000 -20.000000 0.000000
vt -12.000000 -20.000000 0.000000
vt 19.000000 -11.000000 0.000000
vt 20.000000 -12.000000 0.000000
vt 19.000000 11.000000 0.000000
vt 20.000000 12.000000 0.000000
vt -20.000000 12.000000 0.000000
vt -19.000000 -11.000000 0.000000
vt -20.000000 -12.000000 0.000000
vt -19.000000 11.000000 0.000000
vn 0.100000 0.000000 0.000000
vn 0.100000 0.000000 0.000000
vn 0.100000 0.000000 0.000000
vn 0.100000 0.000000 0.000000
vn 0.000000 0.000000 0.100000
vn 0.000000 0.000000 0.100000
vn 0.000000 0.000000 0.100000
vn 0.000000 0.000000 0.100000
vn -0.100000 0.000000 0.000000
vn -0.100000 0.000000 0.000000
vn -0.100000 0.000000 0.000000
vn -0.100000 0.000000 0.000000
vn 0.000000 0.000000 -0.100000
vn 0.000000 0.000000 -0.100000
vn 0.000000 0.000000 -0.100000
vn 0.000000 0.000000 -0.100000
vn 0.000000 -0.100000 0.000000
vn 0.000000 -0.100000 0.000000
vn 0.000000 -0.100000 0.000000
vn 0.000000 -0.100000 0.000000
vn -0.100000 0.000000 0.000000
vn -0.100000 0.000000 0.000000
vn -0.100000 0.000000 0.000000
vn -0.100000 0.000000 0.000000
vn 0.000000 0.000000 -0.100000
vn 0.000000 0.000000 -0.100000
vn 0.000000 0.000000 -0.100000
vn 0.000000 0.000000 -0.100000
vn 0.100000 0.000000 0.000000
vn 0.100000 0.000000 0.000000
vn 0.100000 0.000000 0.000000
vn 0.100000 0.000000 0.000000
vn 0.000000 0.000000 0.100000
vn 0.000000 0.000000 0.100000
vn 0.000000 0.000000 0.100000
vn 0.000000 0.000000 0.100000
vn 0.000000 0.100000 0.000000
vn 0.000000 0.100000 0.000000
vn 0.000000 0.100000 0.000000
vn 0.000000 0.100000 0.000000
vn 0.000000 -0.100000 0.000000
vn 0.000000 -0.100000 0.000000
vn 0.000000 -0.100000 0.000000
vn 0.000000 -0.100000 0.000000
vn 0.000000 -0.100000 0.000000
vn 0.000000 -0.100000 0.000000
vn 0.000000 -0.100000 0.000000
vn 0.000000 -0.100000 0.000000
usemtl Aluminum_-_Satin
f 1/1/1 2/2/2 4/3/3
f 4/3/3 2/2/2 3/4/4
f 2/5/5 5/6/6 3/7/7
f 3/7/7 5/6/6 6/8/8
f 5/9/9 7/10/10 6/11/11
f 6/11/11 7/10/10 8/12/12
f 7/13/13 1/14/14 8/15/15
f 8/15/15 1/14/14 4/16/16
f 4/17/17 3/18/18 8/19/19
f 8/19/19 3/18/18 6/20/20
f 9/21/21 10/22/22 12/23/23
f 12/23/23 10/22/22 11/24/24
f 13/25/25 9/26/26 14/27/27
f 14/27/27 9/26/26 12/28/28
f 15/29/29 13/30/30 16/31/31
f 16/31/31 13/30/30 14/32/32
f 10/33/33 15/34/34 11/35/35
f 11/35/35 15/34/34 16/36/36
f 16/37/37 14/38/38 11/39/39
f 11/39/39 14/38/38 12/40/40
f 1/41/41 10/42/42 2/43/43
f 2/43/43 10/42/42 9/44/44
f 2/43/43 9/44/44 13/45/45
f 1/41/41 7/46/46 10/42/42
f 10/42/42 7/46/46 15/47/47
f 15/47/47 7/46/46 5/48/48
f 15/47/47 5/48/48 13/45/45
f 13/45/45 5/48/48 2/43/43
# 16 vertices
# 48 texture params
# 48 normals
# 28 facets

# 1 groups
