<?xml version="1.0" encoding="utf-8"?>
<COLLADA xmlns="http://www.collada.org/2005/11/COLLADASchema" version="1.4.1">
  <asset>
    <contributor><authoring_tool>obj_to_dae.py</authoring_tool></contributor>
    <unit name="meter" meter="1"/>
    <up_axis>Z_UP</up_axis>
  </asset>
  <library_effects>
    <effect id="dark-fx">
      <profile_COMMON>
        <technique sid="common">
          <phong>
            <emission><color>0 0 0 1</color></emission>
            <ambient><color>0.0600 0.0600 0.0700 1.0000</color></ambient>
            <diffuse><color>0.1500 0.1500 0.1600 1.0000</color></diffuse>
            <specular><color>0.1000 0.1000 0.1000 1.0000</color></specular>
            <shininess><float>40.0</float></shininess>
            <index_of_refraction><float>1.0</float></index_of_refraction>
          </phong>
        </technique>
      </profile_COMMON>
    </effect>
  </library_effects>
  <library_materials>
    <material id="dark-mat" name="dark"><instance_effect url="#dark-fx"/></material>
  </library_materials>
  <library_geometries>
    <geometry id="dark-geo" name="dark">
      <mesh>
      <source id="dark-pos">
        <float_array id="dark-pos-array" count="144">-0.937560 -0.215000 0.013410 -0.850240 -0.215000 -0.008360 -0.850240 -0.180000 -0.008360 -0.937560 -0.180000 0.013410 -0.917000 -0.215000 0.095890 -0.829670 -0.215000 0.074110 -0.829670 -0.180000 0.074110 -0.917000 -0.180000 0.095890 -0.937560 0.180000 0.013410 -0.850240 0.180000 -0.008360 -0.850240 0.215000 -0.008360 -0.937560 0.215000 0.013410 -0.917000 0.180000 0.095890 -0.829670 0.180000 0.074110 -0.829670 0.215000 0.074110 -0.917000 0.215000 0.095890 0.850240 -0.185000 -0.008360 0.937560 -0.185000 0.013410 0.937560 -0.150000 0.013410 0.850240 -0.150000 -0.008360 0.829670 -0.185000 0.074110 0.917000 -0.185000 0.095890 0.917000 -0.150000 0.095890 0.829670 -0.150000 0.074110 0.850240 0.150000 -0.008360 0.937560 0.150000 0.013410 0.937560 0.185000 0.013410 0.850240 0.185000 -0.008360 0.829670 0.150000 0.074110 0.917000 0.150000 0.095890 0.917000 0.185000 0.095890 0.829670 0.185000 0.074110 -0.331870 -0.192000 2.271720 -0.331870 -0.192000 2.241720 -0.331870 -0.188000 2.241720 -0.331870 -0.188000 2.271720 0.331870 -0.192000 2.271720 0.331870 -0.192000 2.241720 0.331870 -0.188000 2.241720 0.331870 -0.188000 2.271720 -0.331870 0.188000 2.271720 -0.331870 0.188000 2.241720 -0.331870 0.192000 2.241720 -0.331870 0.192000 2.271720 0.331870 0.188000 2.271720 0.331870 0.188000 2.241720 0.331870 0.192000 2.241720 0.331870 0.192000 2.271720</float_array>
        <technique_common>
          <accessor source="#dark-pos-array" count="48" stride="3"><param name="X" type="float"/><param name="Y" type="float"/><param name="Z" type="float"/></accessor>
        </technique_common>
      </source>
      <source id="dark-nrm">
        <float_array id="dark-nrm-array" count="216">-0.241908 0.000000 -0.970299 -0.241908 0.000000 -0.970299 0.241987 0.000000 0.970280 0.241987 -0.000000 0.970280 0.000000 -1.000000 0.000000 0.000000 -1.000000 0.000000 0.970274 0.000000 -0.242010 0.970274 0.000000 -0.242010 0.000000 1.000000 0.000000 0.000000 1.000000 -0.000000 -0.970308 0.000000 0.241871 -0.970308 0.000000 0.241871 -0.241908 0.000000 -0.970299 -0.241908 0.000000 -0.970299 0.241987 0.000000 0.970280 0.241987 -0.000000 0.970280 0.000000 -1.000000 0.000000 0.000000 -1.000000 0.000000 0.970274 0.000000 -0.242010 0.970274 0.000000 -0.242010 0.000000 1.000000 0.000000 0.000000 1.000000 -0.000000 -0.970308 0.000000 0.241871 -0.970308 0.000000 0.241871 0.241908 0.000000 -0.970299 0.241908 0.000000 -0.970299 -0.241987 0.000000 0.970280 -0.241987 0.000000 0.970280 0.000000 -1.000000 0.000000 0.000000 -1.000000 0.000000 0.970308 -0.000000 0.241871 0.970308 0.000000 0.241871 0.000000 1.000000 0.000000 0.000000 1.000000 0.000000 -0.970274 -0.000000 -0.242010 -0.970274 0.000000 -0.242010 0.241908 0.000000 -0.970299 0.241908 0.000000 -0.970299 -0.241987 0.000000 0.970280 -0.241987 0.000000 0.970280 0.000000 -1.000000 0.000000 0.000000 -1.000000 0.000000 0.970308 -0.000000 0.241871 0.970308 0.000000 0.241871 0.000000 1.000000 0.000000 0.000000 1.000000 0.000000 -0.970274 -0.000000 -0.242010 -0.970274 0.000000 -0.242010 -1.000000 0.000000 0.000000 -1.000000 0.000000 0.000000 1.000000 0.000000 0.000000 1.000000 -0.000000 0.000000 0.000000 -1.000000 0.000000 0.000000 -1.000000 0.000000 0.000000 0.000000 -1.000000 0.000000 0.000000 -1.000000 0.000000 1.000000 0.000000 0.000000 1.000000 0.000000 0.000000 0.000000 1.000000 -0.000000 0.000000 1.000000 -1.000000 0.000000 0.000000 -1.000000 0.000000 0.000000 1.000000 0.000000 0.000000 1.000000 -0.000000 0.000000 0.000000 -1.000000 0.000000 0.000000 -1.000000 0.000000 0.000000 0.000000 -1.000000 0.000000 0.000000 -1.000000 0.000000 1.000000 0.000000 0.000000 1.000000 0.000000 0.000000 0.000000 1.000000 -0.000000 0.000000 1.000000</float_array>
        <technique_common>
          <accessor source="#dark-nrm-array" count="72" stride="3"><param name="X" type="float"/><param name="Y" type="float"/><param name="Z" type="float"/></accessor>
        </technique_common>
      </source>
      <vertices id="dark-vtx">
        <input semantic="POSITION" source="#dark-pos"/>
      </vertices>
      <triangles material="dark-sym" count="72">
        <input semantic="VERTEX" source="#dark-vtx" offset="0"/>
        <input semantic="NORMAL" source="#dark-nrm" offset="1"/>
        <p>0 0 2 0 1 0 0 1 3 1 2 1 4 2 5 2 6 2 4 3 6 3 7 3 0 4 1 4 5 4 0 5 5 5 4 5 1 6 2 6 6 6 1 7 6 7 5 7 2 8 3 8 7 8 2 9 7 9 6 9 3 10 0 10 4 10 3 11 4 11 7 11 8 12 10 12 9 12 8 13 11 13 10 13 12 14 13 14 14 14 12 15 14 15 15 15 8 16 9 16 13 16 8 17 13 17 12 17 9 18 10 18 14 18 9 19 14 19 13 19 10 20 11 20 15 20 10 21 15 21 14 21 11 22 8 22 12 22 11 23 12 23 15 23 16 24 18 24 17 24 16 25 19 25 18 25 20 26 21 26 22 26 20 27 22 27 23 27 16 28 17 28 21 28 16 29 21 29 20 29 17 30 18 30 22 30 17 31 22 31 21 31 18 32 19 32 23 32 18 33 23 33 22 33 19 34 16 34 20 34 19 35 20 35 23 35 24 36 26 36 25 36 24 37 27 37 26 37 28 38 29 38 30 38 28 39 30 39 31 39 24 40 25 40 29 40 24 41 29 41 28 41 25 42 26 42 30 42 25 43 30 43 29 43 26 44 27 44 31 44 26 45 31 45 30 45 27 46 24 46 28 46 27 47 28 47 31 47 32 48 34 48 33 48 32 49 35 49 34 49 36 50 37 50 38 50 36 51 38 51 39 51 32 52 33 52 37 52 32 53 37 53 36 53 33 54 34 54 38 54 33 55 38 55 37 55 34 56 35 56 39 56 34 57 39 57 38 57 35 58 32 58 36 58 35 59 36 59 39 59 40 60 42 60 41 60 40 61 43 61 42 61 44 62 45 62 46 62 44 63 46 63 47 63 40 64 41 64 45 64 40 65 45 65 44 65 41 66 42 66 46 66 41 67 46 67 45 67 42 68 43 68 47 68 42 69 47 69 46 69 43 70 40 70 44 70 43 71 44 71 47 71</p>
      </triangles>
      </mesh>
    </geometry>
  </library_geometries>
  <library_visual_scenes>
    <visual_scene id="Scene" name="Scene">
        <node id="dark-node" name="dark" type="NODE">
          <instance_geometry url="#dark-geo">
            <bind_material><technique_common>
              <instance_material symbol="dark-sym" target="#dark-mat"/>
            </technique_common></bind_material>
          </instance_geometry>
        </node>
    </visual_scene>
  </library_visual_scenes>
  <scene><instance_visual_scene url="#Scene"/></scene>
</COLLADA>
