mtllib zarges_z600_40284.mtl
v -0.90972 -0.21000 0.09407
v -0.83695 -0.21000 0.07593
v -0.83695 -0.18500 0.07593
v -0.90972 -0.18500 0.09407
v -0.03639 -0.21000 3.59684
v 0.03639 -0.21000 3.57870
v 0.03639 -0.18500 3.57870
v -0.03639 -0.18500 3.59684
v -0.90972 0.18500 0.09407
v -0.83695 0.18500 0.07593
v -0.83695 0.21000 0.07593
v -0.90972 0.21000 0.09407
v -0.03639 0.18500 3.59684
v 0.03639 0.18500 3.57870
v 0.03639 0.21000 3.57870
v -0.03639 0.21000 3.59684
v -0.83165 -0.18500 0.31422
v -0.80254 -0.18500 0.30696
v -0.80254 0.18500 0.30696
v -0.83165 0.18500 0.31422
v -0.82560 -0.18500 0.33848
v -0.79649 -0.18500 0.33122
v -0.79649 0.18500 0.33122
v -0.82560 0.18500 0.33848
v -0.76391 -0.18500 0.58591
v -0.73480 -0.18500 0.57865
v -0.73480 0.18500 0.57865
v -0.76391 0.18500 0.58591
v -0.75786 -0.18500 0.61016
v -0.72875 -0.18500 0.60291
v -0.72875 0.18500 0.60291
v -0.75786 0.18500 0.61016
v -0.69617 -0.18500 0.85759
v -0.66706 -0.18500 0.85033
v -0.66706 0.18500 0.85033
v -0.69617 0.18500 0.85759
v -0.69012 -0.18500 0.88185
v -0.66101 -0.18500 0.87459
v -0.66101 0.18500 0.87459
v -0.69012 0.18500 0.88185
v -0.62843 -0.18500 1.12927
v -0.59932 -0.18500 1.12201
v -0.59932 0.18500 1.12201
v -0.62843 0.18500 1.12927
v -0.62238 -0.18500 1.15353
v -0.59327 -0.18500 1.14627
v -0.59327 0.18500 1.14627
v -0.62238 0.18500 1.15353
v -0.56069 -0.18500 1.40095
v -0.53158 -0.18500 1.39370
v -0.53158 0.18500 1.39370
v -0.56069 0.18500 1.40095
v -0.55465 -0.18500 1.42521
v -0.52554 -0.18500 1.41795
v -0.52554 0.18500 1.41795
v -0.55465 0.18500 1.42521
v -0.49295 -0.18500 1.67264
v -0.46385 -0.18500 1.66538
v -0.46385 0.18500 1.66538
v -0.49295 0.18500 1.67264
v -0.48691 -0.18500 1.69689
v -0.45780 -0.18500 1.68964
v -0.45780 0.18500 1.68964
v -0.48691 0.18500 1.69689
v -0.42522 -0.18500 1.94432
v -0.39611 -0.18500 1.93706
v -0.39611 0.18500 1.93706
v -0.42522 0.18500 1.94432
v -0.41917 -0.18500 1.96858
v -0.39006 -0.18500 1.96132
v -0.39006 0.18500 1.96132
v -0.41917 0.18500 1.96858
v -0.35748 -0.18500 2.21600
v -0.32837 -0.18500 2.20874
v -0.32837 0.18500 2.20874
v -0.35748 0.18500 2.21600
v -0.35143 -0.18500 2.24026
v -0.32232 -0.18500 2.23300
v -0.32232 0.18500 2.23300
v -0.35143 0.18500 2.24026
v -0.28974 -0.18500 2.48769
v -0.26063 -0.18500 2.48043
v -0.26063 0.18500 2.48043
v -0.28974 0.18500 2.48769
v -0.28369 -0.18500 2.51194
v -0.25458 -0.18500 2.50468
v -0.25458 0.18500 2.50468
v -0.28369 0.18500 2.51194
v -0.22200 -0.18500 2.75937
v -0.19289 -0.18500 2.75211
v -0.19289 0.18500 2.75211
v -0.22200 0.18500 2.75937
v -0.21595 -0.18500 2.78363
v -0.18685 -0.18500 2.77637
v -0.18685 0.18500 2.77637
v -0.21595 0.18500 2.78363
v -0.15426 -0.18500 3.03105
v -0.12516 -0.18500 3.02379
v -0.12516 0.18500 3.02379
v -0.15426 0.18500 3.03105
v -0.14822 -0.18500 3.05531
v -0.11911 -0.18500 3.04805
v -0.11911 0.18500 3.04805
v -0.14822 0.18500 3.05531
v -0.08653 -0.18500 3.30273
v -0.05742 -0.18500 3.29548
v -0.05742 0.18500 3.29548
v -0.08653 0.18500 3.30273
v -0.08048 -0.18500 3.32699
v -0.05137 -0.18500 3.31973
v -0.05137 0.18500 3.31973
v -0.08048 0.18500 3.32699
v -0.93756 -0.21500 0.01341
v -0.85024 -0.21500 -0.00836
v -0.85024 -0.18000 -0.00836
v -0.93756 -0.18000 0.01341
v -0.91700 -0.21500 0.09589
v -0.82967 -0.21500 0.07411
v -0.82967 -0.18000 0.07411
v -0.91700 -0.18000 0.09589
v -0.93756 0.18000 0.01341
v -0.85024 0.18000 -0.00836
v -0.85024 0.21500 -0.00836
v -0.93756 0.21500 0.01341
v -0.91700 0.18000 0.09589
v -0.82967 0.18000 0.07411
v -0.82967 0.21500 0.07411
v -0.91700 0.21500 0.09589
v -0.34706 0.18750 2.04078
v -0.34512 0.18750 2.04029
v -0.34512 0.20750 2.04029
v -0.34706 0.20750 2.04078
v -0.21400 0.18750 2.57444
v -0.21206 0.18750 2.57396
v -0.21206 0.20750 2.57396
v -0.21400 0.20750 2.57444
v -0.34004 0.19000 2.06479
v -0.33810 0.19000 2.06431
v -0.33810 0.20500 2.06431
v -0.34004 0.20500 2.06479
v -0.26747 0.19000 2.35588
v -0.26552 0.19000 2.35540
v -0.26552 0.20500 2.35540
v -0.26747 0.20500 2.35588
v 0.84180 -0.18000 0.07714
v 0.90487 -0.18000 0.09286
v 0.90487 -0.15500 0.09286
v 0.84180 -0.15500 0.07714
v -0.03153 -0.18000 3.57991
v 0.03153 -0.18000 3.59563
v 0.03153 -0.15500 3.59563
v -0.03153 -0.15500 3.57991
v 0.84180 0.15500 0.07714
v 0.90487 0.15500 0.09286
v 0.90487 0.18000 0.09286
v 0.84180 0.18000 0.07714
v -0.03153 0.15500 3.57991
v 0.03153 0.15500 3.59563
v 0.03153 0.18000 3.59563
v -0.03153 0.18000 3.57991
v 0.80254 -0.15500 0.30696
v 0.83165 -0.15500 0.31422
v 0.83165 0.15500 0.31422
v 0.80254 0.15500 0.30696
v 0.79649 -0.15500 0.33122
v 0.82560 -0.15500 0.33848
v 0.82560 0.15500 0.33848
v 0.79649 0.15500 0.33122
v 0.73480 -0.15500 0.57865
v 0.76391 -0.15500 0.58591
v 0.76391 0.15500 0.58591
v 0.73480 0.15500 0.57865
v 0.72875 -0.15500 0.60291
v 0.75786 -0.15500 0.61016
v 0.75786 0.15500 0.61016
v 0.72875 0.15500 0.60291
v 0.66706 -0.15500 0.85033
v 0.69617 -0.15500 0.85759
v 0.69617 0.15500 0.85759
v 0.66706 0.15500 0.85033
v 0.66101 -0.15500 0.87459
v 0.69012 -0.15500 0.88185
v 0.69012 0.15500 0.88185
v 0.66101 0.15500 0.87459
v 0.59932 -0.15500 1.12201
v 0.62843 -0.15500 1.12927
v 0.62843 0.15500 1.12927
v 0.59932 0.15500 1.12201
v 0.59327 -0.15500 1.14627
v 0.62238 -0.15500 1.15353
v 0.62238 0.15500 1.15353
v 0.59327 0.15500 1.14627
v 0.53158 -0.15500 1.39370
v 0.56069 -0.15500 1.40095
v 0.56069 0.15500 1.40095
v 0.53158 0.15500 1.39370
v 0.52554 -0.15500 1.41795
v 0.55465 -0.15500 1.42521
v 0.55465 0.15500 1.42521
v 0.52554 0.15500 1.41795
v 0.46385 -0.15500 1.66538
v 0.49295 -0.15500 1.67264
v 0.49295 0.15500 1.67264
v 0.46385 0.15500 1.66538
v 0.45780 -0.15500 1.68964
v 0.48691 -0.15500 1.69689
v 0.48691 0.15500 1.69689
v 0.45780 0.15500 1.68964
v 0.39611 -0.15500 1.93706
v 0.42522 -0.15500 1.94432
v 0.42522 0.15500 1.94432
v 0.39611 0.15500 1.93706
v 0.39006 -0.15500 1.96132
v 0.41917 -0.15500 1.96858
v 0.41917 0.15500 1.96858
v 0.39006 0.15500 1.96132
v 0.32837 -0.15500 2.20874
v 0.35748 -0.15500 2.21600
v 0.35748 0.15500 2.21600
v 0.32837 0.15500 2.20874
v 0.32232 -0.15500 2.23300
v 0.35143 -0.15500 2.24026
v 0.35143 0.15500 2.24026
v 0.32232 0.15500 2.23300
v 0.26063 -0.15500 2.48043
v 0.28974 -0.15500 2.48769
v 0.28974 0.15500 2.48769
v 0.26063 0.15500 2.48043
v 0.25458 -0.15500 2.50468
v 0.28369 -0.15500 2.51194
v 0.28369 0.15500 2.51194
v 0.25458 0.15500 2.50468
v 0.19289 -0.15500 2.75211
v 0.22200 -0.15500 2.75937
v 0.22200 0.15500 2.75937
v 0.19289 0.15500 2.75211
v 0.18685 -0.15500 2.77637
v 0.21595 -0.15500 2.78363
v 0.21595 0.15500 2.78363
v 0.18685 0.15500 2.77637
v 0.12516 -0.15500 3.02379
v 0.15426 -0.15500 3.03105
v 0.15426 0.15500 3.03105
v 0.12516 0.15500 3.02379
v 0.11911 -0.15500 3.04805
v 0.14822 -0.15500 3.05531
v 0.14822 0.15500 3.05531
v 0.11911 0.15500 3.04805
v 0.05742 -0.15500 3.29548
v 0.08653 -0.15500 3.30273
v 0.08653 0.15500 3.30273
v 0.05742 0.15500 3.29548
v 0.05137 -0.15500 3.31973
v 0.08048 -0.15500 3.32699
v 0.08048 0.15500 3.32699
v 0.05137 0.15500 3.31973
v 0.85024 -0.18500 -0.00836
v 0.93756 -0.18500 0.01341
v 0.93756 -0.15000 0.01341
v 0.85024 -0.15000 -0.00836
v 0.82967 -0.18500 0.07411
v 0.91700 -0.18500 0.09589
v 0.91700 -0.15000 0.09589
v 0.82967 -0.15000 0.07411
v 0.85024 0.15000 -0.00836
v 0.93756 0.15000 0.01341
v 0.93756 0.18500 0.01341
v 0.85024 0.18500 -0.00836
v 0.82967 0.15000 0.07411
v 0.91700 0.15000 0.09589
v 0.91700 0.18500 0.09589
v 0.82967 0.18500 0.07411
v -0.05000 -0.19500 3.51777
v 0.05000 -0.19500 3.51777
v 0.05000 -0.14500 3.51777
v -0.05000 -0.14500 3.51777
v -0.05000 -0.19500 3.57777
v 0.05000 -0.19500 3.57777
v 0.05000 -0.14500 3.57777
v -0.05000 -0.14500 3.57777
v -0.05000 0.14500 3.51777
v 0.05000 0.14500 3.51777
v 0.05000 0.19500 3.51777
v -0.05000 0.19500 3.51777
v -0.05000 0.14500 3.57777
v 0.05000 0.14500 3.57777
v 0.05000 0.19500 3.57777
v -0.05000 0.19500 3.57777
v -0.33187 -0.19200 2.27172
v -0.33187 -0.19200 2.24172
v -0.33187 -0.18800 2.24172
v -0.33187 -0.18800 2.27172
v 0.33187 -0.19200 2.27172
v 0.33187 -0.19200 2.24172
v 0.33187 -0.18800 2.24172
v 0.33187 -0.18800 2.27172
v -0.33187 0.18800 2.27172
v -0.33187 0.18800 2.24172
v -0.33187 0.19200 2.24172
v -0.33187 0.19200 2.27172
v 0.33187 0.18800 2.27172
v 0.33187 0.18800 2.24172
v 0.33187 0.19200 2.24172
v 0.33187 0.19200 2.27172
g alu
usemtl alu
f 1 3 2
f 1 4 3
f 5 6 7
f 5 7 8
f 1 2 6
f 1 6 5
f 2 3 7
f 2 7 6
f 3 4 8
f 3 8 7
f 4 1 5
f 4 5 8
f 9 11 10
f 9 12 11
f 13 14 15
f 13 15 16
f 9 10 14
f 9 14 13
f 10 11 15
f 10 15 14
f 11 12 16
f 11 16 15
f 12 9 13
f 12 13 16
f 17 19 18
f 17 20 19
f 21 22 23
f 21 23 24
f 17 18 22
f 17 22 21
f 18 19 23
f 18 23 22
f 19 20 24
f 19 24 23
f 20 17 21
f 20 21 24
f 25 27 26
f 25 28 27
f 29 30 31
f 29 31 32
f 25 26 30
f 25 30 29
f 26 27 31
f 26 31 30
f 27 28 32
f 27 32 31
f 28 25 29
f 28 29 32
f 33 35 34
f 33 36 35
f 37 38 39
f 37 39 40
f 33 34 38
f 33 38 37
f 34 35 39
f 34 39 38
f 35 36 40
f 35 40 39
f 36 33 37
f 36 37 40
f 41 43 42
f 41 44 43
f 45 46 47
f 45 47 48
f 41 42 46
f 41 46 45
f 42 43 47
f 42 47 46
f 43 44 48
f 43 48 47
f 44 41 45
f 44 45 48
f 49 51 50
f 49 52 51
f 53 54 55
f 53 55 56
f 49 50 54
f 49 54 53
f 50 51 55
f 50 55 54
f 51 52 56
f 51 56 55
f 52 49 53
f 52 53 56
f 57 59 58
f 57 60 59
f 61 62 63
f 61 63 64
f 57 58 62
f 57 62 61
f 58 59 63
f 58 63 62
f 59 60 64
f 59 64 63
f 60 57 61
f 60 61 64
f 65 67 66
f 65 68 67
f 69 70 71
f 69 71 72
f 65 66 70
f 65 70 69
f 66 67 71
f 66 71 70
f 67 68 72
f 67 72 71
f 68 65 69
f 68 69 72
f 73 75 74
f 73 76 75
f 77 78 79
f 77 79 80
f 73 74 78
f 73 78 77
f 74 75 79
f 74 79 78
f 75 76 80
f 75 80 79
f 76 73 77
f 76 77 80
f 81 83 82
f 81 84 83
f 85 86 87
f 85 87 88
f 81 82 86
f 81 86 85
f 82 83 87
f 82 87 86
f 83 84 88
f 83 88 87
f 84 81 85
f 84 85 88
f 89 91 90
f 89 92 91
f 93 94 95
f 93 95 96
f 89 90 94
f 89 94 93
f 90 91 95
f 90 95 94
f 91 92 96
f 91 96 95
f 92 89 93
f 92 93 96
f 97 99 98
f 97 100 99
f 101 102 103
f 101 103 104
f 97 98 102
f 97 102 101
f 98 99 103
f 98 103 102
f 99 100 104
f 99 104 103
f 100 97 101
f 100 101 104
f 105 107 106
f 105 108 107
f 109 110 111
f 109 111 112
f 105 106 110
f 105 110 109
f 106 107 111
f 106 111 110
f 107 108 112
f 107 112 111
f 108 105 109
f 108 109 112
f 145 147 146
f 145 148 147
f 149 150 151
f 149 151 152
f 145 146 150
f 145 150 149
f 146 147 151
f 146 151 150
f 147 148 152
f 147 152 151
f 148 145 149
f 148 149 152
f 153 155 154
f 153 156 155
f 157 158 159
f 157 159 160
f 153 154 158
f 153 158 157
f 154 155 159
f 154 159 158
f 155 156 160
f 155 160 159
f 156 153 157
f 156 157 160
f 161 163 162
f 161 164 163
f 165 166 167
f 165 167 168
f 161 162 166
f 161 166 165
f 162 163 167
f 162 167 166
f 163 164 168
f 163 168 167
f 164 161 165
f 164 165 168
f 169 171 170
f 169 172 171
f 173 174 175
f 173 175 176
f 169 170 174
f 169 174 173
f 170 171 175
f 170 175 174
f 171 172 176
f 171 176 175
f 172 169 173
f 172 173 176
f 177 179 178
f 177 180 179
f 181 182 183
f 181 183 184
f 177 178 182
f 177 182 181
f 178 179 183
f 178 183 182
f 179 180 184
f 179 184 183
f 180 177 181
f 180 181 184
f 185 187 186
f 185 188 187
f 189 190 191
f 189 191 192
f 185 186 190
f 185 190 189
f 186 187 191
f 186 191 190
f 187 188 192
f 187 192 191
f 188 185 189
f 188 189 192
f 193 195 194
f 193 196 195
f 197 198 199
f 197 199 200
f 193 194 198
f 193 198 197
f 194 195 199
f 194 199 198
f 195 196 200
f 195 200 199
f 196 193 197
f 196 197 200
f 201 203 202
f 201 204 203
f 205 206 207
f 205 207 208
f 201 202 206
f 201 206 205
f 202 203 207
f 202 207 206
f 203 204 208
f 203 208 207
f 204 201 205
f 204 205 208
f 209 211 210
f 209 212 211
f 213 214 215
f 213 215 216
f 209 210 214
f 209 214 213
f 210 211 215
f 210 215 214
f 211 212 216
f 211 216 215
f 212 209 213
f 212 213 216
f 217 219 218
f 217 220 219
f 221 222 223
f 221 223 224
f 217 218 222
f 217 222 221
f 218 219 223
f 218 223 222
f 219 220 224
f 219 224 223
f 220 217 221
f 220 221 224
f 225 227 226
f 225 228 227
f 229 230 231
f 229 231 232
f 225 226 230
f 225 230 229
f 226 227 231
f 226 231 230
f 227 228 232
f 227 232 231
f 228 225 229
f 228 229 232
f 233 235 234
f 233 236 235
f 237 238 239
f 237 239 240
f 233 234 238
f 233 238 237
f 234 235 239
f 234 239 238
f 235 236 240
f 235 240 239
f 236 233 237
f 236 237 240
f 241 243 242
f 241 244 243
f 245 246 247
f 245 247 248
f 241 242 246
f 241 246 245
f 242 243 247
f 242 247 246
f 243 244 248
f 243 248 247
f 244 241 245
f 244 245 248
f 249 251 250
f 249 252 251
f 253 254 255
f 253 255 256
f 249 250 254
f 249 254 253
f 250 251 255
f 250 255 254
f 251 252 256
f 251 256 255
f 252 249 253
f 252 253 256
g dark
usemtl dark
f 113 115 114
f 113 116 115
f 117 118 119
f 117 119 120
f 113 114 118
f 113 118 117
f 114 115 119
f 114 119 118
f 115 116 120
f 115 120 119
f 116 113 117
f 116 117 120
f 121 123 122
f 121 124 123
f 125 126 127
f 125 127 128
f 121 122 126
f 121 126 125
f 122 123 127
f 122 127 126
f 123 124 128
f 123 128 127
f 124 121 125
f 124 125 128
f 257 259 258
f 257 260 259
f 261 262 263
f 261 263 264
f 257 258 262
f 257 262 261
f 258 259 263
f 258 263 262
f 259 260 264
f 259 264 263
f 260 257 261
f 260 261 264
f 265 267 266
f 265 268 267
f 269 270 271
f 269 271 272
f 265 266 270
f 265 270 269
f 266 267 271
f 266 271 270
f 267 268 272
f 267 272 271
f 268 265 269
f 268 269 272
f 289 291 290
f 289 292 291
f 293 294 295
f 293 295 296
f 289 290 294
f 289 294 293
f 290 291 295
f 290 295 294
f 291 292 296
f 291 296 295
f 292 289 293
f 292 293 296
f 297 299 298
f 297 300 299
f 301 302 303
f 301 303 304
f 297 298 302
f 297 302 301
f 298 299 303
f 298 303 302
f 299 300 304
f 299 304 303
f 300 297 301
f 300 301 304
g blue
usemtl blue
f 129 131 130
f 129 132 131
f 133 134 135
f 133 135 136
f 129 130 134
f 129 134 133
f 130 131 135
f 130 135 134
f 131 132 136
f 131 136 135
f 132 129 133
f 132 133 136
g yellow
usemtl yellow
f 137 139 138
f 137 140 139
f 141 142 143
f 141 143 144
f 137 138 142
f 137 142 141
f 138 139 143
f 138 143 142
f 139 140 144
f 139 144 143
f 140 137 141
f 140 141 144
g alu_dark
usemtl alu_dark
f 273 275 274
f 273 276 275
f 277 278 279
f 277 279 280
f 273 274 278
f 273 278 277
f 274 275 279
f 274 279 278
f 275 276 280
f 275 280 279
f 276 273 277
f 276 277 280
f 281 283 282
f 281 284 283
f 285 286 287
f 285 287 288
f 281 282 286
f 281 286 285
f 282 283 287
f 282 287 286
f 283 284 288
f 283 288 287
f 284 281 285
f 284 285 288
