<?xml version="1.0" encoding="utf-8"?>
<COLLADA xmlns="http://www.collada.org/2005/11/COLLADASchema" version="1.4.1">
  <asset>
    <contributor><authoring_tool>obj_to_dae.py</authoring_tool></contributor>
    <unit name="meter" meter="1"/>
    <up_axis>Z_UP</up_axis>
  </asset>
  <library_effects>
    <effect id="alu-fx">
      <profile_COMMON>
        <technique sid="common">
          <phong>
            <emission><color>0 0 0 1</color></emission>
            <ambient><color>0.5500 0.5700 0.6000 1.0000</color></ambient>
            <diffuse><color>0.7200 0.7400 0.7800 1.0000</color></diffuse>
            <specular><color>0.4500 0.4500 0.4500 1.0000</color></specular>
            <shininess><float>40.0</float></shininess>
            <index_of_refraction><float>1.0</float></index_of_refraction>
          </phong>
        </technique>
      </profile_COMMON>
    </effect>
    <effect id="dark-fx">
      <profile_COMMON>
        <technique sid="common">
          <phong>
            <emission><color>0 0 0 1</color></emission>
            <ambient><color>0.0600 0.0600 0.0700 1.0000</color></ambient>
            <diffuse><color>0.1500 0.1500 0.1600 1.0000</color></diffuse>
            <specular><color>0.1000 0.1000 0.1000 1.0000</color></specular>
            <shininess><float>40.0</float></shininess>
            <index_of_refraction><float>1.0</float></index_of_refraction>
          </phong>
        </technique>
      </profile_COMMON>
    </effect>
    <effect id="blue-fx">
      <profile_COMMON>
        <technique sid="common">
          <phong>
            <emission><color>0 0 0 1</color></emission>
            <ambient><color>0.0500 0.1800 0.3800 1.0000</color></ambient>
            <diffuse><color>0.1000 0.3500 0.7000 1.0000</color></diffuse>
            <specular><color>0.1500 0.1500 0.1500 1.0000</color></specular>
            <shininess><float>40.0</float></shininess>
            <index_of_refraction><float>1.0</float></index_of_refraction>
          </phong>
        </technique>
      </profile_COMMON>
    </effect>
    <effect id="yellow-fx">
      <profile_COMMON>
        <technique sid="common">
          <phong>
            <emission><color>0 0 0 1</color></emission>
            <ambient><color>0.4500 0.4000 0.0500 1.0000</color></ambient>
            <diffuse><color>0.9000 0.8000 0.1000 1.0000</color></diffuse>
            <specular><color>0.1500 0.1500 0.1500 1.0000</color></specular>
            <shininess><float>40.0</float></shininess>
            <index_of_refraction><float>1.0</float></index_of_refraction>
          </phong>
        </technique>
      </profile_COMMON>
    </effect>
    <effect id="alu_dark-fx">
      <profile_COMMON>
        <technique sid="common">
          <phong>
            <emission><color>0 0 0 1</color></emission>
            <ambient><color>0.4000 0.4200 0.4500 1.0000</color></ambient>
            <diffuse><color>0.5500 0.5700 0.6000 1.0000</color></diffuse>
            <specular><color>0.3500 0.3500 0.3500 1.0000</color></specular>
            <shininess><float>40.0</float></shininess>
            <index_of_refraction><float>1.0</float></index_of_refraction>
          </phong>
        </technique>
      </profile_COMMON>
    </effect>
  </library_effects>
  <library_materials>
    <material id="alu-mat" name="alu"><instance_effect url="#alu-fx"/></material>
    <material id="dark-mat" name="dark"><instance_effect url="#dark-fx"/></material>
    <material id="blue-mat" name="blue"><instance_effect url="#blue-fx"/></material>
    <material id="yellow-mat" name="yellow"><instance_effect url="#yellow-fx"/></material>
    <material id="alu_dark-mat" name="alu_dark"><instance_effect url="#alu_dark-fx"/></material>
  </library_materials>
  <library_geometries>
    <geometry id="alu-geo" name="alu">
      <mesh>
      <source id="alu-pos">
        <float_array id="alu-pos-array" count="672">-0.909720 -0.210000 0.094070 -0.836950 -0.210000 0.075930 -0.836950 -0.185000 0.075930 -0.909720 -0.185000 0.094070 -0.036390 -0.210000 3.596840 0.036390 -0.210000 3.578700 0.036390 -0.185000 3.578700 -0.036390 -0.185000 3.596840 -0.909720 0.185000 0.094070 -0.836950 0.185000 0.075930 -0.836950 0.210000 0.075930 -0.909720 0.210000 0.094070 -0.036390 0.185000 3.596840 0.036390 0.185000 3.578700 0.036390 0.210000 3.578700 -0.036390 0.210000 3.596840 -0.831650 -0.185000 0.314220 -0.802540 -0.185000 0.306960 -0.802540 0.185000 0.306960 -0.831650 0.185000 0.314220 -0.825600 -0.185000 0.338480 -0.796490 -0.185000 0.331220 -0.796490 0.185000 0.331220 -0.825600 0.185000 0.338480 -0.763910 -0.185000 0.585910 -0.734800 -0.185000 0.578650 -0.734800 0.185000 0.578650 -0.763910 0.185000 0.585910 -0.757860 -0.185000 0.610160 -0.728750 -0.185000 0.602910 -0.728750 0.185000 0.602910 -0.757860 0.185000 0.610160 -0.696170 -0.185000 0.857590 -0.667060 -0.185000 0.850330 -0.667060 0.185000 0.850330 -0.696170 0.185000 0.857590 -0.690120 -0.185000 0.881850 -0.661010 -0.185000 0.874590 -0.661010 0.185000 0.874590 -0.690120 0.185000 0.881850 -0.628430 -0.185000 1.129270 -0.599320 -0.185000 1.122010 -0.599320 0.185000 1.122010 -0.628430 0.185000 1.129270 -0.622380 -0.185000 1.153530 -0.593270 -0.185000 1.146270 -0.593270 0.185000 1.146270 -0.622380 0.185000 1.153530 -0.560690 -0.185000 1.400950 -0.531580 -0.185000 1.393700 -0.531580 0.185000 1.393700 -0.560690 0.185000 1.400950 -0.554650 -0.185000 1.425210 -0.525540 -0.185000 1.417950 -0.525540 0.185000 1.417950 -0.554650 0.185000 1.425210 -0.492950 -0.185000 1.672640 -0.463850 -0.185000 1.665380 -0.463850 0.185000 1.665380 -0.492950 0.185000 1.672640 -0.486910 -0.185000 1.696890 -0.457800 -0.185000 1.689640 -0.457800 0.185000 1.689640 -0.486910 0.185000 1.696890 -0.425220 -0.185000 1.944320 -0.396110 -0.185000 1.937060 -0.396110 0.185000 1.937060 -0.425220 0.185000 1.944320 -0.419170 -0.185000 1.968580 -0.390060 -0.185000 1.961320 -0.390060 0.185000 1.961320 -0.419170 0.185000 1.968580 -0.357480 -0.185000 2.216000 -0.328370 -0.185000 2.208740 -0.328370 0.185000 2.208740 -0.357480 0.185000 2.216000 -0.351430 -0.185000 2.240260 -0.322320 -0.185000 2.233000 -0.322320 0.185000 2.233000 -0.351430 0.185000 2.240260 -0.289740 -0.185000 2.487690 -0.260630 -0.185000 2.480430 -0.260630 0.185000 2.480430 -0.289740 0.185000 2.487690 -0.283690 -0.185000 2.511940 -0.254580 -0.185000 2.504680 -0.254580 0.185000 2.504680 -0.283690 0.185000 2.511940 -0.222000 -0.185000 2.759370 -0.192890 -0.185000 2.752110 -0.192890 0.185000 2.752110 -0.222000 0.185000 2.759370 -0.215950 -0.185000 2.783630 -0.186850 -0.185000 2.776370 -0.186850 0.185000 2.776370 -0.215950 0.185000 2.783630 -0.154260 -0.185000 3.031050 -0.125160 -0.185000 3.023790 -0.125160 0.185000 3.023790 -0.154260 0.185000 3.031050 -0.148220 -0.185000 3.055310 -0.119110 -0.185000 3.048050 -0.119110 0.185000 3.048050 -0.148220 0.185000 3.055310 -0.086530 -0.185000 3.302730 -0.057420 -0.185000 3.295480 -0.057420 0.185000 3.295480 -0.086530 0.185000 3.302730 -0.080480 -0.185000 3.326990 -0.051370 -0.185000 3.319730 -0.051370 0.185000 3.319730 -0.080480 0.185000 3.326990 0.841800 -0.180000 0.077140 0.904870 -0.180000 0.092860 0.904870 -0.155000 0.092860 0.841800 -0.155000 0.077140 -0.031530 -0.180000 3.579910 0.031530 -0.180000 3.595630 0.031530 -0.155000 3.595630 -0.031530 -0.155000 3.579910 0.841800 0.155000 0.077140 0.904870 0.155000 0.092860 0.904870 0.180000 0.092860 0.841800 0.180000 0.077140 -0.031530 0.155000 3.579910 0.031530 0.155000 3.595630 0.031530 0.180000 3.595630 -0.031530 0.180000 3.579910 0.802540 -0.155000 0.306960 0.831650 -0.155000 0.314220 0.831650 0.155000 0.314220 0.802540 0.155000 0.306960 0.796490 -0.155000 0.331220 0.825600 -0.155000 0.338480 0.825600 0.155000 0.338480 0.796490 0.155000 0.331220 0.734800 -0.155000 0.578650 0.763910 -0.155000 0.585910 0.763910 0.155000 0.585910 0.734800 0.155000 0.578650 0.728750 -0.155000 0.602910 0.757860 -0.155000 0.610160 0.757860 0.155000 0.610160 0.728750 0.155000 0.602910 0.667060 -0.155000 0.850330 0.696170 -0.155000 0.857590 0.696170 0.155000 0.857590 0.667060 0.155000 0.850330 0.661010 -0.155000 0.874590 0.690120 -0.155000 0.881850 0.690120 0.155000 0.881850 0.661010 0.155000 0.874590 0.599320 -0.155000 1.122010 0.628430 -0.155000 1.129270 0.628430 0.155000 1.129270 0.599320 0.155000 1.122010 0.593270 -0.155000 1.146270 0.622380 -0.155000 1.153530 0.622380 0.155000 1.153530 0.593270 0.155000 1.146270 0.531580 -0.155000 1.393700 0.560690 -0.155000 1.400950 0.560690 0.155000 1.400950 0.531580 0.155000 1.393700 0.525540 -0.155000 1.417950 0.554650 -0.155000 1.425210 0.554650 0.155000 1.425210 0.525540 0.155000 1.417950 0.463850 -0.155000 1.665380 0.492950 -0.155000 1.672640 0.492950 0.155000 1.672640 0.463850 0.155000 1.665380 0.457800 -0.155000 1.689640 0.486910 -0.155000 1.696890 0.486910 0.155000 1.696890 0.457800 0.155000 1.689640 0.396110 -0.155000 1.937060 0.425220 -0.155000 1.944320 0.425220 0.155000 1.944320 0.396110 0.155000 1.937060 0.390060 -0.155000 1.961320 0.419170 -0.155000 1.968580 0.419170 0.155000 1.968580 0.390060 0.155000 1.961320 0.328370 -0.155000 2.208740 0.357480 -0.155000 2.216000 0.357480 0.155000 2.216000 0.328370 0.155000 2.208740 0.322320 -0.155000 2.233000 0.351430 -0.155000 2.240260 0.351430 0.155000 2.240260 0.322320 0.155000 2.233000 0.260630 -0.155000 2.480430 0.289740 -0.155000 2.487690 0.289740 0.155000 2.487690 0.260630 0.155000 2.480430 0.254580 -0.155000 2.504680 0.283690 -0.155000 2.511940 0.283690 0.155000 2.511940 0.254580 0.155000 2.504680 0.192890 -0.155000 2.752110 0.222000 -0.155000 2.759370 0.222000 0.155000 2.759370 0.192890 0.155000 2.752110 0.186850 -0.155000 2.776370 0.215950 -0.155000 2.783630 0.215950 0.155000 2.783630 0.186850 0.155000 2.776370 0.125160 -0.155000 3.023790 0.154260 -0.155000 3.031050 0.154260 0.155000 3.031050 0.125160 0.155000 3.023790 0.119110 -0.155000 3.048050 0.148220 -0.155000 3.055310 0.148220 0.155000 3.055310 0.119110 0.155000 3.048050 0.057420 -0.155000 3.295480 0.086530 -0.155000 3.302730 0.086530 0.155000 3.302730 0.057420 0.155000 3.295480 0.051370 -0.155000 3.319730 0.080480 -0.155000 3.326990 0.080480 0.155000 3.326990 0.051370 0.155000 3.319730</float_array>
        <technique_common>
          <accessor source="#alu-pos-array" count="224" stride="3"><param name="X" type="float"/><param name="Y" type="float"/><param name="Z" type="float"/></accessor>
        </technique_common>
      </source>
      <source id="alu-nrm">
        <float_array id="alu-nrm-array" count="1008">-0.241877 0.000000 -0.970307 -0.241877 0.000000 -0.970307 0.241845 0.000000 0.970315 0.241845 -0.000000 0.970315 0.000000 -1.000000 0.000000 0.000000 -1.000000 0.000000 0.970296 0.000000 -0.241922 0.970296 0.000000 -0.241922 0.000000 1.000000 -0.000000 0.000000 1.000000 0.000000 -0.970296 0.000000 0.241920 -0.970296 0.000000 0.241920 -0.241877 0.000000 -0.970307 -0.241877 0.000000 -0.970307 0.241845 0.000000 0.970315 0.241845 -0.000000 0.970315 0.000000 -1.000000 0.000000 0.000000 -1.000000 0.000000 0.970296 0.000000 -0.241922 0.970296 0.000000 -0.241922 0.000000 1.000000 -0.000000 0.000000 1.000000 0.000000 -0.970296 0.000000 0.241920 -0.970296 0.000000 0.241920 -0.241987 0.000000 -0.970280 -0.241987 0.000000 -0.970280 0.241987 0.000000 0.970280 0.241987 -0.000000 0.970280 0.000000 -1.000000 0.000000 0.000000 -1.000000 0.000000 0.970283 0.000000 -0.241971 0.970283 0.000000 -0.241971 0.000000 1.000000 0.000000 0.000000 1.000000 -0.000000 -0.970283 0.000000 0.241971 -0.970283 0.000000 0.241971 -0.241987 0.000000 -0.970280 -0.241987 0.000000 -0.970280 0.241673 0.000000 0.970358 0.241673 -0.000000 0.970358 0.000000 -1.000000 0.000000 0.000000 -1.000000 0.000000 0.970283 0.000000 -0.241971 0.970283 0.000000 -0.241971 0.000000 1.000000 0.000000 0.000000 1.000000 -0.000000 -0.970260 0.000000 0.242065 -0.970260 0.000000 0.242065 -0.241987 0.000000 -0.970280 -0.241987 0.000000 -0.970280 0.241987 0.000000 0.970280 0.241987 -0.000000 0.970280 0.000000 -1.000000 0.000000 0.000000 -1.000000 0.000000 0.970283 0.000000 -0.241971 0.970283 0.000000 -0.241971 0.000000 1.000000 0.000000 0.000000 1.000000 -0.000000 -0.970283 0.000000 0.241971 -0.970283 0.000000 0.241971 -0.241987 0.000000 -0.970280 -0.241987 0.000000 -0.970280 0.241987 0.000000 0.970280 0.241987 -0.000000 0.970280 0.000000 -1.000000 0.000000 0.000000 -1.000000 0.000000 0.970283 0.000000 -0.241971 0.970283 0.000000 -0.241971 0.000000 1.000000 0.000000 0.000000 1.000000 -0.000000 -0.970283 0.000000 0.241971 -0.970283 0.000000 0.241971 -0.241673 0.000000 -0.970358 -0.241673 0.000000 -0.970358 0.241987 0.000000 0.970280 0.241987 -0.000000 0.970280 0.000000 -1.000000 0.000000 0.000000 -1.000000 0.000000 0.970354 0.000000 -0.241688 0.970354 0.000000 -0.241688 0.000000 1.000000 0.000000 0.000000 1.000000 -0.000000 -0.970377 0.000000 0.241594 -0.970377 0.000000 0.241594 -0.242065 0.000000 -0.970260 -0.242065 0.000000 -0.970260 0.241673 0.000000 0.970358 0.241673 -0.000000 0.970358 0.000000 -1.000000 0.000000 0.000000 -1.000000 0.000000 0.970283 0.000000 -0.241971 0.970283 0.000000 -0.241971 0.000000 1.000000 0.000000 0.000000 1.000000 -0.000000 -0.970354 0.000000 0.241688 -0.970354 0.000000 0.241688 -0.241987 0.000000 -0.970280 -0.241987 0.000000 -0.970280 0.241987 0.000000 0.970280 0.241987 -0.000000 0.970280 0.000000 -1.000000 0.000000 0.000000 -1.000000 0.000000 0.970283 0.000000 -0.241971 0.970283 0.000000 -0.241971 0.000000 1.000000 0.000000 0.000000 1.000000 -0.000000 -0.970283 0.000000 0.241971 -0.970283 0.000000 0.241971 -0.241987 0.000000 -0.970280 -0.241987 0.000000 -0.970280 0.241987 0.000000 0.970280 0.241987 -0.000000 0.970280 0.000000 -1.000000 0.000000 0.000000 -1.000000 0.000000 0.970283 0.000000 -0.241971 0.970283 0.000000 -0.241971 0.000000 1.000000 0.000000 0.000000 1.000000 -0.000000 -0.970283 0.000000 0.241971 -0.970283 0.000000 0.241971 -0.241987 0.000000 -0.970280 -0.241987 0.000000 -0.970280 0.241987 0.000000 0.970280 0.241987 -0.000000 0.970280 0.000000 -1.000000 0.000000 0.000000 -1.000000 0.000000 0.970260 0.000000 -0.242065 0.970260 0.000000 -0.242065 0.000000 1.000000 0.000000 0.000000 1.000000 -0.000000 -0.970260 0.000000 0.242065 -0.970260 0.000000 0.242065 -0.241987 0.000000 -0.970280 -0.241987 0.000000 -0.970280 0.242065 0.000000 0.970260 0.242065 -0.000000 0.970260 0.000000 -1.000000 0.000000 0.000000 -1.000000 0.000000 0.970377 0.000000 -0.241594 0.970377 0.000000 -0.241594 0.000000 1.000000 0.000000 0.000000 1.000000 -0.000000 -0.970283 0.000000 0.241971 -0.970283 0.000000 0.241971 -0.242065 0.000000 -0.970260 -0.242065 0.000000 -0.970260 0.241987 0.000000 0.970280 0.241987 -0.000000 0.970280 0.000000 -1.000000 0.000000 0.000000 -1.000000 0.000000 0.970283 0.000000 -0.241971 0.970283 0.000000 -0.241971 0.000000 1.000000 0.000000 0.000000 1.000000 -0.000000 -0.970377 0.000000 0.241594 -0.970377 0.000000 0.241594 -0.241673 0.000000 -0.970358 -0.241673 0.000000 -0.970358 0.241987 0.000000 0.970280 0.241987 -0.000000 0.970280 0.000000 -1.000000 0.000000 0.000000 -1.000000 0.000000 0.970260 0.000000 -0.242065 0.970260 0.000000 -0.242065 0.000000 1.000000 0.000000 0.000000 1.000000 -0.000000 -0.970283 0.000000 0.241971 -0.970283 0.000000 0.241971 0.241848 0.000000 -0.970314 0.241848 0.000000 -0.970314 -0.241884 0.000000 0.970305 -0.241884 0.000000 0.970305 0.000000 -1.000000 0.000000 0.000000 -1.000000 0.000000 0.970296 -0.000000 0.241922 0.970296 0.000000 0.241922 0.000000 1.000000 0.000000 0.000000 1.000000 0.000000 -0.970296 -0.000000 -0.241920 -0.970296 0.000000 -0.241920 0.241848 0.000000 -0.970314 0.241848 0.000000 -0.970314 -0.241884 0.000000 0.970305 -0.241884 0.000000 0.970305 0.000000 -1.000000 0.000000 0.000000 -1.000000 0.000000 0.970296 -0.000000 0.241922 0.970296 0.000000 0.241922 0.000000 1.000000 0.000000 0.000000 1.000000 0.000000 -0.970296 -0.000000 -0.241920 -0.970296 0.000000 -0.241920 0.241987 0.000000 -0.970280 0.241987 0.000000 -0.970280 -0.241987 0.000000 0.970280 -0.241987 0.000000 0.970280 0.000000 -1.000000 0.000000 0.000000 -1.000000 0.000000 0.970283 -0.000000 0.241971 0.970283 0.000000 0.241971 0.000000 1.000000 0.000000 0.000000 1.000000 0.000000 -0.970283 -0.000000 -0.241971 -0.970283 0.000000 -0.241971 0.241987 0.000000 -0.970280 0.241987 0.000000 -0.970280 -0.241673 0.000000 0.970358 -0.241673 0.000000 0.970358 0.000000 -1.000000 0.000000 0.000000 -1.000000 0.000000 0.970260 -0.000000 0.242065 0.970260 0.000000 0.242065 0.000000 1.000000 0.000000 0.000000 1.000000 0.000000 -0.970283 -0.000000 -0.241971 -0.970283 0.000000 -0.241971 0.241987 0.000000 -0.970280 0.241987 0.000000 -0.970280 -0.241987 0.000000 0.970280 -0.241987 0.000000 0.970280 0.000000 -1.000000 0.000000 0.000000 -1.000000 0.000000 0.970283 -0.000000 0.241971 0.970283 0.000000 0.241971 0.000000 1.000000 0.000000 0.000000 1.000000 0.000000 -0.970283 -0.000000 -0.241971 -0.970283 0.000000 -0.241971 0.241987 0.000000 -0.970280 0.241987 0.000000 -0.970280 -0.241987 0.000000 0.970280 -0.241987 0.000000 0.970280 0.000000 -1.000000 0.000000 0.000000 -1.000000 0.000000 0.970283 -0.000000 0.241971 0.970283 0.000000 0.241971 0.000000 1.000000 0.000000 0.000000 1.000000 0.000000 -0.970283 -0.000000 -0.241971 -0.970283 0.000000 -0.241971 0.241673 0.000000 -0.970358 0.241673 0.000000 -0.970358 -0.241987 0.000000 0.970280 -0.241987 0.000000 0.970280 0.000000 -1.000000 0.000000 0.000000 -1.000000 0.000000 0.970377 -0.000000 0.241594 0.970377 0.000000 0.241594 0.000000 1.000000 0.000000 0.000000 1.000000 0.000000 -0.970354 -0.000000 -0.241688 -0.970354 0.000000 -0.241688 0.242065 0.000000 -0.970260 0.242065 0.000000 -0.970260 -0.241673 0.000000 0.970358 -0.241673 0.000000 0.970358 0.000000 -1.000000 0.000000 0.000000 -1.000000 0.000000 0.970354 -0.000000 0.241688 0.970354 0.000000 0.241688 0.000000 1.000000 0.000000 0.000000 1.000000 0.000000 -0.970283 -0.000000 -0.241971 -0.970283 0.000000 -0.241971 0.241987 0.000000 -0.970280 0.241987 0.000000 -0.970280 -0.241987 0.000000 0.970280 -0.241987 0.000000 0.970280 0.000000 -1.000000 0.000000 0.000000 -1.000000 0.000000 0.970283 -0.000000 0.241971 0.970283 0.000000 0.241971 0.000000 1.000000 0.000000 0.000000 1.000000 0.000000 -0.970283 -0.000000 -0.241971 -0.970283 0.000000 -0.241971 0.241987 0.000000 -0.970280 0.241987 0.000000 -0.970280 -0.241987 0.000000 0.970280 -0.241987 0.000000 0.970280 0.000000 -1.000000 0.000000 0.000000 -1.000000 0.000000 0.970283 -0.000000 0.241971 0.970283 0.000000 0.241971 0.000000 1.000000 0.000000 0.000000 1.000000 0.000000 -0.970283 -0.000000 -0.241971 -0.970283 0.000000 -0.241971 0.241987 0.000000 -0.970280 0.241987 0.000000 -0.970280 -0.241987 0.000000 0.970280 -0.241987 0.000000 0.970280 0.000000 -1.000000 0.000000 0.000000 -1.000000 0.000000 0.970260 -0.000000 0.242065 0.970260 0.000000 0.242065 0.000000 1.000000 0.000000 0.000000 1.000000 0.000000 -0.970260 -0.000000 -0.242065 -0.970260 0.000000 -0.242065 0.241987 0.000000 -0.970280 0.241987 0.000000 -0.970280 -0.242065 0.000000 0.970260 -0.242065 0.000000 0.970260 0.000000 -1.000000 0.000000 0.000000 -1.000000 0.000000 0.970283 -0.000000 0.241971 0.970283 0.000000 0.241971 0.000000 1.000000 0.000000 0.000000 1.000000 0.000000 -0.970377 -0.000000 -0.241594 -0.970377 0.000000 -0.241594 0.242065 0.000000 -0.970260 0.242065 0.000000 -0.970260 -0.241987 0.000000 0.970280 -0.241987 0.000000 0.970280 0.000000 -1.000000 0.000000 0.000000 -1.000000 0.000000 0.970377 -0.000000 0.241594 0.970377 0.000000 0.241594 0.000000 1.000000 0.000000 0.000000 1.000000 0.000000 -0.970283 -0.000000 -0.241971 -0.970283 0.000000 -0.241971 0.241673 0.000000 -0.970358 0.241673 0.000000 -0.970358 -0.241987 0.000000 0.970280 -0.241987 0.000000 0.970280 0.000000 -1.000000 0.000000 0.000000 -1.000000 0.000000 0.970283 -0.000000 0.241971 0.970283 0.000000 0.241971 0.000000 1.000000 0.000000 0.000000 1.000000 0.000000 -0.970260 -0.000000 -0.242065 -0.970260 0.000000 -0.242065</float_array>
        <technique_common>
          <accessor source="#alu-nrm-array" count="336" stride="3"><param name="X" type="float"/><param name="Y" type="float"/><param name="Z" type="float"/></accessor>
        </technique_common>
      </source>
      <vertices id="alu-vtx">
        <input semantic="POSITION" source="#alu-pos"/>
      </vertices>
      <triangles material="alu-sym" count="336">
        <input semantic="VERTEX" source="#alu-vtx" offset="0"/>
        <input semantic="NORMAL" source="#alu-nrm" offset="1"/>
        <p>0 0 2 0 1 0 0 1 3 1 2 1 4 2 5 2 6 2 4 3 6 3 7 3 0 4 1 4 5 4 0 5 5 5 4 5 1 6 2 6 6 6 1 7 6 7 5 7 2 8 3 8 7 8 2 9 7 9 6 9 3 10 0 10 4 10 3 11 4 11 7 11 8 12 10 12 9 12 8 13 11 13 10 13 12 14 13 14 14 14 12 15 14 15 15 15 8 16 9 16 13 16 8 17 13 17 12 17 9 18 10 18 14 18 9 19 14 19 13 19 10 20 11 20 15 20 10 21 15 21 14 21 11 22 8 22 12 22 11 23 12 23 15 23 16 24 18 24 17 24 16 25 19 25 18 25 20 26 21 26 22 26 20 27 22 27 23 27 16 28 17 28 21 28 16 29 21 29 20 29 17 30 18 30 22 30 17 31 22 31 21 31 18 32 19 32 23 32 18 33 23 33 22 33 19 34 16 34 20 34 19 35 20 35 23 35 24 36 26 36 25 36 24 37 27 37 26 37 28 38 29 38 30 38 28 39 30 39 31 39 24 40 25 40 29 40 24 41 29 41 28 41 25 42 26 42 30 42 25 43 30 43 29 43 26 44 27 44 31 44 26 45 31 45 30 45 27 46 24 46 28 46 27 47 28 47 31 47 32 48 34 48 33 48 32 49 35 49 34 49 36 50 37 50 38 50 36 51 38 51 39 51 32 52 33 52 37 52 32 53 37 53 36 53 33 54 34 54 38 54 33 55 38 55 37 55 34 56 35 56 39 56 34 57 39 57 38 57 35 58 32 58 36 58 35 59 36 59 39 59 40 60 42 60 41 60 40 61 43 61 42 61 44 62 45 62 46 62 44 63 46 63 47 63 40 64 41 64 45 64 40 65 45 65 44 65 41 66 42 66 46 66 41 67 46 67 45 67 42 68 43 68 47 68 42 69 47 69 46 69 43 70 40 70 44 70 43 71 44 71 47 71 48 72 50 72 49 72 48 73 51 73 50 73 52 74 53 74 54 74 52 75 54 75 55 75 48 76 49 76 53 76 48 77 53 77 52 77 49 78 50 78 54 78 49 79 54 79 53 79 50 80 51 80 55 80 50 81 55 81 54 81 51 82 48 82 52 82 51 83 52 83 55 83 56 84 58 84 57 84 56 85 59 85 58 85 60 86 61 86 62 86 60 87 62 87 63 87 56 88 57 88 61 88 56 89 61 89 60 89 57 90 58 90 62 90 57 91 62 91 61 91 58 92 59 92 63 92 58 93 63 93 62 93 59 94 56 94 60 94 59 95 60 95 63 95 64 96 66 96 65 96 64 97 67 97 66 97 68 98 69 98 70 98 68 99 70 99 71 99 64 100 65 100 69 100 64 101 69 101 68 101 65 102 66 102 70 102 65 103 70 103 69 103 66 104 67 104 71 104 66 105 71 105 70 105 67 106 64 106 68 106 67 107 68 107 71 107 72 108 74 108 73 108 72 109 75 109 74 109 76 110 77 110 78 110 76 111 78 111 79 111 72 112 73 112 77 112 72 113 77 113 76 113 73 114 74 114 78 114 73 115 78 115 77 115 74 116 75 116 79 116 74 117 79 117 78 117 75 118 72 118 76 118 75 119 76 119 79 119 80 120 82 120 81 120 80 121 83 121 82 121 84 122 85 122 86 122 84 123 86 123 87 123 80 124 81 124 85 124 80 125 85 125 84 125 81 126 82 126 86 126 81 127 86 127 85 127 82 128 83 128 87 128 82 129 87 129 86 129 83 130 80 130 84 130 83 131 84 131 87 131 88 132 90 132 89 132 88 133 91 133 90 133 92 134 93 134 94 134 92 135 94 135 95 135 88 136 89 136 93 136 88 137 93 137 92 137 89 138 90 138 94 138 89 139 94 139 93 139 90 140 91 140 95 140 90 141 95 141 94 141 91 142 88 142 92 142 91 143 92 143 95 143 96 144 98 144 97 144 96 145 99 145 98 145 100 146 101 146 102 146 100 147 102 147 103 147 96 148 97 148 101 148 96 149 101 149 100 149 97 150 98 150 102 150 97 151 102 151 101 151 98 152 99 152 103 152 98 153 103 153 102 153 99 154 96 154 100 154 99 155 100 155 103 155 104 156 106 156 105 156 104 157 107 157 106 157 108 158 109 158 110 158 108 159 110 159 111 159 104 160 105 160 109 160 104 161 109 161 108 161 105 162 106 162 110 162 105 163 110 163 109 163 106 164 107 164 111 164 106 165 111 165 110 165 107 166 104 166 108 166 107 167 108 167 111 167 112 168 114 168 113 168 112 169 115 169 114 169 116 170 117 170 118 170 116 171 118 171 119 171 112 172 113 172 117 172 112 173 117 173 116 173 113 174 114 174 118 174 113 175 118 175 117 175 114 176 115 176 119 176 114 177 119 177 118 177 115 178 112 178 116 178 115 179 116 179 119 179 120 180 122 180 121 180 120 181 123 181 122 181 124 182 125 182 126 182 124 183 126 183 127 183 120 184 121 184 125 184 120 185 125 185 124 185 121 186 122 186 126 186 121 187 126 187 125 187 122 188 123 188 127 188 122 189 127 189 126 189 123 190 120 190 124 190 123 191 124 191 127 191 128 192 130 192 129 192 128 193 131 193 130 193 132 194 133 194 134 194 132 195 134 195 135 195 128 196 129 196 133 196 128 197 133 197 132 197 129 198 130 198 134 198 129 199 134 199 133 199 130 200 131 200 135 200 130 201 135 201 134 201 131 202 128 202 132 202 131 203 132 203 135 203 136 204 138 204 137 204 136 205 139 205 138 205 140 206 141 206 142 206 140 207 142 207 143 207 136 208 137 208 141 208 136 209 141 209 140 209 137 210 138 210 142 210 137 211 142 211 141 211 138 212 139 212 143 212 138 213 143 213 142 213 139 214 136 214 140 214 139 215 140 215 143 215 144 216 146 216 145 216 144 217 147 217 146 217 148 218 149 218 150 218 148 219 150 219 151 219 144 220 145 220 149 220 144 221 149 221 148 221 145 222 146 222 150 222 145 223 150 223 149 223 146 224 147 224 151 224 146 225 151 225 150 225 147 226 144 226 148 226 147 227 148 227 151 227 152 228 154 228 153 228 152 229 155 229 154 229 156 230 157 230 158 230 156 231 158 231 159 231 152 232 153 232 157 232 152 233 157 233 156 233 153 234 154 234 158 234 153 235 158 235 157 235 154 236 155 236 159 236 154 237 159 237 158 237 155 238 152 238 156 238 155 239 156 239 159 239 160 240 162 240 161 240 160 241 163 241 162 241 164 242 165 242 166 242 164 243 166 243 167 243 160 244 161 244 165 244 160 245 165 245 164 245 161 246 162 246 166 246 161 247 166 247 165 247 162 248 163 248 167 248 162 249 167 249 166 249 163 250 160 250 164 250 163 251 164 251 167 251 168 252 170 252 169 252 168 253 171 253 170 253 172 254 173 254 174 254 172 255 174 255 175 255 168 256 169 256 173 256 168 257 173 257 172 257 169 258 170 258 174 258 169 259 174 259 173 259 170 260 171 260 175 260 170 261 175 261 174 261 171 262 168 262 172 262 171 263 172 263 175 263 176 264 178 264 177 264 176 265 179 265 178 265 180 266 181 266 182 266 180 267 182 267 183 267 176 268 177 268 181 268 176 269 181 269 180 269 177 270 178 270 182 270 177 271 182 271 181 271 178 272 179 272 183 272 178 273 183 273 182 273 179 274 176 274 180 274 179 275 180 275 183 275 184 276 186 276 185 276 184 277 187 277 186 277 188 278 189 278 190 278 188 279 190 279 191 279 184 280 185 280 189 280 184 281 189 281 188 281 185 282 186 282 190 282 185 283 190 283 189 283 186 284 187 284 191 284 186 285 191 285 190 285 187 286 184 286 188 286 187 287 188 287 191 287 192 288 194 288 193 288 192 289 195 289 194 289 196 290 197 290 198 290 196 291 198 291 199 291 192 292 193 292 197 292 192 293 197 293 196 293 193 294 194 294 198 294 193 295 198 295 197 295 194 296 195 296 199 296 194 297 199 297 198 297 195 298 192 298 196 298 195 299 196 299 199 299 200 300 202 300 201 300 200 301 203 301 202 301 204 302 205 302 206 302 204 303 206 303 207 303 200 304 201 304 205 304 200 305 205 305 204 305 201 306 202 306 206 306 201 307 206 307 205 307 202 308 203 308 207 308 202 309 207 309 206 309 203 310 200 310 204 310 203 311 204 311 207 311 208 312 210 312 209 312 208 313 211 313 210 313 212 314 213 314 214 314 212 315 214 315 215 315 208 316 209 316 213 316 208 317 213 317 212 317 209 318 210 318 214 318 209 319 214 319 213 319 210 320 211 320 215 320 210 321 215 321 214 321 211 322 208 322 212 322 211 323 212 323 215 323 216 324 218 324 217 324 216 325 219 325 218 325 220 326 221 326 222 326 220 327 222 327 223 327 216 328 217 328 221 328 216 329 221 329 220 329 217 330 218 330 222 330 217 331 222 331 221 331 218 332 219 332 223 332 218 333 223 333 222 333 219 334 216 334 220 334 219 335 220 335 223 335</p>
      </triangles>
      </mesh>
    </geometry>
    <geometry id="dark-geo" name="dark">
      <mesh>
      <source id="dark-pos">
        <float_array id="dark-pos-array" count="144">-0.937560 -0.215000 0.013410 -0.850240 -0.215000 -0.008360 -0.850240 -0.180000 -0.008360 -0.937560 -0.180000 0.013410 -0.917000 -0.215000 0.095890 -0.829670 -0.215000 0.074110 -0.829670 -0.180000 0.074110 -0.917000 -0.180000 0.095890 -0.937560 0.180000 0.013410 -0.850240 0.180000 -0.008360 -0.850240 0.215000 -0.008360 -0.937560 0.215000 0.013410 -0.917000 0.180000 0.095890 -0.829670 0.180000 0.074110 -0.829670 0.215000 0.074110 -0.917000 0.215000 0.095890 0.850240 -0.185000 -0.008360 0.937560 -0.185000 0.013410 0.937560 -0.150000 0.013410 0.850240 -0.150000 -0.008360 0.829670 -0.185000 0.074110 0.917000 -0.185000 0.095890 0.917000 -0.150000 0.095890 0.829670 -0.150000 0.074110 0.850240 0.150000 -0.008360 0.937560 0.150000 0.013410 0.937560 0.185000 0.013410 0.850240 0.185000 -0.008360 0.829670 0.150000 0.074110 0.917000 0.150000 0.095890 0.917000 0.185000 0.095890 0.829670 0.185000 0.074110 -0.331870 -0.192000 2.271720 -0.331870 -0.192000 2.241720 -0.331870 -0.188000 2.241720 -0.331870 -0.188000 2.271720 0.331870 -0.192000 2.271720 0.331870 -0.192000 2.241720 0.331870 -0.188000 2.241720 0.331870 -0.188000 2.271720 -0.331870 0.188000 2.271720 -0.331870 0.188000 2.241720 -0.331870 0.192000 2.241720 -0.331870 0.192000 2.271720 0.331870 0.188000 2.271720 0.331870 0.188000 2.241720 0.331870 0.192000 2.241720 0.331870 0.192000 2.271720</float_array>
        <technique_common>
          <accessor source="#dark-pos-array" count="48" stride="3"><param name="X" type="float"/><param name="Y" type="float"/><param name="Z" type="float"/></accessor>
        </technique_common>
      </source>
      <source id="dark-nrm">
        <float_array id="dark-nrm-array" count="216">-0.241908 0.000000 -0.970299 -0.241908 0.000000 -0.970299 0.241987 0.000000 0.970280 0.241987 -0.000000 0.970280 0.000000 -1.000000 0.000000 0.000000 -1.000000 0.000000 0.970274 0.000000 -0.242010 0.970274 0.000000 -0.242010 0.000000 1.000000 0.000000 0.000000 1.000000 -0.000000 -0.970308 0.000000 0.241871 -0.970308 0.000000 0.241871 -0.241908 0.000000 -0.970299 -0.241908 0.000000 -0.970299 0.241987 0.000000 0.970280 0.241987 -0.000000 0.970280 0.000000 -1.000000 0.000000 0.000000 -1.000000 0.000000 0.970274 0.000000 -0.242010 0.970274 0.000000 -0.242010 0.000000 1.000000 0.000000 0.000000 1.000000 -0.000000 -0.970308 0.000000 0.241871 -0.970308 0.000000 0.241871 0.241908 0.000000 -0.970299 0.241908 0.000000 -0.970299 -0.241987 0.000000 0.970280 -0.241987 0.000000 0.970280 0.000000 -1.000000 0.000000 0.000000 -1.000000 0.000000 0.970308 -0.000000 0.241871 0.970308 0.000000 0.241871 0.000000 1.000000 0.000000 0.000000 1.000000 0.000000 -0.970274 -0.000000 -0.242010 -0.970274 0.000000 -0.242010 0.241908 0.000000 -0.970299 0.241908 0.000000 -0.970299 -0.241987 0.000000 0.970280 -0.241987 0.000000 0.970280 0.000000 -1.000000 0.000000 0.000000 -1.000000 0.000000 0.970308 -0.000000 0.241871 0.970308 0.000000 0.241871 0.000000 1.000000 0.000000 0.000000 1.000000 0.000000 -0.970274 -0.000000 -0.242010 -0.970274 0.000000 -0.242010 -1.000000 0.000000 0.000000 -1.000000 0.000000 0.000000 1.000000 0.000000 0.000000 1.000000 -0.000000 0.000000 0.000000 -1.000000 0.000000 0.000000 -1.000000 0.000000 0.000000 0.000000 -1.000000 0.000000 0.000000 -1.000000 0.000000 1.000000 0.000000 0.000000 1.000000 0.000000 0.000000 0.000000 1.000000 -0.000000 0.000000 1.000000 -1.000000 0.000000 0.000000 -1.000000 0.000000 0.000000 1.000000 0.000000 0.000000 1.000000 -0.000000 0.000000 0.000000 -1.000000 0.000000 0.000000 -1.000000 0.000000 0.000000 0.000000 -1.000000 0.000000 0.000000 -1.000000 0.000000 1.000000 0.000000 0.000000 1.000000 0.000000 0.000000 0.000000 1.000000 -0.000000 0.000000 1.000000</float_array>
        <technique_common>
          <accessor source="#dark-nrm-array" count="72" stride="3"><param name="X" type="float"/><param name="Y" type="float"/><param name="Z" type="float"/></accessor>
        </technique_common>
      </source>
      <vertices id="dark-vtx">
        <input semantic="POSITION" source="#dark-pos"/>
      </vertices>
      <triangles material="dark-sym" count="72">
        <input semantic="VERTEX" source="#dark-vtx" offset="0"/>
        <input semantic="NORMAL" source="#dark-nrm" offset="1"/>
        <p>0 0 2 0 1 0 0 1 3 1 2 1 4 2 5 2 6 2 4 3 6 3 7 3 0 4 1 4 5 4 0 5 5 5 4 5 1 6 2 6 6 6 1 7 6 7 5 7 2 8 3 8 7 8 2 9 7 9 6 9 3 10 0 10 4 10 3 11 4 11 7 11 8 12 10 12 9 12 8 13 11 13 10 13 12 14 13 14 14 14 12 15 14 15 15 15 8 16 9 16 13 16 8 17 13 17 12 17 9 18 10 18 14 18 9 19 14 19 13 19 10 20 11 20 15 20 10 21 15 21 14 21 11 22 8 22 12 22 11 23 12 23 15 23 16 24 18 24 17 24 16 25 19 25 18 25 20 26 21 26 22 26 20 27 22 27 23 27 16 28 17 28 21 28 16 29 21 29 20 29 17 30 18 30 22 30 17 31 22 31 21 31 18 32 19 32 23 32 18 33 23 33 22 33 19 34 16 34 20 34 19 35 20 35 23 35 24 36 26 36 25 36 24 37 27 37 26 37 28 38 29 38 30 38 28 39 30 39 31 39 24 40 25 40 29 40 24 41 29 41 28 41 25 42 26 42 30 42 25 43 30 43 29 43 26 44 27 44 31 44 26 45 31 45 30 45 27 46 24 46 28 46 27 47 28 47 31 47 32 48 34 48 33 48 32 49 35 49 34 49 36 50 37 50 38 50 36 51 38 51 39 51 32 52 33 52 37 52 32 53 37 53 36 53 33 54 34 54 38 54 33 55 38 55 37 55 34 56 35 56 39 56 34 57 39 57 38 57 35 58 32 58 36 58 35 59 36 59 39 59 40 60 42 60 41 60 40 61 43 61 42 61 44 62 45 62 46 62 44 63 46 63 47 63 40 64 41 64 45 64 40 65 45 65 44 65 41 66 42 66 46 66 41 67 46 67 45 67 42 68 43 68 47 68 42 69 47 69 46 69 43 70 40 70 44 70 43 71 44 71 47 71</p>
      </triangles>
      </mesh>
    </geometry>
    <geometry id="blue-geo" name="blue">
      <mesh>
      <source id="blue-pos">
        <float_array id="blue-pos-array" count="24">-0.347060 0.187500 2.040780 -0.345120 0.187500 2.040290 -0.345120 0.207500 2.040290 -0.347060 0.207500 2.040780 -0.214000 0.187500 2.574440 -0.212060 0.187500 2.573960 -0.212060 0.207500 2.573960 -0.214000 0.207500 2.574440</float_array>
        <technique_common>
          <accessor source="#blue-pos-array" count="8" stride="3"><param name="X" type="float"/><param name="Y" type="float"/><param name="Z" type="float"/></accessor>
        </technique_common>
      </source>
      <source id="blue-nrm">
        <float_array id="blue-nrm-array" count="36">-0.244887 0.000000 -0.969552 -0.244887 0.000000 -0.969552 0.240180 0.000000 0.970728 0.240180 -0.000000 0.970728 0.000000 -1.000000 0.000000 0.000000 -1.000000 0.000000 0.970295 0.000000 -0.241924 0.970295 0.000000 -0.241924 0.000000 1.000000 -0.000000 0.000000 1.000000 0.000000 -0.970294 0.000000 0.241928 -0.970294 0.000000 0.241928</float_array>
        <technique_common>
          <accessor source="#blue-nrm-array" count="12" stride="3"><param name="X" type="float"/><param name="Y" type="float"/><param name="Z" type="float"/></accessor>
        </technique_common>
      </source>
      <vertices id="blue-vtx">
        <input semantic="POSITION" source="#blue-pos"/>
      </vertices>
      <triangles material="blue-sym" count="12">
        <input semantic="VERTEX" source="#blue-vtx" offset="0"/>
        <input semantic="NORMAL" source="#blue-nrm" offset="1"/>
        <p>0 0 2 0 1 0 0 1 3 1 2 1 4 2 5 2 6 2 4 3 6 3 7 3 0 4 1 4 5 4 0 5 5 5 4 5 1 6 2 6 6 6 1 7 6 7 5 7 2 8 3 8 7 8 2 9 7 9 6 9 3 10 0 10 4 10 3 11 4 11 7 11</p>
      </triangles>
      </mesh>
    </geometry>
    <geometry id="yellow-geo" name="yellow">
      <mesh>
      <source id="yellow-pos">
        <float_array id="yellow-pos-array" count="24">-0.340040 0.190000 2.064790 -0.338100 0.190000 2.064310 -0.338100 0.205000 2.064310 -0.340040 0.205000 2.064790 -0.267470 0.190000 2.355880 -0.265520 0.190000 2.355400 -0.265520 0.205000 2.355400 -0.267470 0.205000 2.355880</float_array>
        <technique_common>
          <accessor source="#yellow-pos-array" count="8" stride="3"><param name="X" type="float"/><param name="Y" type="float"/><param name="Z" type="float"/></accessor>
        </technique_common>
      </source>
      <source id="yellow-nrm">
        <float_array id="yellow-nrm-array" count="36">-0.240180 0.000000 -0.970728 -0.240180 0.000000 -0.970728 0.239019 0.000000 0.971015 0.239019 -0.000000 0.971015 0.000000 -1.000000 0.000000 0.000000 -1.000000 0.000000 0.970293 0.000000 -0.241932 0.970293 0.000000 -0.241932 0.000000 1.000000 -0.000000 0.000000 1.000000 0.000000 -0.970301 0.000000 0.241900 -0.970301 0.000000 0.241900</float_array>
        <technique_common>
          <accessor source="#yellow-nrm-array" count="12" stride="3"><param name="X" type="float"/><param name="Y" type="float"/><param name="Z" type="float"/></accessor>
        </technique_common>
      </source>
      <vertices id="yellow-vtx">
        <input semantic="POSITION" source="#yellow-pos"/>
      </vertices>
      <triangles material="yellow-sym" count="12">
        <input semantic="VERTEX" source="#yellow-vtx" offset="0"/>
        <input semantic="NORMAL" source="#yellow-nrm" offset="1"/>
        <p>0 0 2 0 1 0 0 1 3 1 2 1 4 2 5 2 6 2 4 3 6 3 7 3 0 4 1 4 5 4 0 5 5 5 4 5 1 6 2 6 6 6 1 7 6 7 5 7 2 8 3 8 7 8 2 9 7 9 6 9 3 10 0 10 4 10 3 11 4 11 7 11</p>
      </triangles>
      </mesh>
    </geometry>
    <geometry id="alu_dark-geo" name="alu_dark">
      <mesh>
      <source id="alu_dark-pos">
        <float_array id="alu_dark-pos-array" count="48">-0.050000 -0.195000 3.517770 0.050000 -0.195000 3.517770 0.050000 -0.145000 3.517770 -0.050000 -0.145000 3.517770 -0.050000 -0.195000 3.577770 0.050000 -0.195000 3.577770 0.050000 -0.145000 3.577770 -0.050000 -0.145000 3.577770 -0.050000 0.145000 3.517770 0.050000 0.145000 3.517770 0.050000 0.195000 3.517770 -0.050000 0.195000 3.517770 -0.050000 0.145000 3.577770 0.050000 0.145000 3.577770 0.050000 0.195000 3.577770 -0.050000 0.195000 3.577770</float_array>
        <technique_common>
          <accessor source="#alu_dark-pos-array" count="16" stride="3"><param name="X" type="float"/><param name="Y" type="float"/><param name="Z" type="float"/></accessor>
        </technique_common>
      </source>
      <source id="alu_dark-nrm">
        <float_array id="alu_dark-nrm-array" count="72">0.000000 0.000000 -1.000000 0.000000 0.000000 -1.000000 0.000000 0.000000 1.000000 0.000000 0.000000 1.000000 0.000000 -1.000000 0.000000 0.000000 -1.000000 0.000000 1.000000 0.000000 0.000000 1.000000 0.000000 0.000000 0.000000 1.000000 0.000000 0.000000 1.000000 -0.000000 -1.000000 0.000000 0.000000 -1.000000 0.000000 0.000000 0.000000 0.000000 -1.000000 0.000000 0.000000 -1.000000 0.000000 0.000000 1.000000 0.000000 0.000000 1.000000 0.000000 -1.000000 0.000000 0.000000 -1.000000 0.000000 1.000000 0.000000 0.000000 1.000000 0.000000 0.000000 0.000000 1.000000 0.000000 0.000000 1.000000 -0.000000 -1.000000 0.000000 0.000000 -1.000000 0.000000 0.000000</float_array>
        <technique_common>
          <accessor source="#alu_dark-nrm-array" count="24" stride="3"><param name="X" type="float"/><param name="Y" type="float"/><param name="Z" type="float"/></accessor>
        </technique_common>
      </source>
      <vertices id="alu_dark-vtx">
        <input semantic="POSITION" source="#alu_dark-pos"/>
      </vertices>
      <triangles material="alu_dark-sym" count="24">
        <input semantic="VERTEX" source="#alu_dark-vtx" offset="0"/>
        <input semantic="NORMAL" source="#alu_dark-nrm" offset="1"/>
        <p>0 0 2 0 1 0 0 1 3 1 2 1 4 2 5 2 6 2 4 3 6 3 7 3 0 4 1 4 5 4 0 5 5 5 4 5 1 6 2 6 6 6 1 7 6 7 5 7 2 8 3 8 7 8 2 9 7 9 6 9 3 10 0 10 4 10 3 11 4 11 7 11 8 12 10 12 9 12 8 13 11 13 10 13 12 14 13 14 14 14 12 15 14 15 15 15 8 16 9 16 13 16 8 17 13 17 12 17 9 18 10 18 14 18 9 19 14 19 13 19 10 20 11 20 15 20 10 21 15 21 14 21 11 22 8 22 12 22 11 23 12 23 15 23</p>
      </triangles>
      </mesh>
    </geometry>
  </library_geometries>
  <library_visual_scenes>
    <visual_scene id="Scene" name="Scene">
        <node id="alu-node" name="alu" type="NODE">
          <instance_geometry url="#alu-geo">
            <bind_material><technique_common>
              <instance_material symbol="alu-sym" target="#alu-mat"/>
            </technique_common></bind_material>
          </instance_geometry>
        </node>
        <node id="dark-node" name="dark" type="NODE">
          <instance_geometry url="#dark-geo">
            <bind_material><technique_common>
              <instance_material symbol="dark-sym" target="#dark-mat"/>
            </technique_common></bind_material>
          </instance_geometry>
        </node>
        <node id="blue-node" name="blue" type="NODE">
          <instance_geometry url="#blue-geo">
            <bind_material><technique_common>
              <instance_material symbol="blue-sym" target="#blue-mat"/>
            </technique_common></bind_material>
          </instance_geometry>
        </node>
        <node id="yellow-node" name="yellow" type="NODE">
          <instance_geometry url="#yellow-geo">
            <bind_material><technique_common>
              <instance_material symbol="yellow-sym" target="#yellow-mat"/>
            </technique_common></bind_material>
          </instance_geometry>
        </node>
        <node id="alu_dark-node" name="alu_dark" type="NODE">
          <instance_geometry url="#alu_dark-geo">
            <bind_material><technique_common>
              <instance_material symbol="alu_dark-sym" target="#alu_dark-mat"/>
            </technique_common></bind_material>
          </instance_geometry>
        </node>
    </visual_scene>
  </library_visual_scenes>
  <scene><instance_visual_scene url="#Scene"/></scene>
</COLLADA>
