mtllib krause_corda_4200.mtl
v -0.84500 -0.67500 0.00000
v -0.84500 -0.64375 0.00837
v -0.84500 -0.62087 0.03125
v -0.84500 -0.61250 0.06250
v -0.84500 -0.62087 0.09375
v -0.84500 -0.64375 0.11663
v -0.84500 -0.67500 0.12500
v -0.84500 -0.70625 0.11663
v -0.84500 -0.72913 0.09375
v -0.84500 -0.73750 0.06250
v -0.84500 -0.72913 0.03125
v -0.84500 -0.70625 0.00837
v -0.80500 -0.67500 0.00000
v -0.80500 -0.64375 0.00837
v -0.80500 -0.62087 0.03125
v -0.80500 -0.61250 0.06250
v -0.80500 -0.62087 0.09375
v -0.80500 -0.64375 0.11663
v -0.80500 -0.67500 0.12500
v -0.80500 -0.70625 0.11663
v -0.80500 -0.72913 0.09375
v -0.80500 -0.73750 0.06250
v -0.80500 -0.72913 0.03125
v -0.80500 -0.70625 0.00837
v -0.84500 -0.67500 0.06250
v -0.80500 -0.67500 0.06250
v -0.80250 -0.67500 0.06250
v -0.80551 -0.66375 0.06250
v -0.81375 -0.65551 0.06250
v -0.82500 -0.65250 0.06250
v -0.83625 -0.65551 0.06250
v -0.84449 -0.66375 0.06250
v -0.84750 -0.67500 0.06250
v -0.84449 -0.68625 0.06250
v -0.83625 -0.69449 0.06250
v -0.82500 -0.69750 0.06250
v -0.81375 -0.69449 0.06250
v -0.80551 -0.68625 0.06250
v -0.80250 -0.67500 0.17500
v -0.80551 -0.66375 0.17500
v -0.81375 -0.65551 0.17500
v -0.82500 -0.65250 0.17500
v -0.83625 -0.65551 0.17500
v -0.84449 -0.66375 0.17500
v -0.84750 -0.67500 0.17500
v -0.84449 -0.68625 0.17500
v -0.83625 -0.69449 0.17500
v -0.82500 -0.69750 0.17500
v -0.81375 -0.69449 0.17500
v -0.80551 -0.68625 0.17500
v -0.82500 -0.67500 0.06250
v -0.82500 -0.67500 0.17500
v -0.74874 -0.29369 0.28606
v -0.73910 -0.29649 0.28860
v -0.73238 -0.30024 0.29553
v -0.73039 -0.30392 0.30500
v -0.73365 -0.30655 0.31447
v -0.74129 -0.30743 0.32140
v -0.75126 -0.30631 0.32394
v -0.76090 -0.30351 0.32140
v -0.76762 -0.29976 0.31447
v -0.76961 -0.29608 0.30500
v -0.76635 -0.29345 0.29553
v -0.75871 -0.29257 0.28860
v -0.82374 -0.66869 0.15606
v -0.81410 -0.67149 0.15860
v -0.80738 -0.67524 0.16553
v -0.80539 -0.67892 0.17500
v -0.80865 -0.68155 0.18447
v -0.81629 -0.68243 0.19140
v -0.82626 -0.68131 0.19394
v -0.83590 -0.67851 0.19140
v -0.84262 -0.67476 0.18447
v -0.84461 -0.67108 0.17500
v -0.84135 -0.66845 0.16553
v -0.83371 -0.66757 0.15860
v -0.75000 -0.30000 0.30500
v -0.82500 -0.67500 0.17500
v -0.84500 0.67500 0.00000
v -0.84500 0.70625 0.00837
v -0.84500 0.72913 0.03125
v -0.84500 0.73750 0.06250
v -0.84500 0.72913 0.09375
v -0.84500 0.70625 0.11663
v -0.84500 0.67500 0.12500
v -0.84500 0.64375 0.11663
v -0.84500 0.62087 0.09375
v -0.84500 0.61250 0.06250
v -0.84500 0.62087 0.03125
v -0.84500 0.64375 0.00837
v -0.80500 0.67500 0.00000
v -0.80500 0.70625 0.00837
v -0.80500 0.72913 0.03125
v -0.80500 0.73750 0.06250
v -0.80500 0.72913 0.09375
v -0.80500 0.70625 0.11663
v -0.80500 0.67500 0.12500
v -0.80500 0.64375 0.11663
v -0.80500 0.62087 0.09375
v -0.80500 0.61250 0.06250
v -0.80500 0.62087 0.03125
v -0.80500 0.64375 0.00837
v -0.84500 0.67500 0.06250
v -0.80500 0.67500 0.06250
v -0.80250 0.67500 0.06250
v -0.80551 0.68625 0.06250
v -0.81375 0.69449 0.06250
v -0.82500 0.69750 0.06250
v -0.83625 0.69449 0.06250
v -0.84449 0.68625 0.06250
v -0.84750 0.67500 0.06250
v -0.84449 0.66375 0.06250
v -0.83625 0.65551 0.06250
v -0.82500 0.65250 0.06250
v -0.81375 0.65551 0.06250
v -0.80551 0.66375 0.06250
v -0.80250 0.67500 0.17500
v -0.80551 0.68625 0.17500
v -0.81375 0.69449 0.17500
v -0.82500 0.69750 0.17500
v -0.83625 0.69449 0.17500
v -0.84449 0.68625 0.17500
v -0.84750 0.67500 0.17500
v -0.84449 0.66375 0.17500
v -0.83625 0.65551 0.17500
v -0.82500 0.65250 0.17500
v -0.81375 0.65551 0.17500
v -0.80551 0.66375 0.17500
v -0.82500 0.67500 0.06250
v -0.82500 0.67500 0.17500
v -0.74874 0.29369 0.28606
v -0.75871 0.29257 0.28860
v -0.76635 0.29345 0.29553
v -0.76961 0.29608 0.30500
v -0.76762 0.29976 0.31447
v -0.76090 0.30351 0.32140
v -0.75126 0.30631 0.32394
v -0.74129 0.30743 0.32140
v -0.73365 0.30655 0.31447
v -0.73039 0.30392 0.30500
v -0.73238 0.30024 0.29553
v -0.73910 0.29649 0.28860
v -0.82374 0.66869 0.15606
v -0.83371 0.66757 0.15860
v -0.84135 0.66845 0.16553
v -0.84461 0.67108 0.17500
v -0.84262 0.67476 0.18447
v -0.83590 0.67851 0.19140
v -0.82626 0.68131 0.19394
v -0.81629 0.68243 0.19140
v -0.80865 0.68155 0.18447
v -0.80539 0.67892 0.17500
v -0.80738 0.67524 0.16553
v -0.81410 0.67149 0.15860
v -0.75000 0.30000 0.30500
v -0.82500 0.67500 0.17500
v 0.80500 -0.67500 0.00000
v 0.80500 -0.64375 0.00837
v 0.80500 -0.62087 0.03125
v 0.80500 -0.61250 0.06250
v 0.80500 -0.62087 0.09375
v 0.80500 -0.64375 0.11663
v 0.80500 -0.67500 0.12500
v 0.80500 -0.70625 0.11663
v 0.80500 -0.72913 0.09375
v 0.80500 -0.73750 0.06250
v 0.80500 -0.72913 0.03125
v 0.80500 -0.70625 0.00837
v 0.84500 -0.67500 0.00000
v 0.84500 -0.64375 0.00837
v 0.84500 -0.62087 0.03125
v 0.84500 -0.61250 0.06250
v 0.84500 -0.62087 0.09375
v 0.84500 -0.64375 0.11663
v 0.84500 -0.67500 0.12500
v 0.84500 -0.70625 0.11663
v 0.84500 -0.72913 0.09375
v 0.84500 -0.73750 0.06250
v 0.84500 -0.72913 0.03125
v 0.84500 -0.70625 0.00837
v 0.80500 -0.67500 0.06250
v 0.84500 -0.67500 0.06250
v 0.84750 -0.67500 0.06250
v 0.84449 -0.66375 0.06250
v 0.83625 -0.65551 0.06250
v 0.82500 -0.65250 0.06250
v 0.81375 -0.65551 0.06250
v 0.80551 -0.66375 0.06250
v 0.80250 -0.67500 0.06250
v 0.80551 -0.68625 0.06250
v 0.81375 -0.69449 0.06250
v 0.82500 -0.69750 0.06250
v 0.83625 -0.69449 0.06250
v 0.84449 -0.68625 0.06250
v 0.84750 -0.67500 0.17500
v 0.84449 -0.66375 0.17500
v 0.83625 -0.65551 0.17500
v 0.82500 -0.65250 0.17500
v 0.81375 -0.65551 0.17500
v 0.80551 -0.66375 0.17500
v 0.80250 -0.67500 0.17500
v 0.80551 -0.68625 0.17500
v 0.81375 -0.69449 0.17500
v 0.82500 -0.69750 0.17500
v 0.83625 -0.69449 0.17500
v 0.84449 -0.68625 0.17500
v 0.82500 -0.67500 0.06250
v 0.82500 -0.67500 0.17500
v 0.74874 -0.29369 0.28606
v 0.75871 -0.29257 0.28860
v 0.76635 -0.29345 0.29553
v 0.76961 -0.29608 0.30500
v 0.76762 -0.29976 0.31447
v 0.76090 -0.30351 0.32140
v 0.75126 -0.30631 0.32394
v 0.74129 -0.30743 0.32140
v 0.73365 -0.30655 0.31447
v 0.73039 -0.30392 0.30500
v 0.73238 -0.30024 0.29553
v 0.73910 -0.29649 0.28860
v 0.82374 -0.66869 0.15606
v 0.83371 -0.66757 0.15860
v 0.84135 -0.66845 0.16553
v 0.84461 -0.67108 0.17500
v 0.84262 -0.67476 0.18447
v 0.83590 -0.67851 0.19140
v 0.82626 -0.68131 0.19394
v 0.81629 -0.68243 0.19140
v 0.80865 -0.68155 0.18447
v 0.80539 -0.67892 0.17500
v 0.80738 -0.67524 0.16553
v 0.81410 -0.67149 0.15860
v 0.75000 -0.30000 0.30500
v 0.82500 -0.67500 0.17500
v 0.80500 0.67500 0.00000
v 0.80500 0.70625 0.00837
v 0.80500 0.72913 0.03125
v 0.80500 0.73750 0.06250
v 0.80500 0.72913 0.09375
v 0.80500 0.70625 0.11663
v 0.80500 0.67500 0.12500
v 0.80500 0.64375 0.11663
v 0.80500 0.62087 0.09375
v 0.80500 0.61250 0.06250
v 0.80500 0.62087 0.03125
v 0.80500 0.64375 0.00837
v 0.84500 0.67500 0.00000
v 0.84500 0.70625 0.00837
v 0.84500 0.72913 0.03125
v 0.84500 0.73750 0.06250
v 0.84500 0.72913 0.09375
v 0.84500 0.70625 0.11663
v 0.84500 0.67500 0.12500
v 0.84500 0.64375 0.11663
v 0.84500 0.62087 0.09375
v 0.84500 0.61250 0.06250
v 0.84500 0.62087 0.03125
v 0.84500 0.64375 0.00837
v 0.80500 0.67500 0.06250
v 0.84500 0.67500 0.06250
v 0.84750 0.67500 0.06250
v 0.84449 0.68625 0.06250
v 0.83625 0.69449 0.06250
v 0.82500 0.69750 0.06250
v 0.81375 0.69449 0.06250
v 0.80551 0.68625 0.06250
v 0.80250 0.67500 0.06250
v 0.80551 0.66375 0.06250
v 0.81375 0.65551 0.06250
v 0.82500 0.65250 0.06250
v 0.83625 0.65551 0.06250
v 0.84449 0.66375 0.06250
v 0.84750 0.67500 0.17500
v 0.84449 0.68625 0.17500
v 0.83625 0.69449 0.17500
v 0.82500 0.69750 0.17500
v 0.81375 0.69449 0.17500
v 0.80551 0.68625 0.17500
v 0.80250 0.67500 0.17500
v 0.80551 0.66375 0.17500
v 0.81375 0.65551 0.17500
v 0.82500 0.65250 0.17500
v 0.83625 0.65551 0.17500
v 0.84449 0.66375 0.17500
v 0.82500 0.67500 0.06250
v 0.82500 0.67500 0.17500
v 0.74874 0.29369 0.28606
v 0.73910 0.29649 0.28860
v 0.73238 0.30024 0.29553
v 0.73039 0.30392 0.30500
v 0.73365 0.30655 0.31447
v 0.74129 0.30743 0.32140
v 0.75126 0.30631 0.32394
v 0.76090 0.30351 0.32140
v 0.76762 0.29976 0.31447
v 0.76961 0.29608 0.30500
v 0.76635 0.29345 0.29553
v 0.75871 0.29257 0.28860
v 0.82374 0.66869 0.15606
v 0.81410 0.67149 0.15860
v 0.80738 0.67524 0.16553
v 0.80539 0.67892 0.17500
v 0.80865 0.68155 0.18447
v 0.81629 0.68243 0.19140
v 0.82626 0.68131 0.19394
v 0.83590 0.67851 0.19140
v 0.84262 0.67476 0.18447
v 0.84461 0.67108 0.17500
v 0.84135 0.66845 0.16553
v 0.83371 0.66757 0.15860
v 0.75000 0.30000 0.30500
v 0.82500 0.67500 0.17500
v -0.72500 -0.30000 0.14500
v -0.72835 -0.28750 0.14500
v -0.73750 -0.27835 0.14500
v -0.75000 -0.27500 0.14500
v -0.76250 -0.27835 0.14500
v -0.77165 -0.28750 0.14500
v -0.77500 -0.30000 0.14500
v -0.77165 -0.31250 0.14500
v -0.76250 -0.32165 0.14500
v -0.75000 -0.32500 0.14500
v -0.73750 -0.32165 0.14500
v -0.72835 -0.31250 0.14500
v -0.72500 -0.30000 4.20000
v -0.72835 -0.28750 4.20000
v -0.73750 -0.27835 4.20000
v -0.75000 -0.27500 4.20000
v -0.76250 -0.27835 4.20000
v -0.77165 -0.28750 4.20000
v -0.77500 -0.30000 4.20000
v -0.77165 -0.31250 4.20000
v -0.76250 -0.32165 4.20000
v -0.75000 -0.32500 4.20000
v -0.73750 -0.32165 4.20000
v -0.72835 -0.31250 4.20000
v -0.75000 -0.30000 0.14500
v -0.75000 -0.30000 4.20000
v -0.72500 0.30000 0.14500
v -0.72835 0.31250 0.14500
v -0.73750 0.32165 0.14500
v -0.75000 0.32500 0.14500
v -0.76250 0.32165 0.14500
v -0.77165 0.31250 0.14500
v -0.77500 0.30000 0.14500
v -0.77165 0.28750 0.14500
v -0.76250 0.27835 0.14500
v -0.75000 0.27500 0.14500
v -0.73750 0.27835 0.14500
v -0.72835 0.28750 0.14500
v -0.72500 0.30000 4.20000
v -0.72835 0.31250 4.20000
v -0.73750 0.32165 4.20000
v -0.75000 0.32500 4.20000
v -0.76250 0.32165 4.20000
v -0.77165 0.31250 4.20000
v -0.77500 0.30000 4.20000
v -0.77165 0.28750 4.20000
v -0.76250 0.27835 4.20000
v -0.75000 0.27500 4.20000
v -0.73750 0.27835 4.20000
v -0.72835 0.28750 4.20000
v -0.75000 0.30000 0.14500
v -0.75000 0.30000 4.20000
v 0.77500 -0.30000 0.14500
v 0.77165 -0.28750 0.14500
v 0.76250 -0.27835 0.14500
v 0.75000 -0.27500 0.14500
v 0.73750 -0.27835 0.14500
v 0.72835 -0.28750 0.14500
v 0.72500 -0.30000 0.14500
v 0.72835 -0.31250 0.14500
v 0.73750 -0.32165 0.14500
v 0.75000 -0.32500 0.14500
v 0.76250 -0.32165 0.14500
v 0.77165 -0.31250 0.14500
v 0.77500 -0.30000 4.20000
v 0.77165 -0.28750 4.20000
v 0.76250 -0.27835 4.20000
v 0.75000 -0.27500 4.20000
v 0.73750 -0.27835 4.20000
v 0.72835 -0.28750 4.20000
v 0.72500 -0.30000 4.20000
v 0.72835 -0.31250 4.20000
v 0.73750 -0.32165 4.20000
v 0.75000 -0.32500 4.20000
v 0.76250 -0.32165 4.20000
v 0.77165 -0.31250 4.20000
v 0.75000 -0.30000 0.14500
v 0.75000 -0.30000 4.20000
v 0.77500 0.30000 0.14500
v 0.77165 0.31250 0.14500
v 0.76250 0.32165 0.14500
v 0.75000 0.32500 0.14500
v 0.73750 0.32165 0.14500
v 0.72835 0.31250 0.14500
v 0.72500 0.30000 0.14500
v 0.72835 0.28750 0.14500
v 0.73750 0.27835 0.14500
v 0.75000 0.27500 0.14500
v 0.76250 0.27835 0.14500
v 0.77165 0.28750 0.14500
v 0.77500 0.30000 4.20000
v 0.77165 0.31250 4.20000
v 0.76250 0.32165 4.20000
v 0.75000 0.32500 4.20000
v 0.73750 0.32165 4.20000
v 0.72835 0.31250 4.20000
v 0.72500 0.30000 4.20000
v 0.72835 0.28750 4.20000
v 0.73750 0.27835 4.20000
v 0.75000 0.27500 4.20000
v 0.76250 0.27835 4.20000
v 0.77165 0.28750 4.20000
v 0.75000 0.30000 0.14500
v 0.75000 0.30000 4.20000
v -0.75000 -0.30000 0.38000
v -0.75750 -0.30000 0.38201
v -0.76299 -0.30000 0.38750
v -0.76500 -0.30000 0.39500
v -0.76299 -0.30000 0.40250
v -0.75750 -0.30000 0.40799
v -0.75000 -0.30000 0.41000
v -0.74250 -0.30000 0.40799
v -0.73701 -0.30000 0.40250
v -0.73500 -0.30000 0.39500
v -0.73701 -0.30000 0.38750
v -0.74250 -0.30000 0.38201
v -0.75000 0.30000 0.38000
v -0.75750 0.30000 0.38201
v -0.76299 0.30000 0.38750
v -0.76500 0.30000 0.39500
v -0.76299 0.30000 0.40250
v -0.75750 0.30000 0.40799
v -0.75000 0.30000 0.41000
v -0.74250 0.30000 0.40799
v -0.73701 0.30000 0.40250
v -0.73500 0.30000 0.39500
v -0.73701 0.30000 0.38750
v -0.74250 0.30000 0.38201
v -0.75000 -0.30000 0.39500
v -0.75000 0.30000 0.39500
v 0.75000 -0.30000 0.38000
v 0.74250 -0.30000 0.38201
v 0.73701 -0.30000 0.38750
v 0.73500 -0.30000 0.39500
v 0.73701 -0.30000 0.40250
v 0.74250 -0.30000 0.40799
v 0.75000 -0.30000 0.41000
v 0.75750 -0.30000 0.40799
v 0.76299 -0.30000 0.40250
v 0.76500 -0.30000 0.39500
v 0.76299 -0.30000 0.38750
v 0.75750 -0.30000 0.38201
v 0.75000 0.30000 0.38000
v 0.74250 0.30000 0.38201
v 0.73701 0.30000 0.38750
v 0.73500 0.30000 0.39500
v 0.73701 0.30000 0.40250
v 0.74250 0.30000 0.40799
v 0.75000 0.30000 0.41000
v 0.75750 0.30000 0.40799
v 0.76299 0.30000 0.40250
v 0.76500 0.30000 0.39500
v 0.76299 0.30000 0.38750
v 0.75750 0.30000 0.38201
v 0.75000 -0.30000 0.39500
v 0.75000 0.30000 0.39500
v -0.75000 -0.30000 0.66000
v -0.75750 -0.30000 0.66201
v -0.76299 -0.30000 0.66750
v -0.76500 -0.30000 0.67500
v -0.76299 -0.30000 0.68250
v -0.75750 -0.30000 0.68799
v -0.75000 -0.30000 0.69000
v -0.74250 -0.30000 0.68799
v -0.73701 -0.30000 0.68250
v -0.73500 -0.30000 0.67500
v -0.73701 -0.30000 0.66750
v -0.74250 -0.30000 0.66201
v -0.75000 0.30000 0.66000
v -0.75750 0.30000 0.66201
v -0.76299 0.30000 0.66750
v -0.76500 0.30000 0.67500
v -0.76299 0.30000 0.68250
v -0.75750 0.30000 0.68799
v -0.75000 0.30000 0.69000
v -0.74250 0.30000 0.68799
v -0.73701 0.30000 0.68250
v -0.73500 0.30000 0.67500
v -0.73701 0.30000 0.66750
v -0.74250 0.30000 0.66201
v -0.75000 -0.30000 0.67500
v -0.75000 0.30000 0.67500
v 0.75000 -0.30000 0.66000
v 0.74250 -0.30000 0.66201
v 0.73701 -0.30000 0.66750
v 0.73500 -0.30000 0.67500
v 0.73701 -0.30000 0.68250
v 0.74250 -0.30000 0.68799
v 0.75000 -0.30000 0.69000
v 0.75750 -0.30000 0.68799
v 0.76299 -0.30000 0.68250
v 0.76500 -0.30000 0.67500
v 0.76299 -0.30000 0.66750
v 0.75750 -0.30000 0.66201
v 0.75000 0.30000 0.66000
v 0.74250 0.30000 0.66201
v 0.73701 0.30000 0.66750
v 0.73500 0.30000 0.67500
v 0.73701 0.30000 0.68250
v 0.74250 0.30000 0.68799
v 0.75000 0.30000 0.69000
v 0.75750 0.30000 0.68799
v 0.76299 0.30000 0.68250
v 0.76500 0.30000 0.67500
v 0.76299 0.30000 0.66750
v 0.75750 0.30000 0.66201
v 0.75000 -0.30000 0.67500
v 0.75000 0.30000 0.67500
v -0.75000 -0.30000 0.94000
v -0.75750 -0.30000 0.94201
v -0.76299 -0.30000 0.94750
v -0.76500 -0.30000 0.95500
v -0.76299 -0.30000 0.96250
v -0.75750 -0.30000 0.96799
v -0.75000 -0.30000 0.97000
v -0.74250 -0.30000 0.96799
v -0.73701 -0.30000 0.96250
v -0.73500 -0.30000 0.95500
v -0.73701 -0.30000 0.94750
v -0.74250 -0.30000 0.94201
v -0.75000 0.30000 0.94000
v -0.75750 0.30000 0.94201
v -0.76299 0.30000 0.94750
v -0.76500 0.30000 0.95500
v -0.76299 0.30000 0.96250
v -0.75750 0.30000 0.96799
v -0.75000 0.30000 0.97000
v -0.74250 0.30000 0.96799
v -0.73701 0.30000 0.96250
v -0.73500 0.30000 0.95500
v -0.73701 0.30000 0.94750
v -0.74250 0.30000 0.94201
v -0.75000 -0.30000 0.95500
v -0.75000 0.30000 0.95500
v 0.75000 -0.30000 0.94000
v 0.74250 -0.30000 0.94201
v 0.73701 -0.30000 0.94750
v 0.73500 -0.30000 0.95500
v 0.73701 -0.30000 0.96250
v 0.74250 -0.30000 0.96799
v 0.75000 -0.30000 0.97000
v 0.75750 -0.30000 0.96799
v 0.76299 -0.30000 0.96250
v 0.76500 -0.30000 0.95500
v 0.76299 -0.30000 0.94750
v 0.75750 -0.30000 0.94201
v 0.75000 0.30000 0.94000
v 0.74250 0.30000 0.94201
v 0.73701 0.30000 0.94750
v 0.73500 0.30000 0.95500
v 0.73701 0.30000 0.96250
v 0.74250 0.30000 0.96799
v 0.75000 0.30000 0.97000
v 0.75750 0.30000 0.96799
v 0.76299 0.30000 0.96250
v 0.76500 0.30000 0.95500
v 0.76299 0.30000 0.94750
v 0.75750 0.30000 0.94201
v 0.75000 -0.30000 0.95500
v 0.75000 0.30000 0.95500
v -0.75000 -0.30000 1.22000
v -0.75750 -0.30000 1.22201
v -0.76299 -0.30000 1.22750
v -0.76500 -0.30000 1.23500
v -0.76299 -0.30000 1.24250
v -0.75750 -0.30000 1.24799
v -0.75000 -0.30000 1.25000
v -0.74250 -0.30000 1.24799
v -0.73701 -0.30000 1.24250
v -0.73500 -0.30000 1.23500
v -0.73701 -0.30000 1.22750
v -0.74250 -0.30000 1.22201
v -0.75000 0.30000 1.22000
v -0.75750 0.30000 1.22201
v -0.76299 0.30000 1.22750
v -0.76500 0.30000 1.23500
v -0.76299 0.30000 1.24250
v -0.75750 0.30000 1.24799
v -0.75000 0.30000 1.25000
v -0.74250 0.30000 1.24799
v -0.73701 0.30000 1.24250
v -0.73500 0.30000 1.23500
v -0.73701 0.30000 1.22750
v -0.74250 0.30000 1.22201
v -0.75000 -0.30000 1.23500
v -0.75000 0.30000 1.23500
v 0.75000 -0.30000 1.22000
v 0.74250 -0.30000 1.22201
v 0.73701 -0.30000 1.22750
v 0.73500 -0.30000 1.23500
v 0.73701 -0.30000 1.24250
v 0.74250 -0.30000 1.24799
v 0.75000 -0.30000 1.25000
v 0.75750 -0.30000 1.24799
v 0.76299 -0.30000 1.24250
v 0.76500 -0.30000 1.23500
v 0.76299 -0.30000 1.22750
v 0.75750 -0.30000 1.22201
v 0.75000 0.30000 1.22000
v 0.74250 0.30000 1.22201
v 0.73701 0.30000 1.22750
v 0.73500 0.30000 1.23500
v 0.73701 0.30000 1.24250
v 0.74250 0.30000 1.24799
v 0.75000 0.30000 1.25000
v 0.75750 0.30000 1.24799
v 0.76299 0.30000 1.24250
v 0.76500 0.30000 1.23500
v 0.76299 0.30000 1.22750
v 0.75750 0.30000 1.22201
v 0.75000 -0.30000 1.23500
v 0.75000 0.30000 1.23500
v -0.75000 -0.30000 1.50000
v -0.75750 -0.30000 1.50201
v -0.76299 -0.30000 1.50750
v -0.76500 -0.30000 1.51500
v -0.76299 -0.30000 1.52250
v -0.75750 -0.30000 1.52799
v -0.75000 -0.30000 1.53000
v -0.74250 -0.30000 1.52799
v -0.73701 -0.30000 1.52250
v -0.73500 -0.30000 1.51500
v -0.73701 -0.30000 1.50750
v -0.74250 -0.30000 1.50201
v -0.75000 0.30000 1.50000
v -0.75750 0.30000 1.50201
v -0.76299 0.30000 1.50750
v -0.76500 0.30000 1.51500
v -0.76299 0.30000 1.52250
v -0.75750 0.30000 1.52799
v -0.75000 0.30000 1.53000
v -0.74250 0.30000 1.52799
v -0.73701 0.30000 1.52250
v -0.73500 0.30000 1.51500
v -0.73701 0.30000 1.50750
v -0.74250 0.30000 1.50201
v -0.75000 -0.30000 1.51500
v -0.75000 0.30000 1.51500
v 0.75000 -0.30000 1.50000
v 0.74250 -0.30000 1.50201
v 0.73701 -0.30000 1.50750
v 0.73500 -0.30000 1.51500
v 0.73701 -0.30000 1.52250
v 0.74250 -0.30000 1.52799
v 0.75000 -0.30000 1.53000
v 0.75750 -0.30000 1.52799
v 0.76299 -0.30000 1.52250
v 0.76500 -0.30000 1.51500
v 0.76299 -0.30000 1.50750
v 0.75750 -0.30000 1.50201
v 0.75000 0.30000 1.50000
v 0.74250 0.30000 1.50201
v 0.73701 0.30000 1.50750
v 0.73500 0.30000 1.51500
v 0.73701 0.30000 1.52250
v 0.74250 0.30000 1.52799
v 0.75000 0.30000 1.53000
v 0.75750 0.30000 1.52799
v 0.76299 0.30000 1.52250
v 0.76500 0.30000 1.51500
v 0.76299 0.30000 1.50750
v 0.75750 0.30000 1.50201
v 0.75000 -0.30000 1.51500
v 0.75000 0.30000 1.51500
v -0.75000 -0.30000 1.78000
v -0.75750 -0.30000 1.78201
v -0.76299 -0.30000 1.78750
v -0.76500 -0.30000 1.79500
v -0.76299 -0.30000 1.80250
v -0.75750 -0.30000 1.80799
v -0.75000 -0.30000 1.81000
v -0.74250 -0.30000 1.80799
v -0.73701 -0.30000 1.80250
v -0.73500 -0.30000 1.79500
v -0.73701 -0.30000 1.78750
v -0.74250 -0.30000 1.78201
v -0.75000 0.30000 1.78000
v -0.75750 0.30000 1.78201
v -0.76299 0.30000 1.78750
v -0.76500 0.30000 1.79500
v -0.76299 0.30000 1.80250
v -0.75750 0.30000 1.80799
v -0.75000 0.30000 1.81000
v -0.74250 0.30000 1.80799
v -0.73701 0.30000 1.80250
v -0.73500 0.30000 1.79500
v -0.73701 0.30000 1.78750
v -0.74250 0.30000 1.78201
v -0.75000 -0.30000 1.79500
v -0.75000 0.30000 1.79500
v 0.75000 -0.30000 1.78000
v 0.74250 -0.30000 1.78201
v 0.73701 -0.30000 1.78750
v 0.73500 -0.30000 1.79500
v 0.73701 -0.30000 1.80250
v 0.74250 -0.30000 1.80799
v 0.75000 -0.30000 1.81000
v 0.75750 -0.30000 1.80799
v 0.76299 -0.30000 1.80250
v 0.76500 -0.30000 1.79500
v 0.76299 -0.30000 1.78750
v 0.75750 -0.30000 1.78201
v 0.75000 0.30000 1.78000
v 0.74250 0.30000 1.78201
v 0.73701 0.30000 1.78750
v 0.73500 0.30000 1.79500
v 0.73701 0.30000 1.80250
v 0.74250 0.30000 1.80799
v 0.75000 0.30000 1.81000
v 0.75750 0.30000 1.80799
v 0.76299 0.30000 1.80250
v 0.76500 0.30000 1.79500
v 0.76299 0.30000 1.78750
v 0.75750 0.30000 1.78201
v 0.75000 -0.30000 1.79500
v 0.75000 0.30000 1.79500
v -0.75000 -0.30000 2.06000
v -0.75750 -0.30000 2.06201
v -0.76299 -0.30000 2.06750
v -0.76500 -0.30000 2.07500
v -0.76299 -0.30000 2.08250
v -0.75750 -0.30000 2.08799
v -0.75000 -0.30000 2.09000
v -0.74250 -0.30000 2.08799
v -0.73701 -0.30000 2.08250
v -0.73500 -0.30000 2.07500
v -0.73701 -0.30000 2.06750
v -0.74250 -0.30000 2.06201
v -0.75000 0.30000 2.06000
v -0.75750 0.30000 2.06201
v -0.76299 0.30000 2.06750
v -0.76500 0.30000 2.07500
v -0.76299 0.30000 2.08250
v -0.75750 0.30000 2.08799
v -0.75000 0.30000 2.09000
v -0.74250 0.30000 2.08799
v -0.73701 0.30000 2.08250
v -0.73500 0.30000 2.07500
v -0.73701 0.30000 2.06750
v -0.74250 0.30000 2.06201
v -0.75000 -0.30000 2.07500
v -0.75000 0.30000 2.07500
v 0.75000 -0.30000 2.06000
v 0.74250 -0.30000 2.06201
v 0.73701 -0.30000 2.06750
v 0.73500 -0.30000 2.07500
v 0.73701 -0.30000 2.08250
v 0.74250 -0.30000 2.08799
v 0.75000 -0.30000 2.09000
v 0.75750 -0.30000 2.08799
v 0.76299 -0.30000 2.08250
v 0.76500 -0.30000 2.07500
v 0.76299 -0.30000 2.06750
v 0.75750 -0.30000 2.06201
v 0.75000 0.30000 2.06000
v 0.74250 0.30000 2.06201
v 0.73701 0.30000 2.06750
v 0.73500 0.30000 2.07500
v 0.73701 0.30000 2.08250
v 0.74250 0.30000 2.08799
v 0.75000 0.30000 2.09000
v 0.75750 0.30000 2.08799
v 0.76299 0.30000 2.08250
v 0.76500 0.30000 2.07500
v 0.76299 0.30000 2.06750
v 0.75750 0.30000 2.06201
v 0.75000 -0.30000 2.07500
v 0.75000 0.30000 2.07500
v -0.75000 -0.30000 2.34000
v -0.75750 -0.30000 2.34201
v -0.76299 -0.30000 2.34750
v -0.76500 -0.30000 2.35500
v -0.76299 -0.30000 2.36250
v -0.75750 -0.30000 2.36799
v -0.75000 -0.30000 2.37000
v -0.74250 -0.30000 2.36799
v -0.73701 -0.30000 2.36250
v -0.73500 -0.30000 2.35500
v -0.73701 -0.30000 2.34750
v -0.74250 -0.30000 2.34201
v -0.75000 0.30000 2.34000
v -0.75750 0.30000 2.34201
v -0.76299 0.30000 2.34750
v -0.76500 0.30000 2.35500
v -0.76299 0.30000 2.36250
v -0.75750 0.30000 2.36799
v -0.75000 0.30000 2.37000
v -0.74250 0.30000 2.36799
v -0.73701 0.30000 2.36250
v -0.73500 0.30000 2.35500
v -0.73701 0.30000 2.34750
v -0.74250 0.30000 2.34201
v -0.75000 -0.30000 2.35500
v -0.75000 0.30000 2.35500
v 0.75000 -0.30000 2.34000
v 0.74250 -0.30000 2.34201
v 0.73701 -0.30000 2.34750
v 0.73500 -0.30000 2.35500
v 0.73701 -0.30000 2.36250
v 0.74250 -0.30000 2.36799
v 0.75000 -0.30000 2.37000
v 0.75750 -0.30000 2.36799
v 0.76299 -0.30000 2.36250
v 0.76500 -0.30000 2.35500
v 0.76299 -0.30000 2.34750
v 0.75750 -0.30000 2.34201
v 0.75000 0.30000 2.34000
v 0.74250 0.30000 2.34201
v 0.73701 0.30000 2.34750
v 0.73500 0.30000 2.35500
v 0.73701 0.30000 2.36250
v 0.74250 0.30000 2.36799
v 0.75000 0.30000 2.37000
v 0.75750 0.30000 2.36799
v 0.76299 0.30000 2.36250
v 0.76500 0.30000 2.35500
v 0.76299 0.30000 2.34750
v 0.75750 0.30000 2.34201
v 0.75000 -0.30000 2.35500
v 0.75000 0.30000 2.35500
v -0.75000 -0.30000 2.62000
v -0.75750 -0.30000 2.62201
v -0.76299 -0.30000 2.62750
v -0.76500 -0.30000 2.63500
v -0.76299 -0.30000 2.64250
v -0.75750 -0.30000 2.64799
v -0.75000 -0.30000 2.65000
v -0.74250 -0.30000 2.64799
v -0.73701 -0.30000 2.64250
v -0.73500 -0.30000 2.63500
v -0.73701 -0.30000 2.62750
v -0.74250 -0.30000 2.62201
v -0.75000 0.30000 2.62000
v -0.75750 0.30000 2.62201
v -0.76299 0.30000 2.62750
v -0.76500 0.30000 2.63500
v -0.76299 0.30000 2.64250
v -0.75750 0.30000 2.64799
v -0.75000 0.30000 2.65000
v -0.74250 0.30000 2.64799
v -0.73701 0.30000 2.64250
v -0.73500 0.30000 2.63500
v -0.73701 0.30000 2.62750
v -0.74250 0.30000 2.62201
v -0.75000 -0.30000 2.63500
v -0.75000 0.30000 2.63500
v 0.75000 -0.30000 2.62000
v 0.74250 -0.30000 2.62201
v 0.73701 -0.30000 2.62750
v 0.73500 -0.30000 2.63500
v 0.73701 -0.30000 2.64250
v 0.74250 -0.30000 2.64799
v 0.75000 -0.30000 2.65000
v 0.75750 -0.30000 2.64799
v 0.76299 -0.30000 2.64250
v 0.76500 -0.30000 2.63500
v 0.76299 -0.30000 2.62750
v 0.75750 -0.30000 2.62201
v 0.75000 0.30000 2.62000
v 0.74250 0.30000 2.62201
v 0.73701 0.30000 2.62750
v 0.73500 0.30000 2.63500
v 0.73701 0.30000 2.64250
v 0.74250 0.30000 2.64799
v 0.75000 0.30000 2.65000
v 0.75750 0.30000 2.64799
v 0.76299 0.30000 2.64250
v 0.76500 0.30000 2.63500
v 0.76299 0.30000 2.62750
v 0.75750 0.30000 2.62201
v 0.75000 -0.30000 2.63500
v 0.75000 0.30000 2.63500
v -0.75000 -0.30000 2.90000
v -0.75750 -0.30000 2.90201
v -0.76299 -0.30000 2.90750
v -0.76500 -0.30000 2.91500
v -0.76299 -0.30000 2.92250
v -0.75750 -0.30000 2.92799
v -0.75000 -0.30000 2.93000
v -0.74250 -0.30000 2.92799
v -0.73701 -0.30000 2.92250
v -0.73500 -0.30000 2.91500
v -0.73701 -0.30000 2.90750
v -0.74250 -0.30000 2.90201
v -0.75000 0.30000 2.90000
v -0.75750 0.30000 2.90201
v -0.76299 0.30000 2.90750
v -0.76500 0.30000 2.91500
v -0.76299 0.30000 2.92250
v -0.75750 0.30000 2.92799
v -0.75000 0.30000 2.93000
v -0.74250 0.30000 2.92799
v -0.73701 0.30000 2.92250
v -0.73500 0.30000 2.91500
v -0.73701 0.30000 2.90750
v -0.74250 0.30000 2.90201
v -0.75000 -0.30000 2.91500
v -0.75000 0.30000 2.91500
v 0.75000 -0.30000 2.90000
v 0.74250 -0.30000 2.90201
v 0.73701 -0.30000 2.90750
v 0.73500 -0.30000 2.91500
v 0.73701 -0.30000 2.92250
v 0.74250 -0.30000 2.92799
v 0.75000 -0.30000 2.93000
v 0.75750 -0.30000 2.92799
v 0.76299 -0.30000 2.92250
v 0.76500 -0.30000 2.91500
v 0.76299 -0.30000 2.90750
v 0.75750 -0.30000 2.90201
v 0.75000 0.30000 2.90000
v 0.74250 0.30000 2.90201
v 0.73701 0.30000 2.90750
v 0.73500 0.30000 2.91500
v 0.73701 0.30000 2.92250
v 0.74250 0.30000 2.92799
v 0.75000 0.30000 2.93000
v 0.75750 0.30000 2.92799
v 0.76299 0.30000 2.92250
v 0.76500 0.30000 2.91500
v 0.76299 0.30000 2.90750
v 0.75750 0.30000 2.90201
v 0.75000 -0.30000 2.91500
v 0.75000 0.30000 2.91500
v -0.75000 -0.30000 3.18000
v -0.75750 -0.30000 3.18201
v -0.76299 -0.30000 3.18750
v -0.76500 -0.30000 3.19500
v -0.76299 -0.30000 3.20250
v -0.75750 -0.30000 3.20799
v -0.75000 -0.30000 3.21000
v -0.74250 -0.30000 3.20799
v -0.73701 -0.30000 3.20250
v -0.73500 -0.30000 3.19500
v -0.73701 -0.30000 3.18750
v -0.74250 -0.30000 3.18201
v -0.75000 0.30000 3.18000
v -0.75750 0.30000 3.18201
v -0.76299 0.30000 3.18750
v -0.76500 0.30000 3.19500
v -0.76299 0.30000 3.20250
v -0.75750 0.30000 3.20799
v -0.75000 0.30000 3.21000
v -0.74250 0.30000 3.20799
v -0.73701 0.30000 3.20250
v -0.73500 0.30000 3.19500
v -0.73701 0.30000 3.18750
v -0.74250 0.30000 3.18201
v -0.75000 -0.30000 3.19500
v -0.75000 0.30000 3.19500
v 0.75000 -0.30000 3.18000
v 0.74250 -0.30000 3.18201
v 0.73701 -0.30000 3.18750
v 0.73500 -0.30000 3.19500
v 0.73701 -0.30000 3.20250
v 0.74250 -0.30000 3.20799
v 0.75000 -0.30000 3.21000
v 0.75750 -0.30000 3.20799
v 0.76299 -0.30000 3.20250
v 0.76500 -0.30000 3.19500
v 0.76299 -0.30000 3.18750
v 0.75750 -0.30000 3.18201
v 0.75000 0.30000 3.18000
v 0.74250 0.30000 3.18201
v 0.73701 0.30000 3.18750
v 0.73500 0.30000 3.19500
v 0.73701 0.30000 3.20250
v 0.74250 0.30000 3.20799
v 0.75000 0.30000 3.21000
v 0.75750 0.30000 3.20799
v 0.76299 0.30000 3.20250
v 0.76500 0.30000 3.19500
v 0.76299 0.30000 3.18750
v 0.75750 0.30000 3.18201
v 0.75000 -0.30000 3.19500
v 0.75000 0.30000 3.19500
v -0.75000 -0.30000 3.46000
v -0.75750 -0.30000 3.46201
v -0.76299 -0.30000 3.46750
v -0.76500 -0.30000 3.47500
v -0.76299 -0.30000 3.48250
v -0.75750 -0.30000 3.48799
v -0.75000 -0.30000 3.49000
v -0.74250 -0.30000 3.48799
v -0.73701 -0.30000 3.48250
v -0.73500 -0.30000 3.47500
v -0.73701 -0.30000 3.46750
v -0.74250 -0.30000 3.46201
v -0.75000 0.30000 3.46000
v -0.75750 0.30000 3.46201
v -0.76299 0.30000 3.46750
v -0.76500 0.30000 3.47500
v -0.76299 0.30000 3.48250
v -0.75750 0.30000 3.48799
v -0.75000 0.30000 3.49000
v -0.74250 0.30000 3.48799
v -0.73701 0.30000 3.48250
v -0.73500 0.30000 3.47500
v -0.73701 0.30000 3.46750
v -0.74250 0.30000 3.46201
v -0.75000 -0.30000 3.47500
v -0.75000 0.30000 3.47500
v 0.75000 -0.30000 3.46000
v 0.74250 -0.30000 3.46201
v 0.73701 -0.30000 3.46750
v 0.73500 -0.30000 3.47500
v 0.73701 -0.30000 3.48250
v 0.74250 -0.30000 3.48799
v 0.75000 -0.30000 3.49000
v 0.75750 -0.30000 3.48799
v 0.76299 -0.30000 3.48250
v 0.76500 -0.30000 3.47500
v 0.76299 -0.30000 3.46750
v 0.75750 -0.30000 3.46201
v 0.75000 0.30000 3.46000
v 0.74250 0.30000 3.46201
v 0.73701 0.30000 3.46750
v 0.73500 0.30000 3.47500
v 0.73701 0.30000 3.48250
v 0.74250 0.30000 3.48799
v 0.75000 0.30000 3.49000
v 0.75750 0.30000 3.48799
v 0.76299 0.30000 3.48250
v 0.76500 0.30000 3.47500
v 0.76299 0.30000 3.46750
v 0.75750 0.30000 3.46201
v 0.75000 -0.30000 3.47500
v 0.75000 0.30000 3.47500
v -0.75000 -0.30000 3.74000
v -0.75750 -0.30000 3.74201
v -0.76299 -0.30000 3.74750
v -0.76500 -0.30000 3.75500
v -0.76299 -0.30000 3.76250
v -0.75750 -0.30000 3.76799
v -0.75000 -0.30000 3.77000
v -0.74250 -0.30000 3.76799
v -0.73701 -0.30000 3.76250
v -0.73500 -0.30000 3.75500
v -0.73701 -0.30000 3.74750
v -0.74250 -0.30000 3.74201
v -0.75000 0.30000 3.74000
v -0.75750 0.30000 3.74201
v -0.76299 0.30000 3.74750
v -0.76500 0.30000 3.75500
v -0.76299 0.30000 3.76250
v -0.75750 0.30000 3.76799
v -0.75000 0.30000 3.77000
v -0.74250 0.30000 3.76799
v -0.73701 0.30000 3.76250
v -0.73500 0.30000 3.75500
v -0.73701 0.30000 3.74750
v -0.74250 0.30000 3.74201
v -0.75000 -0.30000 3.75500
v -0.75000 0.30000 3.75500
v 0.75000 -0.30000 3.74000
v 0.74250 -0.30000 3.74201
v 0.73701 -0.30000 3.74750
v 0.73500 -0.30000 3.75500
v 0.73701 -0.30000 3.76250
v 0.74250 -0.30000 3.76799
v 0.75000 -0.30000 3.77000
v 0.75750 -0.30000 3.76799
v 0.76299 -0.30000 3.76250
v 0.76500 -0.30000 3.75500
v 0.76299 -0.30000 3.74750
v 0.75750 -0.30000 3.74201
v 0.75000 0.30000 3.74000
v 0.74250 0.30000 3.74201
v 0.73701 0.30000 3.74750
v 0.73500 0.30000 3.75500
v 0.73701 0.30000 3.76250
v 0.74250 0.30000 3.76799
v 0.75000 0.30000 3.77000
v 0.75750 0.30000 3.76799
v 0.76299 0.30000 3.76250
v 0.76500 0.30000 3.75500
v 0.76299 0.30000 3.74750
v 0.75750 0.30000 3.74201
v 0.75000 -0.30000 3.75500
v 0.75000 0.30000 3.75500
v -0.75000 -0.30000 0.23250
v -0.75000 -0.29375 0.23417
v -0.75000 -0.28917 0.23875
v -0.75000 -0.28750 0.24500
v -0.75000 -0.28917 0.25125
v -0.75000 -0.29375 0.25583
v -0.75000 -0.30000 0.25750
v -0.75000 -0.30625 0.25583
v -0.75000 -0.31083 0.25125
v -0.75000 -0.31250 0.24500
v -0.75000 -0.31083 0.23875
v -0.75000 -0.30625 0.23417
v 0.75000 -0.30000 0.23250
v 0.75000 -0.29375 0.23417
v 0.75000 -0.28917 0.23875
v 0.75000 -0.28750 0.24500
v 0.75000 -0.28917 0.25125
v 0.75000 -0.29375 0.25583
v 0.75000 -0.30000 0.25750
v 0.75000 -0.30625 0.25583
v 0.75000 -0.31083 0.25125
v 0.75000 -0.31250 0.24500
v 0.75000 -0.31083 0.23875
v 0.75000 -0.30625 0.23417
v -0.75000 -0.30000 0.24500
v 0.75000 -0.30000 0.24500
v -0.75000 0.30000 0.23250
v -0.75000 0.30625 0.23417
v -0.75000 0.31083 0.23875
v -0.75000 0.31250 0.24500
v -0.75000 0.31083 0.25125
v -0.75000 0.30625 0.25583
v -0.75000 0.30000 0.25750
v -0.75000 0.29375 0.25583
v -0.75000 0.28917 0.25125
v -0.75000 0.28750 0.24500
v -0.75000 0.28917 0.23875
v -0.75000 0.29375 0.23417
v 0.75000 0.30000 0.23250
v 0.75000 0.30625 0.23417
v 0.75000 0.31083 0.23875
v 0.75000 0.31250 0.24500
v 0.75000 0.31083 0.25125
v 0.75000 0.30625 0.25583
v 0.75000 0.30000 0.25750
v 0.75000 0.29375 0.25583
v 0.75000 0.28917 0.25125
v 0.75000 0.28750 0.24500
v 0.75000 0.28917 0.23875
v 0.75000 0.29375 0.23417
v -0.75000 0.30000 0.24500
v 0.75000 0.30000 0.24500
v -0.75000 -0.30000 1.53750
v -0.75000 -0.29375 1.53917
v -0.75000 -0.28917 1.54375
v -0.75000 -0.28750 1.55000
v -0.75000 -0.28917 1.55625
v -0.75000 -0.29375 1.56083
v -0.75000 -0.30000 1.56250
v -0.75000 -0.30625 1.56083
v -0.75000 -0.31083 1.55625
v -0.75000 -0.31250 1.55000
v -0.75000 -0.31083 1.54375
v -0.75000 -0.30625 1.53917
v 0.75000 -0.30000 1.53750
v 0.75000 -0.29375 1.53917
v 0.75000 -0.28917 1.54375
v 0.75000 -0.28750 1.55000
v 0.75000 -0.28917 1.55625
v 0.75000 -0.29375 1.56083
v 0.75000 -0.30000 1.56250
v 0.75000 -0.30625 1.56083
v 0.75000 -0.31083 1.55625
v 0.75000 -0.31250 1.55000
v 0.75000 -0.31083 1.54375
v 0.75000 -0.30625 1.53917
v -0.75000 -0.30000 1.55000
v 0.75000 -0.30000 1.55000
v -0.75000 0.30000 1.53750
v -0.75000 0.30625 1.53917
v -0.75000 0.31083 1.54375
v -0.75000 0.31250 1.55000
v -0.75000 0.31083 1.55625
v -0.75000 0.30625 1.56083
v -0.75000 0.30000 1.56250
v -0.75000 0.29375 1.56083
v -0.75000 0.28917 1.55625
v -0.75000 0.28750 1.55000
v -0.75000 0.28917 1.54375
v -0.75000 0.29375 1.53917
v 0.75000 0.30000 1.53750
v 0.75000 0.30625 1.53917
v 0.75000 0.31083 1.54375
v 0.75000 0.31250 1.55000
v 0.75000 0.31083 1.55625
v 0.75000 0.30625 1.56083
v 0.75000 0.30000 1.56250
v 0.75000 0.29375 1.56083
v 0.75000 0.28917 1.55625
v 0.75000 0.28750 1.55000
v 0.75000 0.28917 1.54375
v 0.75000 0.29375 1.53917
v -0.75000 0.30000 1.55000
v 0.75000 0.30000 1.55000
v -0.75000 -0.30000 2.98750
v -0.75000 -0.29375 2.98917
v -0.75000 -0.28917 2.99375
v -0.75000 -0.28750 3.00000
v -0.75000 -0.28917 3.00625
v -0.75000 -0.29375 3.01083
v -0.75000 -0.30000 3.01250
v -0.75000 -0.30625 3.01083
v -0.75000 -0.31083 3.00625
v -0.75000 -0.31250 3.00000
v -0.75000 -0.31083 2.99375
v -0.75000 -0.30625 2.98917
v 0.75000 -0.30000 2.98750
v 0.75000 -0.29375 2.98917
v 0.75000 -0.28917 2.99375
v 0.75000 -0.28750 3.00000
v 0.75000 -0.28917 3.00625
v 0.75000 -0.29375 3.01083
v 0.75000 -0.30000 3.01250
v 0.75000 -0.30625 3.01083
v 0.75000 -0.31083 3.00625
v 0.75000 -0.31250 3.00000
v 0.75000 -0.31083 2.99375
v 0.75000 -0.30625 2.98917
v -0.75000 -0.30000 3.00000
v 0.75000 -0.30000 3.00000
v -0.75000 0.30000 2.98750
v -0.75000 0.30625 2.98917
v -0.75000 0.31083 2.99375
v -0.75000 0.31250 3.00000
v -0.75000 0.31083 3.00625
v -0.75000 0.30625 3.01083
v -0.75000 0.30000 3.01250
v -0.75000 0.29375 3.01083
v -0.75000 0.28917 3.00625
v -0.75000 0.28750 3.00000
v -0.75000 0.28917 2.99375
v -0.75000 0.29375 2.98917
v 0.75000 0.30000 2.98750
v 0.75000 0.30625 2.98917
v 0.75000 0.31083 2.99375
v 0.75000 0.31250 3.00000
v 0.75000 0.31083 3.00625
v 0.75000 0.30625 3.01083
v 0.75000 0.30000 3.01250
v 0.75000 0.29375 3.01083
v 0.75000 0.28917 3.00625
v 0.75000 0.28750 3.00000
v 0.75000 0.28917 2.99375
v 0.75000 0.29375 2.98917
v -0.75000 0.30000 3.00000
v 0.75000 0.30000 3.00000
v -0.75000 -0.30000 3.98750
v -0.75000 -0.29375 3.98917
v -0.75000 -0.28917 3.99375
v -0.75000 -0.28750 4.00000
v -0.75000 -0.28917 4.00625
v -0.75000 -0.29375 4.01083
v -0.75000 -0.30000 4.01250
v -0.75000 -0.30625 4.01083
v -0.75000 -0.31083 4.00625
v -0.75000 -0.31250 4.00000
v -0.75000 -0.31083 3.99375
v -0.75000 -0.30625 3.98917
v 0.75000 -0.30000 3.98750
v 0.75000 -0.29375 3.98917
v 0.75000 -0.28917 3.99375
v 0.75000 -0.28750 4.00000
v 0.75000 -0.28917 4.00625
v 0.75000 -0.29375 4.01083
v 0.75000 -0.30000 4.01250
v 0.75000 -0.30625 4.01083
v 0.75000 -0.31083 4.00625
v 0.75000 -0.31250 4.00000
v 0.75000 -0.31083 3.99375
v 0.75000 -0.30625 3.98917
v -0.75000 -0.30000 4.00000
v 0.75000 -0.30000 4.00000
v -0.75000 0.30000 3.98750
v -0.75000 0.30625 3.98917
v -0.75000 0.31083 3.99375
v -0.75000 0.31250 4.00000
v -0.75000 0.31083 4.00625
v -0.75000 0.30625 4.01083
v -0.75000 0.30000 4.01250
v -0.75000 0.29375 4.01083
v -0.75000 0.28917 4.00625
v -0.75000 0.28750 4.00000
v -0.75000 0.28917 3.99375
v -0.75000 0.29375 3.98917
v 0.75000 0.30000 3.98750
v 0.75000 0.30625 3.98917
v 0.75000 0.31083 3.99375
v 0.75000 0.31250 4.00000
v 0.75000 0.31083 4.00625
v 0.75000 0.30625 4.01083
v 0.75000 0.30000 4.01250
v 0.75000 0.29375 4.01083
v 0.75000 0.28917 4.00625
v 0.75000 0.28750 4.00000
v 0.75000 0.28917 3.99375
v 0.75000 0.29375 3.98917
v -0.75000 0.30000 4.00000
v 0.75000 0.30000 4.00000
v -0.74180 -0.30000 0.23557
v -0.74289 -0.29375 0.23683
v -0.74590 -0.28917 0.24028
v -0.75000 -0.28750 0.24500
v -0.75410 -0.28917 0.24972
v -0.75711 -0.29375 0.25317
v -0.75820 -0.30000 0.25443
v -0.75711 -0.30625 0.25317
v -0.75410 -0.31083 0.24972
v -0.75000 -0.31250 0.24500
v -0.74590 -0.31083 0.24028
v -0.74289 -0.30625 0.23683
v 0.75820 -0.30000 1.54057
v 0.75711 -0.29375 1.54183
v 0.75410 -0.28917 1.54528
v 0.75000 -0.28750 1.55000
v 0.74590 -0.28917 1.55472
v 0.74289 -0.29375 1.55817
v 0.74180 -0.30000 1.55943
v 0.74289 -0.30625 1.55817
v 0.74590 -0.31083 1.55472
v 0.75000 -0.31250 1.55000
v 0.75410 -0.31083 1.54528
v 0.75711 -0.30625 1.54183
v -0.75000 -0.30000 0.24500
v 0.75000 -0.30000 1.55000
v -0.75820 -0.30000 1.54057
v -0.75711 -0.29375 1.54183
v -0.75410 -0.28917 1.54528
v -0.75000 -0.28750 1.55000
v -0.74590 -0.28917 1.55472
v -0.74289 -0.29375 1.55817
v -0.74180 -0.30000 1.55943
v -0.74289 -0.30625 1.55817
v -0.74590 -0.31083 1.55472
v -0.75000 -0.31250 1.55000
v -0.75410 -0.31083 1.54528
v -0.75711 -0.30625 1.54183
v 0.74180 -0.30000 0.23557
v 0.74289 -0.29375 0.23683
v 0.74590 -0.28917 0.24028
v 0.75000 -0.28750 0.24500
v 0.75410 -0.28917 0.24972
v 0.75711 -0.29375 0.25317
v 0.75820 -0.30000 0.25443
v 0.75711 -0.30625 0.25317
v 0.75410 -0.31083 0.24972
v 0.75000 -0.31250 0.24500
v 0.74590 -0.31083 0.24028
v 0.74289 -0.30625 0.23683
v -0.75000 -0.30000 1.55000
v 0.75000 -0.30000 0.24500
v -0.74180 0.30000 0.23557
v -0.74289 0.30625 0.23683
v -0.74590 0.31083 0.24028
v -0.75000 0.31250 0.24500
v -0.75410 0.31083 0.24972
v -0.75711 0.30625 0.25317
v -0.75820 0.30000 0.25443
v -0.75711 0.29375 0.25317
v -0.75410 0.28917 0.24972
v -0.75000 0.28750 0.24500
v -0.74590 0.28917 0.24028
v -0.74289 0.29375 0.23683
v 0.75820 0.30000 1.54057
v 0.75711 0.30625 1.54183
v 0.75410 0.31083 1.54528
v 0.75000 0.31250 1.55000
v 0.74590 0.31083 1.55472
v 0.74289 0.30625 1.55817
v 0.74180 0.30000 1.55943
v 0.74289 0.29375 1.55817
v 0.74590 0.28917 1.55472
v 0.75000 0.28750 1.55000
v 0.75410 0.28917 1.54528
v 0.75711 0.29375 1.54183
v -0.75000 0.30000 0.24500
v 0.75000 0.30000 1.55000
v -0.75820 0.30000 1.54057
v -0.75711 0.30625 1.54183
v -0.75410 0.31083 1.54528
v -0.75000 0.31250 1.55000
v -0.74590 0.31083 1.55472
v -0.74289 0.30625 1.55817
v -0.74180 0.30000 1.55943
v -0.74289 0.29375 1.55817
v -0.74590 0.28917 1.55472
v -0.75000 0.28750 1.55000
v -0.75410 0.28917 1.54528
v -0.75711 0.29375 1.54183
v 0.74180 0.30000 0.23557
v 0.74289 0.30625 0.23683
v 0.74590 0.31083 0.24028
v 0.75000 0.31250 0.24500
v 0.75410 0.31083 0.24972
v 0.75711 0.30625 0.25317
v 0.75820 0.30000 0.25443
v 0.75711 0.29375 0.25317
v 0.75410 0.28917 0.24972
v 0.75000 0.28750 0.24500
v 0.74590 0.28917 0.24028
v 0.74289 0.29375 0.23683
v -0.75000 0.30000 1.55000
v 0.75000 0.30000 0.24500
v -0.74131 -0.30000 1.54101
v -0.74248 -0.29375 1.54222
v -0.74566 -0.28917 1.54551
v -0.75000 -0.28750 1.55000
v -0.75434 -0.28917 1.55449
v -0.75752 -0.29375 1.55778
v -0.75869 -0.30000 1.55899
v -0.75752 -0.30625 1.55778
v -0.75434 -0.31083 1.55449
v -0.75000 -0.31250 1.55000
v -0.74566 -0.31083 1.54551
v -0.74248 -0.30625 1.54222
v 0.75869 -0.30000 2.99101
v 0.75752 -0.29375 2.99222
v 0.75434 -0.28917 2.99551
v 0.75000 -0.28750 3.00000
v 0.74566 -0.28917 3.00449
v 0.74248 -0.29375 3.00778
v 0.74131 -0.30000 3.00899
v 0.74248 -0.30625 3.00778
v 0.74566 -0.31083 3.00449
v 0.75000 -0.31250 3.00000
v 0.75434 -0.31083 2.99551
v 0.75752 -0.30625 2.99222
v -0.75000 -0.30000 1.55000
v 0.75000 -0.30000 3.00000
v -0.75869 -0.30000 2.99101
v -0.75752 -0.29375 2.99222
v -0.75434 -0.28917 2.99551
v -0.75000 -0.28750 3.00000
v -0.74566 -0.28917 3.00449
v -0.74248 -0.29375 3.00778
v -0.74131 -0.30000 3.00899
v -0.74248 -0.30625 3.00778
v -0.74566 -0.31083 3.00449
v -0.75000 -0.31250 3.00000
v -0.75434 -0.31083 2.99551
v -0.75752 -0.30625 2.99222
v 0.74131 -0.30000 1.54101
v 0.74248 -0.29375 1.54222
v 0.74566 -0.28917 1.54551
v 0.75000 -0.28750 1.55000
v 0.75434 -0.28917 1.55449
v 0.75752 -0.29375 1.55778
v 0.75869 -0.30000 1.55899
v 0.75752 -0.30625 1.55778
v 0.75434 -0.31083 1.55449
v 0.75000 -0.31250 1.55000
v 0.74566 -0.31083 1.54551
v 0.74248 -0.30625 1.54222
v -0.75000 -0.30000 3.00000
v 0.75000 -0.30000 1.55000
v -0.74131 0.30000 1.54101
v -0.74248 0.30625 1.54222
v -0.74566 0.31083 1.54551
v -0.75000 0.31250 1.55000
v -0.75434 0.31083 1.55449
v -0.75752 0.30625 1.55778
v -0.75869 0.30000 1.55899
v -0.75752 0.29375 1.55778
v -0.75434 0.28917 1.55449
v -0.75000 0.28750 1.55000
v -0.74566 0.28917 1.54551
v -0.74248 0.29375 1.54222
v 0.75869 0.30000 2.99101
v 0.75752 0.30625 2.99222
v 0.75434 0.31083 2.99551
v 0.75000 0.31250 3.00000
v 0.74566 0.31083 3.00449
v 0.74248 0.30625 3.00778
v 0.74131 0.30000 3.00899
v 0.74248 0.29375 3.00778
v 0.74566 0.28917 3.00449
v 0.75000 0.28750 3.00000
v 0.75434 0.28917 2.99551
v 0.75752 0.29375 2.99222
v -0.75000 0.30000 1.55000
v 0.75000 0.30000 3.00000
v -0.75869 0.30000 2.99101
v -0.75752 0.30625 2.99222
v -0.75434 0.31083 2.99551
v -0.75000 0.31250 3.00000
v -0.74566 0.31083 3.00449
v -0.74248 0.30625 3.00778
v -0.74131 0.30000 3.00899
v -0.74248 0.29375 3.00778
v -0.74566 0.28917 3.00449
v -0.75000 0.28750 3.00000
v -0.75434 0.28917 2.99551
v -0.75752 0.29375 2.99222
v 0.74131 0.30000 1.54101
v 0.74248 0.30625 1.54222
v 0.74566 0.31083 1.54551
v 0.75000 0.31250 1.55000
v 0.75434 0.31083 1.55449
v 0.75752 0.30625 1.55778
v 0.75869 0.30000 1.55899
v 0.75752 0.29375 1.55778
v 0.75434 0.28917 1.55449
v 0.75000 0.28750 1.55000
v 0.74566 0.28917 1.54551
v 0.74248 0.29375 1.54222
v -0.75000 0.30000 3.00000
v 0.75000 0.30000 1.55000
v -0.75000 -0.28000 2.95500
v 0.75000 -0.28000 2.95500
v 0.75000 0.28000 2.95500
v -0.75000 0.28000 2.95500
v -0.75000 -0.28000 3.00000
v 0.75000 -0.28000 3.00000
v 0.75000 0.28000 3.00000
v -0.75000 0.28000 3.00000
v -0.75000 -0.30000 4.13250
v -0.75000 -0.29125 4.13484
v -0.75000 -0.28484 4.14125
v -0.75000 -0.28250 4.15000
v -0.75000 -0.28484 4.15875
v -0.75000 -0.29125 4.16516
v -0.75000 -0.30000 4.16750
v -0.75000 -0.30875 4.16516
v -0.75000 -0.31516 4.15875
v -0.75000 -0.31750 4.15000
v -0.75000 -0.31516 4.14125
v -0.75000 -0.30875 4.13484
v 0.75000 -0.30000 4.13250
v 0.75000 -0.29125 4.13484
v 0.75000 -0.28484 4.14125
v 0.75000 -0.28250 4.15000
v 0.75000 -0.28484 4.15875
v 0.75000 -0.29125 4.16516
v 0.75000 -0.30000 4.16750
v 0.75000 -0.30875 4.16516
v 0.75000 -0.31516 4.15875
v 0.75000 -0.31750 4.15000
v 0.75000 -0.31516 4.14125
v 0.75000 -0.30875 4.13484
v -0.75000 -0.30000 4.15000
v 0.75000 -0.30000 4.15000
v -0.75000 0.30000 4.13250
v -0.75000 0.30875 4.13484
v -0.75000 0.31516 4.14125
v -0.75000 0.31750 4.15000
v -0.75000 0.31516 4.15875
v -0.75000 0.30875 4.16516
v -0.75000 0.30000 4.16750
v -0.75000 0.29125 4.16516
v -0.75000 0.28484 4.15875
v -0.75000 0.28250 4.15000
v -0.75000 0.28484 4.14125
v -0.75000 0.29125 4.13484
v 0.75000 0.30000 4.13250
v 0.75000 0.30875 4.13484
v 0.75000 0.31516 4.14125
v 0.75000 0.31750 4.15000
v 0.75000 0.31516 4.15875
v 0.75000 0.30875 4.16516
v 0.75000 0.30000 4.16750
v 0.75000 0.29125 4.16516
v 0.75000 0.28484 4.15875
v 0.75000 0.28250 4.15000
v 0.75000 0.28484 4.14125
v 0.75000 0.29125 4.13484
v -0.75000 0.30000 4.15000
v 0.75000 0.30000 4.15000
v -0.75000 -0.30000 4.13250
v -0.75875 -0.30000 4.13484
v -0.76516 -0.30000 4.14125
v -0.76750 -0.30000 4.15000
v -0.76516 -0.30000 4.15875
v -0.75875 -0.30000 4.16516
v -0.75000 -0.30000 4.16750
v -0.74125 -0.30000 4.16516
v -0.73484 -0.30000 4.15875
v -0.73250 -0.30000 4.15000
v -0.73484 -0.30000 4.14125
v -0.74125 -0.30000 4.13484
v -0.75000 0.30000 4.13250
v -0.75875 0.30000 4.13484
v -0.76516 0.30000 4.14125
v -0.76750 0.30000 4.15000
v -0.76516 0.30000 4.15875
v -0.75875 0.30000 4.16516
v -0.75000 0.30000 4.16750
v -0.74125 0.30000 4.16516
v -0.73484 0.30000 4.15875
v -0.73250 0.30000 4.15000
v -0.73484 0.30000 4.14125
v -0.74125 0.30000 4.13484
v -0.75000 -0.30000 4.15000
v -0.75000 0.30000 4.15000
v 0.75000 -0.30000 4.13250
v 0.74125 -0.30000 4.13484
v 0.73484 -0.30000 4.14125
v 0.73250 -0.30000 4.15000
v 0.73484 -0.30000 4.15875
v 0.74125 -0.30000 4.16516
v 0.75000 -0.30000 4.16750
v 0.75875 -0.30000 4.16516
v 0.76516 -0.30000 4.15875
v 0.76750 -0.30000 4.15000
v 0.76516 -0.30000 4.14125
v 0.75875 -0.30000 4.13484
v 0.75000 0.30000 4.13250
v 0.74125 0.30000 4.13484
v 0.73484 0.30000 4.14125
v 0.73250 0.30000 4.15000
v 0.73484 0.30000 4.15875
v 0.74125 0.30000 4.16516
v 0.75000 0.30000 4.16750
v 0.75875 0.30000 4.16516
v 0.76516 0.30000 4.15875
v 0.76750 0.30000 4.15000
v 0.76516 0.30000 4.14125
v 0.75875 0.30000 4.13484
v 0.75000 -0.30000 4.15000
v 0.75000 0.30000 4.15000
v -0.75000 -0.30000 3.53250
v -0.75000 -0.29125 3.53484
v -0.75000 -0.28484 3.54125
v -0.75000 -0.28250 3.55000
v -0.75000 -0.28484 3.55875
v -0.75000 -0.29125 3.56516
v -0.75000 -0.30000 3.56750
v -0.75000 -0.30875 3.56516
v -0.75000 -0.31516 3.55875
v -0.75000 -0.31750 3.55000
v -0.75000 -0.31516 3.54125
v -0.75000 -0.30875 3.53484
v 0.75000 -0.30000 3.53250
v 0.75000 -0.29125 3.53484
v 0.75000 -0.28484 3.54125
v 0.75000 -0.28250 3.55000
v 0.75000 -0.28484 3.55875
v 0.75000 -0.29125 3.56516
v 0.75000 -0.30000 3.56750
v 0.75000 -0.30875 3.56516
v 0.75000 -0.31516 3.55875
v 0.75000 -0.31750 3.55000
v 0.75000 -0.31516 3.54125
v 0.75000 -0.30875 3.53484
v -0.75000 -0.30000 3.55000
v 0.75000 -0.30000 3.55000
v -0.75000 0.30000 3.53250
v -0.75000 0.30875 3.53484
v -0.75000 0.31516 3.54125
v -0.75000 0.31750 3.55000
v -0.75000 0.31516 3.55875
v -0.75000 0.30875 3.56516
v -0.75000 0.30000 3.56750
v -0.75000 0.29125 3.56516
v -0.75000 0.28484 3.55875
v -0.75000 0.28250 3.55000
v -0.75000 0.28484 3.54125
v -0.75000 0.29125 3.53484
v 0.75000 0.30000 3.53250
v 0.75000 0.30875 3.53484
v 0.75000 0.31516 3.54125
v 0.75000 0.31750 3.55000
v 0.75000 0.31516 3.55875
v 0.75000 0.30875 3.56516
v 0.75000 0.30000 3.56750
v 0.75000 0.29125 3.56516
v 0.75000 0.28484 3.55875
v 0.75000 0.28250 3.55000
v 0.75000 0.28484 3.54125
v 0.75000 0.29125 3.53484
v -0.75000 0.30000 3.55000
v 0.75000 0.30000 3.55000
v -0.75000 -0.30000 3.53250
v -0.75875 -0.30000 3.53484
v -0.76516 -0.30000 3.54125
v -0.76750 -0.30000 3.55000
v -0.76516 -0.30000 3.55875
v -0.75875 -0.30000 3.56516
v -0.75000 -0.30000 3.56750
v -0.74125 -0.30000 3.56516
v -0.73484 -0.30000 3.55875
v -0.73250 -0.30000 3.55000
v -0.73484 -0.30000 3.54125
v -0.74125 -0.30000 3.53484
v -0.75000 0.30000 3.53250
v -0.75875 0.30000 3.53484
v -0.76516 0.30000 3.54125
v -0.76750 0.30000 3.55000
v -0.76516 0.30000 3.55875
v -0.75875 0.30000 3.56516
v -0.75000 0.30000 3.56750
v -0.74125 0.30000 3.56516
v -0.73484 0.30000 3.55875
v -0.73250 0.30000 3.55000
v -0.73484 0.30000 3.54125
v -0.74125 0.30000 3.53484
v -0.75000 -0.30000 3.55000
v -0.75000 0.30000 3.55000
v 0.75000 -0.30000 3.53250
v 0.74125 -0.30000 3.53484
v 0.73484 -0.30000 3.54125
v 0.73250 -0.30000 3.55000
v 0.73484 -0.30000 3.55875
v 0.74125 -0.30000 3.56516
v 0.75000 -0.30000 3.56750
v 0.75875 -0.30000 3.56516
v 0.76516 -0.30000 3.55875
v 0.76750 -0.30000 3.55000
v 0.76516 -0.30000 3.54125
v 0.75875 -0.30000 3.53484
v 0.75000 0.30000 3.53250
v 0.74125 0.30000 3.53484
v 0.73484 0.30000 3.54125
v 0.73250 0.30000 3.55000
v 0.73484 0.30000 3.55875
v 0.74125 0.30000 3.56516
v 0.75000 0.30000 3.56750
v 0.75875 0.30000 3.56516
v 0.76516 0.30000 3.55875
v 0.76750 0.30000 3.55000
v 0.76516 0.30000 3.54125
v 0.75875 0.30000 3.53484
v 0.75000 -0.30000 3.55000
v 0.75000 0.30000 3.55000
v -0.75000 -0.30000 3.00000
v 0.75000 -0.30000 3.00000
v 0.75000 -0.28000 3.00000
v -0.75000 -0.28000 3.00000
v -0.75000 -0.30000 3.15000
v 0.75000 -0.30000 3.15000
v 0.75000 -0.28000 3.15000
v -0.75000 -0.28000 3.15000
v -0.75000 0.28000 3.00000
v 0.75000 0.28000 3.00000
v 0.75000 0.30000 3.00000
v -0.75000 0.30000 3.00000
v -0.75000 0.28000 3.15000
v 0.75000 0.28000 3.15000
v 0.75000 0.30000 3.15000
v -0.75000 0.30000 3.15000
v -0.77000 -0.30000 3.00000
v -0.75000 -0.30000 3.00000
v -0.75000 0.30000 3.00000
v -0.77000 0.30000 3.00000
v -0.77000 -0.30000 3.15000
v -0.75000 -0.30000 3.15000
v -0.75000 0.30000 3.15000
v -0.77000 0.30000 3.15000
v 0.75000 -0.30000 3.00000
v 0.77000 -0.30000 3.00000
v 0.77000 0.30000 3.00000
v 0.75000 0.30000 3.00000
v 0.75000 -0.30000 3.15000
v 0.77000 -0.30000 3.15000
v 0.77000 0.30000 3.15000
v 0.75000 0.30000 3.15000
g dark
usemtl dark
f 1 2 14
f 1 14 13
f 25 2 1
f 26 13 14
f 2 3 15
f 2 15 14
f 25 3 2
f 26 14 15
f 3 4 16
f 3 16 15
f 25 4 3
f 26 15 16
f 4 5 17
f 4 17 16
f 25 5 4
f 26 16 17
f 5 6 18
f 5 18 17
f 25 6 5
f 26 17 18
f 6 7 19
f 6 19 18
f 25 7 6
f 26 18 19
f 7 8 20
f 7 20 19
f 25 8 7
f 26 19 20
f 8 9 21
f 8 21 20
f 25 9 8
f 26 20 21
f 9 10 22
f 9 22 21
f 25 10 9
f 26 21 22
f 10 11 23
f 10 23 22
f 25 11 10
f 26 22 23
f 11 12 24
f 11 24 23
f 25 12 11
f 26 23 24
f 12 1 13
f 12 13 24
f 25 1 12
f 26 24 13
f 79 80 92
f 79 92 91
f 103 80 79
f 104 91 92
f 80 81 93
f 80 93 92
f 103 81 80
f 104 92 93
f 81 82 94
f 81 94 93
f 103 82 81
f 104 93 94
f 82 83 95
f 82 95 94
f 103 83 82
f 104 94 95
f 83 84 96
f 83 96 95
f 103 84 83
f 104 95 96
f 84 85 97
f 84 97 96
f 103 85 84
f 104 96 97
f 85 86 98
f 85 98 97
f 103 86 85
f 104 97 98
f 86 87 99
f 86 99 98
f 103 87 86
f 104 98 99
f 87 88 100
f 87 100 99
f 103 88 87
f 104 99 100
f 88 89 101
f 88 101 100
f 103 89 88
f 104 100 101
f 89 90 102
f 89 102 101
f 103 90 89
f 104 101 102
f 90 79 91
f 90 91 102
f 103 79 90
f 104 102 91
f 157 158 170
f 157 170 169
f 181 158 157
f 182 169 170
f 158 159 171
f 158 171 170
f 181 159 158
f 182 170 171
f 159 160 172
f 159 172 171
f 181 160 159
f 182 171 172
f 160 161 173
f 160 173 172
f 181 161 160
f 182 172 173
f 161 162 174
f 161 174 173
f 181 162 161
f 182 173 174
f 162 163 175
f 162 175 174
f 181 163 162
f 182 174 175
f 163 164 176
f 163 176 175
f 181 164 163
f 182 175 176
f 164 165 177
f 164 177 176
f 181 165 164
f 182 176 177
f 165 166 178
f 165 178 177
f 181 166 165
f 182 177 178
f 166 167 179
f 166 179 178
f 181 167 166
f 182 178 179
f 167 168 180
f 167 180 179
f 181 168 167
f 182 179 180
f 168 157 169
f 168 169 180
f 181 157 168
f 182 180 169
f 235 236 248
f 235 248 247
f 259 236 235
f 260 247 248
f 236 237 249
f 236 249 248
f 259 237 236
f 260 248 249
f 237 238 250
f 237 250 249
f 259 238 237
f 260 249 250
f 238 239 251
f 238 251 250
f 259 239 238
f 260 250 251
f 239 240 252
f 239 252 251
f 259 240 239
f 260 251 252
f 240 241 253
f 240 253 252
f 259 241 240
f 260 252 253
f 241 242 254
f 241 254 253
f 259 242 241
f 260 253 254
f 242 243 255
f 242 255 254
f 259 243 242
f 260 254 255
f 243 244 256
f 243 256 255
f 259 244 243
f 260 255 256
f 244 245 257
f 244 257 256
f 259 245 244
f 260 256 257
f 245 246 258
f 245 258 257
f 259 246 245
f 260 257 258
f 246 235 247
f 246 247 258
f 259 235 246
f 260 258 247
g red
usemtl red
f 27 28 40
f 27 40 39
f 51 28 27
f 52 39 40
f 28 29 41
f 28 41 40
f 51 29 28
f 52 40 41
f 29 30 42
f 29 42 41
f 51 30 29
f 52 41 42
f 30 31 43
f 30 43 42
f 51 31 30
f 52 42 43
f 31 32 44
f 31 44 43
f 51 32 31
f 52 43 44
f 32 33 45
f 32 45 44
f 51 33 32
f 52 44 45
f 33 34 46
f 33 46 45
f 51 34 33
f 52 45 46
f 34 35 47
f 34 47 46
f 51 35 34
f 52 46 47
f 35 36 48
f 35 48 47
f 51 36 35
f 52 47 48
f 36 37 49
f 36 49 48
f 51 37 36
f 52 48 49
f 37 38 50
f 37 50 49
f 51 38 37
f 52 49 50
f 38 27 39
f 38 39 50
f 51 27 38
f 52 50 39
f 105 106 118
f 105 118 117
f 129 106 105
f 130 117 118
f 106 107 119
f 106 119 118
f 129 107 106
f 130 118 119
f 107 108 120
f 107 120 119
f 129 108 107
f 130 119 120
f 108 109 121
f 108 121 120
f 129 109 108
f 130 120 121
f 109 110 122
f 109 122 121
f 129 110 109
f 130 121 122
f 110 111 123
f 110 123 122
f 129 111 110
f 130 122 123
f 111 112 124
f 111 124 123
f 129 112 111
f 130 123 124
f 112 113 125
f 112 125 124
f 129 113 112
f 130 124 125
f 113 114 126
f 113 126 125
f 129 114 113
f 130 125 126
f 114 115 127
f 114 127 126
f 129 115 114
f 130 126 127
f 115 116 128
f 115 128 127
f 129 116 115
f 130 127 128
f 116 105 117
f 116 117 128
f 129 105 116
f 130 128 117
f 183 184 196
f 183 196 195
f 207 184 183
f 208 195 196
f 184 185 197
f 184 197 196
f 207 185 184
f 208 196 197
f 185 186 198
f 185 198 197
f 207 186 185
f 208 197 198
f 186 187 199
f 186 199 198
f 207 187 186
f 208 198 199
f 187 188 200
f 187 200 199
f 207 188 187
f 208 199 200
f 188 189 201
f 188 201 200
f 207 189 188
f 208 200 201
f 189 190 202
f 189 202 201
f 207 190 189
f 208 201 202
f 190 191 203
f 190 203 202
f 207 191 190
f 208 202 203
f 191 192 204
f 191 204 203
f 207 192 191
f 208 203 204
f 192 193 205
f 192 205 204
f 207 193 192
f 208 204 205
f 193 194 206
f 193 206 205
f 207 194 193
f 208 205 206
f 194 183 195
f 194 195 206
f 207 183 194
f 208 206 195
f 261 262 274
f 261 274 273
f 285 262 261
f 286 273 274
f 262 263 275
f 262 275 274
f 285 263 262
f 286 274 275
f 263 264 276
f 263 276 275
f 285 264 263
f 286 275 276
f 264 265 277
f 264 277 276
f 285 265 264
f 286 276 277
f 265 266 278
f 265 278 277
f 285 266 265
f 286 277 278
f 266 267 279
f 266 279 278
f 285 267 266
f 286 278 279
f 267 268 280
f 267 280 279
f 285 268 267
f 286 279 280
f 268 269 281
f 268 281 280
f 285 269 268
f 286 280 281
f 269 270 282
f 269 282 281
f 285 270 269
f 286 281 282
f 270 271 283
f 270 283 282
f 285 271 270
f 286 282 283
f 271 272 284
f 271 284 283
f 285 272 271
f 286 283 284
f 272 261 273
f 272 273 284
f 285 261 272
f 286 284 273
g alu
usemtl alu
f 53 54 66
f 53 66 65
f 77 54 53
f 78 65 66
f 54 55 67
f 54 67 66
f 77 55 54
f 78 66 67
f 55 56 68
f 55 68 67
f 77 56 55
f 78 67 68
f 56 57 69
f 56 69 68
f 77 57 56
f 78 68 69
f 57 58 70
f 57 70 69
f 77 58 57
f 78 69 70
f 58 59 71
f 58 71 70
f 77 59 58
f 78 70 71
f 59 60 72
f 59 72 71
f 77 60 59
f 78 71 72
f 60 61 73
f 60 73 72
f 77 61 60
f 78 72 73
f 61 62 74
f 61 74 73
f 77 62 61
f 78 73 74
f 62 63 75
f 62 75 74
f 77 63 62
f 78 74 75
f 63 64 76
f 63 76 75
f 77 64 63
f 78 75 76
f 64 53 65
f 64 65 76
f 77 53 64
f 78 76 65
f 131 132 144
f 131 144 143
f 155 132 131
f 156 143 144
f 132 133 145
f 132 145 144
f 155 133 132
f 156 144 145
f 133 134 146
f 133 146 145
f 155 134 133
f 156 145 146
f 134 135 147
f 134 147 146
f 155 135 134
f 156 146 147
f 135 136 148
f 135 148 147
f 155 136 135
f 156 147 148
f 136 137 149
f 136 149 148
f 155 137 136
f 156 148 149
f 137 138 150
f 137 150 149
f 155 138 137
f 156 149 150
f 138 139 151
f 138 151 150
f 155 139 138
f 156 150 151
f 139 140 152
f 139 152 151
f 155 140 139
f 156 151 152
f 140 141 153
f 140 153 152
f 155 141 140
f 156 152 153
f 141 142 154
f 141 154 153
f 155 142 141
f 156 153 154
f 142 131 143
f 142 143 154
f 155 131 142
f 156 154 143
f 209 210 222
f 209 222 221
f 233 210 209
f 234 221 222
f 210 211 223
f 210 223 222
f 233 211 210
f 234 222 223
f 211 212 224
f 211 224 223
f 233 212 211
f 234 223 224
f 212 213 225
f 212 225 224
f 233 213 212
f 234 224 225
f 213 214 226
f 213 226 225
f 233 214 213
f 234 225 226
f 214 215 227
f 214 227 226
f 233 215 214
f 234 226 227
f 215 216 228
f 215 228 227
f 233 216 215
f 234 227 228
f 216 217 229
f 216 229 228
f 233 217 216
f 234 228 229
f 217 218 230
f 217 230 229
f 233 218 217
f 234 229 230
f 218 219 231
f 218 231 230
f 233 219 218
f 234 230 231
f 219 220 232
f 219 232 231
f 233 220 219
f 234 231 232
f 220 209 221
f 220 221 232
f 233 209 220
f 234 232 221
f 287 288 300
f 287 300 299
f 311 288 287
f 312 299 300
f 288 289 301
f 288 301 300
f 311 289 288
f 312 300 301
f 289 290 302
f 289 302 301
f 311 290 289
f 312 301 302
f 290 291 303
f 290 303 302
f 311 291 290
f 312 302 303
f 291 292 304
f 291 304 303
f 311 292 291
f 312 303 304
f 292 293 305
f 292 305 304
f 311 293 292
f 312 304 305
f 293 294 306
f 293 306 305
f 311 294 293
f 312 305 306
f 294 295 307
f 294 307 306
f 311 295 294
f 312 306 307
f 295 296 308
f 295 308 307
f 311 296 295
f 312 307 308
f 296 297 309
f 296 309 308
f 311 297 296
f 312 308 309
f 297 298 310
f 297 310 309
f 311 298 297
f 312 309 310
f 298 287 299
f 298 299 310
f 311 287 298
f 312 310 299
f 313 314 326
f 313 326 325
f 337 314 313
f 338 325 326
f 314 315 327
f 314 327 326
f 337 315 314
f 338 326 327
f 315 316 328
f 315 328 327
f 337 316 315
f 338 327 328
f 316 317 329
f 316 329 328
f 337 317 316
f 338 328 329
f 317 318 330
f 317 330 329
f 337 318 317
f 338 329 330
f 318 319 331
f 318 331 330
f 337 319 318
f 338 330 331
f 319 320 332
f 319 332 331
f 337 320 319
f 338 331 332
f 320 321 333
f 320 333 332
f 337 321 320
f 338 332 333
f 321 322 334
f 321 334 333
f 337 322 321
f 338 333 334
f 322 323 335
f 322 335 334
f 337 323 322
f 338 334 335
f 323 324 336
f 323 336 335
f 337 324 323
f 338 335 336
f 324 313 325
f 324 325 336
f 337 313 324
f 338 336 325
f 339 340 352
f 339 352 351
f 363 340 339
f 364 351 352
f 340 341 353
f 340 353 352
f 363 341 340
f 364 352 353
f 341 342 354
f 341 354 353
f 363 342 341
f 364 353 354
f 342 343 355
f 342 355 354
f 363 343 342
f 364 354 355
f 343 344 356
f 343 356 355
f 363 344 343
f 364 355 356
f 344 345 357
f 344 357 356
f 363 345 344
f 364 356 357
f 345 346 358
f 345 358 357
f 363 346 345
f 364 357 358
f 346 347 359
f 346 359 358
f 363 347 346
f 364 358 359
f 347 348 360
f 347 360 359
f 363 348 347
f 364 359 360
f 348 349 361
f 348 361 360
f 363 349 348
f 364 360 361
f 349 350 362
f 349 362 361
f 363 350 349
f 364 361 362
f 350 339 351
f 350 351 362
f 363 339 350
f 364 362 351
f 365 366 378
f 365 378 377
f 389 366 365
f 390 377 378
f 366 367 379
f 366 379 378
f 389 367 366
f 390 378 379
f 367 368 380
f 367 380 379
f 389 368 367
f 390 379 380
f 368 369 381
f 368 381 380
f 389 369 368
f 390 380 381
f 369 370 382
f 369 382 381
f 389 370 369
f 390 381 382
f 370 371 383
f 370 383 382
f 389 371 370
f 390 382 383
f 371 372 384
f 371 384 383
f 389 372 371
f 390 383 384
f 372 373 385
f 372 385 384
f 389 373 372
f 390 384 385
f 373 374 386
f 373 386 385
f 389 374 373
f 390 385 386
f 374 375 387
f 374 387 386
f 389 375 374
f 390 386 387
f 375 376 388
f 375 388 387
f 389 376 375
f 390 387 388
f 376 365 377
f 376 377 388
f 389 365 376
f 390 388 377
f 391 392 404
f 391 404 403
f 415 392 391
f 416 403 404
f 392 393 405
f 392 405 404
f 415 393 392
f 416 404 405
f 393 394 406
f 393 406 405
f 415 394 393
f 416 405 406
f 394 395 407
f 394 407 406
f 415 395 394
f 416 406 407
f 395 396 408
f 395 408 407
f 415 396 395
f 416 407 408
f 396 397 409
f 396 409 408
f 415 397 396
f 416 408 409
f 397 398 410
f 397 410 409
f 415 398 397
f 416 409 410
f 398 399 411
f 398 411 410
f 415 399 398
f 416 410 411
f 399 400 412
f 399 412 411
f 415 400 399
f 416 411 412
f 400 401 413
f 400 413 412
f 415 401 400
f 416 412 413
f 401 402 414
f 401 414 413
f 415 402 401
f 416 413 414
f 402 391 403
f 402 403 414
f 415 391 402
f 416 414 403
f 417 418 430
f 417 430 429
f 441 418 417
f 442 429 430
f 418 419 431
f 418 431 430
f 441 419 418
f 442 430 431
f 419 420 432
f 419 432 431
f 441 420 419
f 442 431 432
f 420 421 433
f 420 433 432
f 441 421 420
f 442 432 433
f 421 422 434
f 421 434 433
f 441 422 421
f 442 433 434
f 422 423 435
f 422 435 434
f 441 423 422
f 442 434 435
f 423 424 436
f 423 436 435
f 441 424 423
f 442 435 436
f 424 425 437
f 424 437 436
f 441 425 424
f 442 436 437
f 425 426 438
f 425 438 437
f 441 426 425
f 442 437 438
f 426 427 439
f 426 439 438
f 441 427 426
f 442 438 439
f 427 428 440
f 427 440 439
f 441 428 427
f 442 439 440
f 428 417 429
f 428 429 440
f 441 417 428
f 442 440 429
f 443 444 456
f 443 456 455
f 467 444 443
f 468 455 456
f 444 445 457
f 444 457 456
f 467 445 444
f 468 456 457
f 445 446 458
f 445 458 457
f 467 446 445
f 468 457 458
f 446 447 459
f 446 459 458
f 467 447 446
f 468 458 459
f 447 448 460
f 447 460 459
f 467 448 447
f 468 459 460
f 448 449 461
f 448 461 460
f 467 449 448
f 468 460 461
f 449 450 462
f 449 462 461
f 467 450 449
f 468 461 462
f 450 451 463
f 450 463 462
f 467 451 450
f 468 462 463
f 451 452 464
f 451 464 463
f 467 452 451
f 468 463 464
f 452 453 465
f 452 465 464
f 467 453 452
f 468 464 465
f 453 454 466
f 453 466 465
f 467 454 453
f 468 465 466
f 454 443 455
f 454 455 466
f 467 443 454
f 468 466 455
f 469 470 482
f 469 482 481
f 493 470 469
f 494 481 482
f 470 471 483
f 470 483 482
f 493 471 470
f 494 482 483
f 471 472 484
f 471 484 483
f 493 472 471
f 494 483 484
f 472 473 485
f 472 485 484
f 493 473 472
f 494 484 485
f 473 474 486
f 473 486 485
f 493 474 473
f 494 485 486
f 474 475 487
f 474 487 486
f 493 475 474
f 494 486 487
f 475 476 488
f 475 488 487
f 493 476 475
f 494 487 488
f 476 477 489
f 476 489 488
f 493 477 476
f 494 488 489
f 477 478 490
f 477 490 489
f 493 478 477
f 494 489 490
f 478 479 491
f 478 491 490
f 493 479 478
f 494 490 491
f 479 480 492
f 479 492 491
f 493 480 479
f 494 491 492
f 480 469 481
f 480 481 492
f 493 469 480
f 494 492 481
f 495 496 508
f 495 508 507
f 519 496 495
f 520 507 508
f 496 497 509
f 496 509 508
f 519 497 496
f 520 508 509
f 497 498 510
f 497 510 509
f 519 498 497
f 520 509 510
f 498 499 511
f 498 511 510
f 519 499 498
f 520 510 511
f 499 500 512
f 499 512 511
f 519 500 499
f 520 511 512
f 500 501 513
f 500 513 512
f 519 501 500
f 520 512 513
f 501 502 514
f 501 514 513
f 519 502 501
f 520 513 514
f 502 503 515
f 502 515 514
f 519 503 502
f 520 514 515
f 503 504 516
f 503 516 515
f 519 504 503
f 520 515 516
f 504 505 517
f 504 517 516
f 519 505 504
f 520 516 517
f 505 506 518
f 505 518 517
f 519 506 505
f 520 517 518
f 506 495 507
f 506 507 518
f 519 495 506
f 520 518 507
f 521 522 534
f 521 534 533
f 545 522 521
f 546 533 534
f 522 523 535
f 522 535 534
f 545 523 522
f 546 534 535
f 523 524 536
f 523 536 535
f 545 524 523
f 546 535 536
f 524 525 537
f 524 537 536
f 545 525 524
f 546 536 537
f 525 526 538
f 525 538 537
f 545 526 525
f 546 537 538
f 526 527 539
f 526 539 538
f 545 527 526
f 546 538 539
f 527 528 540
f 527 540 539
f 545 528 527
f 546 539 540
f 528 529 541
f 528 541 540
f 545 529 528
f 546 540 541
f 529 530 542
f 529 542 541
f 545 530 529
f 546 541 542
f 530 531 543
f 530 543 542
f 545 531 530
f 546 542 543
f 531 532 544
f 531 544 543
f 545 532 531
f 546 543 544
f 532 521 533
f 532 533 544
f 545 521 532
f 546 544 533
f 547 548 560
f 547 560 559
f 571 548 547
f 572 559 560
f 548 549 561
f 548 561 560
f 571 549 548
f 572 560 561
f 549 550 562
f 549 562 561
f 571 550 549
f 572 561 562
f 550 551 563
f 550 563 562
f 571 551 550
f 572 562 563
f 551 552 564
f 551 564 563
f 571 552 551
f 572 563 564
f 552 553 565
f 552 565 564
f 571 553 552
f 572 564 565
f 553 554 566
f 553 566 565
f 571 554 553
f 572 565 566
f 554 555 567
f 554 567 566
f 571 555 554
f 572 566 567
f 555 556 568
f 555 568 567
f 571 556 555
f 572 567 568
f 556 557 569
f 556 569 568
f 571 557 556
f 572 568 569
f 557 558 570
f 557 570 569
f 571 558 557
f 572 569 570
f 558 547 559
f 558 559 570
f 571 547 558
f 572 570 559
f 573 574 586
f 573 586 585
f 597 574 573
f 598 585 586
f 574 575 587
f 574 587 586
f 597 575 574
f 598 586 587
f 575 576 588
f 575 588 587
f 597 576 575
f 598 587 588
f 576 577 589
f 576 589 588
f 597 577 576
f 598 588 589
f 577 578 590
f 577 590 589
f 597 578 577
f 598 589 590
f 578 579 591
f 578 591 590
f 597 579 578
f 598 590 591
f 579 580 592
f 579 592 591
f 597 580 579
f 598 591 592
f 580 581 593
f 580 593 592
f 597 581 580
f 598 592 593
f 581 582 594
f 581 594 593
f 597 582 581
f 598 593 594
f 582 583 595
f 582 595 594
f 597 583 582
f 598 594 595
f 583 584 596
f 583 596 595
f 597 584 583
f 598 595 596
f 584 573 585
f 584 585 596
f 597 573 584
f 598 596 585
f 599 600 612
f 599 612 611
f 623 600 599
f 624 611 612
f 600 601 613
f 600 613 612
f 623 601 600
f 624 612 613
f 601 602 614
f 601 614 613
f 623 602 601
f 624 613 614
f 602 603 615
f 602 615 614
f 623 603 602
f 624 614 615
f 603 604 616
f 603 616 615
f 623 604 603
f 624 615 616
f 604 605 617
f 604 617 616
f 623 605 604
f 624 616 617
f 605 606 618
f 605 618 617
f 623 606 605
f 624 617 618
f 606 607 619
f 606 619 618
f 623 607 606
f 624 618 619
f 607 608 620
f 607 620 619
f 623 608 607
f 624 619 620
f 608 609 621
f 608 621 620
f 623 609 608
f 624 620 621
f 609 610 622
f 609 622 621
f 623 610 609
f 624 621 622
f 610 599 611
f 610 611 622
f 623 599 610
f 624 622 611
f 625 626 638
f 625 638 637
f 649 626 625
f 650 637 638
f 626 627 639
f 626 639 638
f 649 627 626
f 650 638 639
f 627 628 640
f 627 640 639
f 649 628 627
f 650 639 640
f 628 629 641
f 628 641 640
f 649 629 628
f 650 640 641
f 629 630 642
f 629 642 641
f 649 630 629
f 650 641 642
f 630 631 643
f 630 643 642
f 649 631 630
f 650 642 643
f 631 632 644
f 631 644 643
f 649 632 631
f 650 643 644
f 632 633 645
f 632 645 644
f 649 633 632
f 650 644 645
f 633 634 646
f 633 646 645
f 649 634 633
f 650 645 646
f 634 635 647
f 634 647 646
f 649 635 634
f 650 646 647
f 635 636 648
f 635 648 647
f 649 636 635
f 650 647 648
f 636 625 637
f 636 637 648
f 649 625 636
f 650 648 637
f 651 652 664
f 651 664 663
f 675 652 651
f 676 663 664
f 652 653 665
f 652 665 664
f 675 653 652
f 676 664 665
f 653 654 666
f 653 666 665
f 675 654 653
f 676 665 666
f 654 655 667
f 654 667 666
f 675 655 654
f 676 666 667
f 655 656 668
f 655 668 667
f 675 656 655
f 676 667 668
f 656 657 669
f 656 669 668
f 675 657 656
f 676 668 669
f 657 658 670
f 657 670 669
f 675 658 657
f 676 669 670
f 658 659 671
f 658 671 670
f 675 659 658
f 676 670 671
f 659 660 672
f 659 672 671
f 675 660 659
f 676 671 672
f 660 661 673
f 660 673 672
f 675 661 660
f 676 672 673
f 661 662 674
f 661 674 673
f 675 662 661
f 676 673 674
f 662 651 663
f 662 663 674
f 675 651 662
f 676 674 663
f 677 678 690
f 677 690 689
f 701 678 677
f 702 689 690
f 678 679 691
f 678 691 690
f 701 679 678
f 702 690 691
f 679 680 692
f 679 692 691
f 701 680 679
f 702 691 692
f 680 681 693
f 680 693 692
f 701 681 680
f 702 692 693
f 681 682 694
f 681 694 693
f 701 682 681
f 702 693 694
f 682 683 695
f 682 695 694
f 701 683 682
f 702 694 695
f 683 684 696
f 683 696 695
f 701 684 683
f 702 695 696
f 684 685 697
f 684 697 696
f 701 685 684
f 702 696 697
f 685 686 698
f 685 698 697
f 701 686 685
f 702 697 698
f 686 687 699
f 686 699 698
f 701 687 686
f 702 698 699
f 687 688 700
f 687 700 699
f 701 688 687
f 702 699 700
f 688 677 689
f 688 689 700
f 701 677 688
f 702 700 689
f 703 704 716
f 703 716 715
f 727 704 703
f 728 715 716
f 704 705 717
f 704 717 716
f 727 705 704
f 728 716 717
f 705 706 718
f 705 718 717
f 727 706 705
f 728 717 718
f 706 707 719
f 706 719 718
f 727 707 706
f 728 718 719
f 707 708 720
f 707 720 719
f 727 708 707
f 728 719 720
f 708 709 721
f 708 721 720
f 727 709 708
f 728 720 721
f 709 710 722
f 709 722 721
f 727 710 709
f 728 721 722
f 710 711 723
f 710 723 722
f 727 711 710
f 728 722 723
f 711 712 724
f 711 724 723
f 727 712 711
f 728 723 724
f 712 713 725
f 712 725 724
f 727 713 712
f 728 724 725
f 713 714 726
f 713 726 725
f 727 714 713
f 728 725 726
f 714 703 715
f 714 715 726
f 727 703 714
f 728 726 715
f 729 730 742
f 729 742 741
f 753 730 729
f 754 741 742
f 730 731 743
f 730 743 742
f 753 731 730
f 754 742 743
f 731 732 744
f 731 744 743
f 753 732 731
f 754 743 744
f 732 733 745
f 732 745 744
f 753 733 732
f 754 744 745
f 733 734 746
f 733 746 745
f 753 734 733
f 754 745 746
f 734 735 747
f 734 747 746
f 753 735 734
f 754 746 747
f 735 736 748
f 735 748 747
f 753 736 735
f 754 747 748
f 736 737 749
f 736 749 748
f 753 737 736
f 754 748 749
f 737 738 750
f 737 750 749
f 753 738 737
f 754 749 750
f 738 739 751
f 738 751 750
f 753 739 738
f 754 750 751
f 739 740 752
f 739 752 751
f 753 740 739
f 754 751 752
f 740 729 741
f 740 741 752
f 753 729 740
f 754 752 741
f 755 756 768
f 755 768 767
f 779 756 755
f 780 767 768
f 756 757 769
f 756 769 768
f 779 757 756
f 780 768 769
f 757 758 770
f 757 770 769
f 779 758 757
f 780 769 770
f 758 759 771
f 758 771 770
f 779 759 758
f 780 770 771
f 759 760 772
f 759 772 771
f 779 760 759
f 780 771 772
f 760 761 773
f 760 773 772
f 779 761 760
f 780 772 773
f 761 762 774
f 761 774 773
f 779 762 761
f 780 773 774
f 762 763 775
f 762 775 774
f 779 763 762
f 780 774 775
f 763 764 776
f 763 776 775
f 779 764 763
f 780 775 776
f 764 765 777
f 764 777 776
f 779 765 764
f 780 776 777
f 765 766 778
f 765 778 777
f 779 766 765
f 780 777 778
f 766 755 767
f 766 767 778
f 779 755 766
f 780 778 767
f 781 782 794
f 781 794 793
f 805 782 781
f 806 793 794
f 782 783 795
f 782 795 794
f 805 783 782
f 806 794 795
f 783 784 796
f 783 796 795
f 805 784 783
f 806 795 796
f 784 785 797
f 784 797 796
f 805 785 784
f 806 796 797
f 785 786 798
f 785 798 797
f 805 786 785
f 806 797 798
f 786 787 799
f 786 799 798
f 805 787 786
f 806 798 799
f 787 788 800
f 787 800 799
f 805 788 787
f 806 799 800
f 788 789 801
f 788 801 800
f 805 789 788
f 806 800 801
f 789 790 802
f 789 802 801
f 805 790 789
f 806 801 802
f 790 791 803
f 790 803 802
f 805 791 790
f 806 802 803
f 791 792 804
f 791 804 803
f 805 792 791
f 806 803 804
f 792 781 793
f 792 793 804
f 805 781 792
f 806 804 793
f 807 808 820
f 807 820 819
f 831 808 807
f 832 819 820
f 808 809 821
f 808 821 820
f 831 809 808
f 832 820 821
f 809 810 822
f 809 822 821
f 831 810 809
f 832 821 822
f 810 811 823
f 810 823 822
f 831 811 810
f 832 822 823
f 811 812 824
f 811 824 823
f 831 812 811
f 832 823 824
f 812 813 825
f 812 825 824
f 831 813 812
f 832 824 825
f 813 814 826
f 813 826 825
f 831 814 813
f 832 825 826
f 814 815 827
f 814 827 826
f 831 815 814
f 832 826 827
f 815 816 828
f 815 828 827
f 831 816 815
f 832 827 828
f 816 817 829
f 816 829 828
f 831 817 816
f 832 828 829
f 817 818 830
f 817 830 829
f 831 818 817
f 832 829 830
f 818 807 819
f 818 819 830
f 831 807 818
f 832 830 819
f 833 834 846
f 833 846 845
f 857 834 833
f 858 845 846
f 834 835 847
f 834 847 846
f 857 835 834
f 858 846 847
f 835 836 848
f 835 848 847
f 857 836 835
f 858 847 848
f 836 837 849
f 836 849 848
f 857 837 836
f 858 848 849
f 837 838 850
f 837 850 849
f 857 838 837
f 858 849 850
f 838 839 851
f 838 851 850
f 857 839 838
f 858 850 851
f 839 840 852
f 839 852 851
f 857 840 839
f 858 851 852
f 840 841 853
f 840 853 852
f 857 841 840
f 858 852 853
f 841 842 854
f 841 854 853
f 857 842 841
f 858 853 854
f 842 843 855
f 842 855 854
f 857 843 842
f 858 854 855
f 843 844 856
f 843 856 855
f 857 844 843
f 858 855 856
f 844 833 845
f 844 845 856
f 857 833 844
f 858 856 845
f 859 860 872
f 859 872 871
f 883 860 859
f 884 871 872
f 860 861 873
f 860 873 872
f 883 861 860
f 884 872 873
f 861 862 874
f 861 874 873
f 883 862 861
f 884 873 874
f 862 863 875
f 862 875 874
f 883 863 862
f 884 874 875
f 863 864 876
f 863 876 875
f 883 864 863
f 884 875 876
f 864 865 877
f 864 877 876
f 883 865 864
f 884 876 877
f 865 866 878
f 865 878 877
f 883 866 865
f 884 877 878
f 866 867 879
f 866 879 878
f 883 867 866
f 884 878 879
f 867 868 880
f 867 880 879
f 883 868 867
f 884 879 880
f 868 869 881
f 868 881 880
f 883 869 868
f 884 880 881
f 869 870 882
f 869 882 881
f 883 870 869
f 884 881 882
f 870 859 871
f 870 871 882
f 883 859 870
f 884 882 871
f 885 886 898
f 885 898 897
f 909 886 885
f 910 897 898
f 886 887 899
f 886 899 898
f 909 887 886
f 910 898 899
f 887 888 900
f 887 900 899
f 909 888 887
f 910 899 900
f 888 889 901
f 888 901 900
f 909 889 888
f 910 900 901
f 889 890 902
f 889 902 901
f 909 890 889
f 910 901 902
f 890 891 903
f 890 903 902
f 909 891 890
f 910 902 903
f 891 892 904
f 891 904 903
f 909 892 891
f 910 903 904
f 892 893 905
f 892 905 904
f 909 893 892
f 910 904 905
f 893 894 906
f 893 906 905
f 909 894 893
f 910 905 906
f 894 895 907
f 894 907 906
f 909 895 894
f 910 906 907
f 895 896 908
f 895 908 907
f 909 896 895
f 910 907 908
f 896 885 897
f 896 897 908
f 909 885 896
f 910 908 897
f 911 912 924
f 911 924 923
f 935 912 911
f 936 923 924
f 912 913 925
f 912 925 924
f 935 913 912
f 936 924 925
f 913 914 926
f 913 926 925
f 935 914 913
f 936 925 926
f 914 915 927
f 914 927 926
f 935 915 914
f 936 926 927
f 915 916 928
f 915 928 927
f 935 916 915
f 936 927 928
f 916 917 929
f 916 929 928
f 935 917 916
f 936 928 929
f 917 918 930
f 917 930 929
f 935 918 917
f 936 929 930
f 918 919 931
f 918 931 930
f 935 919 918
f 936 930 931
f 919 920 932
f 919 932 931
f 935 920 919
f 936 931 932
f 920 921 933
f 920 933 932
f 935 921 920
f 936 932 933
f 921 922 934
f 921 934 933
f 935 922 921
f 936 933 934
f 922 911 923
f 922 923 934
f 935 911 922
f 936 934 923
f 937 938 950
f 937 950 949
f 961 938 937
f 962 949 950
f 938 939 951
f 938 951 950
f 961 939 938
f 962 950 951
f 939 940 952
f 939 952 951
f 961 940 939
f 962 951 952
f 940 941 953
f 940 953 952
f 961 941 940
f 962 952 953
f 941 942 954
f 941 954 953
f 961 942 941
f 962 953 954
f 942 943 955
f 942 955 954
f 961 943 942
f 962 954 955
f 943 944 956
f 943 956 955
f 961 944 943
f 962 955 956
f 944 945 957
f 944 957 956
f 961 945 944
f 962 956 957
f 945 946 958
f 945 958 957
f 961 946 945
f 962 957 958
f 946 947 959
f 946 959 958
f 961 947 946
f 962 958 959
f 947 948 960
f 947 960 959
f 961 948 947
f 962 959 960
f 948 937 949
f 948 949 960
f 961 937 948
f 962 960 949
f 963 964 976
f 963 976 975
f 987 964 963
f 988 975 976
f 964 965 977
f 964 977 976
f 987 965 964
f 988 976 977
f 965 966 978
f 965 978 977
f 987 966 965
f 988 977 978
f 966 967 979
f 966 979 978
f 987 967 966
f 988 978 979
f 967 968 980
f 967 980 979
f 987 968 967
f 988 979 980
f 968 969 981
f 968 981 980
f 987 969 968
f 988 980 981
f 969 970 982
f 969 982 981
f 987 970 969
f 988 981 982
f 970 971 983
f 970 983 982
f 987 971 970
f 988 982 983
f 971 972 984
f 971 984 983
f 987 972 971
f 988 983 984
f 972 973 985
f 972 985 984
f 987 973 972
f 988 984 985
f 973 974 986
f 973 986 985
f 987 974 973
f 988 985 986
f 974 963 975
f 974 975 986
f 987 963 974
f 988 986 975
f 989 990 1002
f 989 1002 1001
f 1013 990 989
f 1014 1001 1002
f 990 991 1003
f 990 1003 1002
f 1013 991 990
f 1014 1002 1003
f 991 992 1004
f 991 1004 1003
f 1013 992 991
f 1014 1003 1004
f 992 993 1005
f 992 1005 1004
f 1013 993 992
f 1014 1004 1005
f 993 994 1006
f 993 1006 1005
f 1013 994 993
f 1014 1005 1006
f 994 995 1007
f 994 1007 1006
f 1013 995 994
f 1014 1006 1007
f 995 996 1008
f 995 1008 1007
f 1013 996 995
f 1014 1007 1008
f 996 997 1009
f 996 1009 1008
f 1013 997 996
f 1014 1008 1009
f 997 998 1010
f 997 1010 1009
f 1013 998 997
f 1014 1009 1010
f 998 999 1011
f 998 1011 1010
f 1013 999 998
f 1014 1010 1011
f 999 1000 1012
f 999 1012 1011
f 1013 1000 999
f 1014 1011 1012
f 1000 989 1001
f 1000 1001 1012
f 1013 989 1000
f 1014 1012 1001
f 1015 1016 1028
f 1015 1028 1027
f 1039 1016 1015
f 1040 1027 1028
f 1016 1017 1029
f 1016 1029 1028
f 1039 1017 1016
f 1040 1028 1029
f 1017 1018 1030
f 1017 1030 1029
f 1039 1018 1017
f 1040 1029 1030
f 1018 1019 1031
f 1018 1031 1030
f 1039 1019 1018
f 1040 1030 1031
f 1019 1020 1032
f 1019 1032 1031
f 1039 1020 1019
f 1040 1031 1032
f 1020 1021 1033
f 1020 1033 1032
f 1039 1021 1020
f 1040 1032 1033
f 1021 1022 1034
f 1021 1034 1033
f 1039 1022 1021
f 1040 1033 1034
f 1022 1023 1035
f 1022 1035 1034
f 1039 1023 1022
f 1040 1034 1035
f 1023 1024 1036
f 1023 1036 1035
f 1039 1024 1023
f 1040 1035 1036
f 1024 1025 1037
f 1024 1037 1036
f 1039 1025 1024
f 1040 1036 1037
f 1025 1026 1038
f 1025 1038 1037
f 1039 1026 1025
f 1040 1037 1038
f 1026 1015 1027
f 1026 1027 1038
f 1039 1015 1026
f 1040 1038 1027
f 1041 1042 1054
f 1041 1054 1053
f 1065 1042 1041
f 1066 1053 1054
f 1042 1043 1055
f 1042 1055 1054
f 1065 1043 1042
f 1066 1054 1055
f 1043 1044 1056
f 1043 1056 1055
f 1065 1044 1043
f 1066 1055 1056
f 1044 1045 1057
f 1044 1057 1056
f 1065 1045 1044
f 1066 1056 1057
f 1045 1046 1058
f 1045 1058 1057
f 1065 1046 1045
f 1066 1057 1058
f 1046 1047 1059
f 1046 1059 1058
f 1065 1047 1046
f 1066 1058 1059
f 1047 1048 1060
f 1047 1060 1059
f 1065 1048 1047
f 1066 1059 1060
f 1048 1049 1061
f 1048 1061 1060
f 1065 1049 1048
f 1066 1060 1061
f 1049 1050 1062
f 1049 1062 1061
f 1065 1050 1049
f 1066 1061 1062
f 1050 1051 1063
f 1050 1063 1062
f 1065 1051 1050
f 1066 1062 1063
f 1051 1052 1064
f 1051 1064 1063
f 1065 1052 1051
f 1066 1063 1064
f 1052 1041 1053
f 1052 1053 1064
f 1065 1041 1052
f 1066 1064 1053
f 1067 1068 1080
f 1067 1080 1079
f 1091 1068 1067
f 1092 1079 1080
f 1068 1069 1081
f 1068 1081 1080
f 1091 1069 1068
f 1092 1080 1081
f 1069 1070 1082
f 1069 1082 1081
f 1091 1070 1069
f 1092 1081 1082
f 1070 1071 1083
f 1070 1083 1082
f 1091 1071 1070
f 1092 1082 1083
f 1071 1072 1084
f 1071 1084 1083
f 1091 1072 1071
f 1092 1083 1084
f 1072 1073 1085
f 1072 1085 1084
f 1091 1073 1072
f 1092 1084 1085
f 1073 1074 1086
f 1073 1086 1085
f 1091 1074 1073
f 1092 1085 1086
f 1074 1075 1087
f 1074 1087 1086
f 1091 1075 1074
f 1092 1086 1087
f 1075 1076 1088
f 1075 1088 1087
f 1091 1076 1075
f 1092 1087 1088
f 1076 1077 1089
f 1076 1089 1088
f 1091 1077 1076
f 1092 1088 1089
f 1077 1078 1090
f 1077 1090 1089
f 1091 1078 1077
f 1092 1089 1090
f 1078 1067 1079
f 1078 1079 1090
f 1091 1067 1078
f 1092 1090 1079
f 1093 1094 1106
f 1093 1106 1105
f 1117 1094 1093
f 1118 1105 1106
f 1094 1095 1107
f 1094 1107 1106
f 1117 1095 1094
f 1118 1106 1107
f 1095 1096 1108
f 1095 1108 1107
f 1117 1096 1095
f 1118 1107 1108
f 1096 1097 1109
f 1096 1109 1108
f 1117 1097 1096
f 1118 1108 1109
f 1097 1098 1110
f 1097 1110 1109
f 1117 1098 1097
f 1118 1109 1110
f 1098 1099 1111
f 1098 1111 1110
f 1117 1099 1098
f 1118 1110 1111
f 1099 1100 1112
f 1099 1112 1111
f 1117 1100 1099
f 1118 1111 1112
f 1100 1101 1113
f 1100 1113 1112
f 1117 1101 1100
f 1118 1112 1113
f 1101 1102 1114
f 1101 1114 1113
f 1117 1102 1101
f 1118 1113 1114
f 1102 1103 1115
f 1102 1115 1114
f 1117 1103 1102
f 1118 1114 1115
f 1103 1104 1116
f 1103 1116 1115
f 1117 1104 1103
f 1118 1115 1116
f 1104 1093 1105
f 1104 1105 1116
f 1117 1093 1104
f 1118 1116 1105
f 1119 1120 1132
f 1119 1132 1131
f 1143 1120 1119
f 1144 1131 1132
f 1120 1121 1133
f 1120 1133 1132
f 1143 1121 1120
f 1144 1132 1133
f 1121 1122 1134
f 1121 1134 1133
f 1143 1122 1121
f 1144 1133 1134
f 1122 1123 1135
f 1122 1135 1134
f 1143 1123 1122
f 1144 1134 1135
f 1123 1124 1136
f 1123 1136 1135
f 1143 1124 1123
f 1144 1135 1136
f 1124 1125 1137
f 1124 1137 1136
f 1143 1125 1124
f 1144 1136 1137
f 1125 1126 1138
f 1125 1138 1137
f 1143 1126 1125
f 1144 1137 1138
f 1126 1127 1139
f 1126 1139 1138
f 1143 1127 1126
f 1144 1138 1139
f 1127 1128 1140
f 1127 1140 1139
f 1143 1128 1127
f 1144 1139 1140
f 1128 1129 1141
f 1128 1141 1140
f 1143 1129 1128
f 1144 1140 1141
f 1129 1130 1142
f 1129 1142 1141
f 1143 1130 1129
f 1144 1141 1142
f 1130 1119 1131
f 1130 1131 1142
f 1143 1119 1130
f 1144 1142 1131
f 1145 1146 1158
f 1145 1158 1157
f 1169 1146 1145
f 1170 1157 1158
f 1146 1147 1159
f 1146 1159 1158
f 1169 1147 1146
f 1170 1158 1159
f 1147 1148 1160
f 1147 1160 1159
f 1169 1148 1147
f 1170 1159 1160
f 1148 1149 1161
f 1148 1161 1160
f 1169 1149 1148
f 1170 1160 1161
f 1149 1150 1162
f 1149 1162 1161
f 1169 1150 1149
f 1170 1161 1162
f 1150 1151 1163
f 1150 1163 1162
f 1169 1151 1150
f 1170 1162 1163
f 1151 1152 1164
f 1151 1164 1163
f 1169 1152 1151
f 1170 1163 1164
f 1152 1153 1165
f 1152 1165 1164
f 1169 1153 1152
f 1170 1164 1165
f 1153 1154 1166
f 1153 1166 1165
f 1169 1154 1153
f 1170 1165 1166
f 1154 1155 1167
f 1154 1167 1166
f 1169 1155 1154
f 1170 1166 1167
f 1155 1156 1168
f 1155 1168 1167
f 1169 1156 1155
f 1170 1167 1168
f 1156 1145 1157
f 1156 1157 1168
f 1169 1145 1156
f 1170 1168 1157
f 1171 1172 1184
f 1171 1184 1183
f 1195 1172 1171
f 1196 1183 1184
f 1172 1173 1185
f 1172 1185 1184
f 1195 1173 1172
f 1196 1184 1185
f 1173 1174 1186
f 1173 1186 1185
f 1195 1174 1173
f 1196 1185 1186
f 1174 1175 1187
f 1174 1187 1186
f 1195 1175 1174
f 1196 1186 1187
f 1175 1176 1188
f 1175 1188 1187
f 1195 1176 1175
f 1196 1187 1188
f 1176 1177 1189
f 1176 1189 1188
f 1195 1177 1176
f 1196 1188 1189
f 1177 1178 1190
f 1177 1190 1189
f 1195 1178 1177
f 1196 1189 1190
f 1178 1179 1191
f 1178 1191 1190
f 1195 1179 1178
f 1196 1190 1191
f 1179 1180 1192
f 1179 1192 1191
f 1195 1180 1179
f 1196 1191 1192
f 1180 1181 1193
f 1180 1193 1192
f 1195 1181 1180
f 1196 1192 1193
f 1181 1182 1194
f 1181 1194 1193
f 1195 1182 1181
f 1196 1193 1194
f 1182 1171 1183
f 1182 1183 1194
f 1195 1171 1182
f 1196 1194 1183
f 1197 1198 1210
f 1197 1210 1209
f 1221 1198 1197
f 1222 1209 1210
f 1198 1199 1211
f 1198 1211 1210
f 1221 1199 1198
f 1222 1210 1211
f 1199 1200 1212
f 1199 1212 1211
f 1221 1200 1199
f 1222 1211 1212
f 1200 1201 1213
f 1200 1213 1212
f 1221 1201 1200
f 1222 1212 1213
f 1201 1202 1214
f 1201 1214 1213
f 1221 1202 1201
f 1222 1213 1214
f 1202 1203 1215
f 1202 1215 1214
f 1221 1203 1202
f 1222 1214 1215
f 1203 1204 1216
f 1203 1216 1215
f 1221 1204 1203
f 1222 1215 1216
f 1204 1205 1217
f 1204 1217 1216
f 1221 1205 1204
f 1222 1216 1217
f 1205 1206 1218
f 1205 1218 1217
f 1221 1206 1205
f 1222 1217 1218
f 1206 1207 1219
f 1206 1219 1218
f 1221 1207 1206
f 1222 1218 1219
f 1207 1208 1220
f 1207 1220 1219
f 1221 1208 1207
f 1222 1219 1220
f 1208 1197 1209
f 1208 1209 1220
f 1221 1197 1208
f 1222 1220 1209
f 1223 1224 1236
f 1223 1236 1235
f 1247 1224 1223
f 1248 1235 1236
f 1224 1225 1237
f 1224 1237 1236
f 1247 1225 1224
f 1248 1236 1237
f 1225 1226 1238
f 1225 1238 1237
f 1247 1226 1225
f 1248 1237 1238
f 1226 1227 1239
f 1226 1239 1238
f 1247 1227 1226
f 1248 1238 1239
f 1227 1228 1240
f 1227 1240 1239
f 1247 1228 1227
f 1248 1239 1240
f 1228 1229 1241
f 1228 1241 1240
f 1247 1229 1228
f 1248 1240 1241
f 1229 1230 1242
f 1229 1242 1241
f 1247 1230 1229
f 1248 1241 1242
f 1230 1231 1243
f 1230 1243 1242
f 1247 1231 1230
f 1248 1242 1243
f 1231 1232 1244
f 1231 1244 1243
f 1247 1232 1231
f 1248 1243 1244
f 1232 1233 1245
f 1232 1245 1244
f 1247 1233 1232
f 1248 1244 1245
f 1233 1234 1246
f 1233 1246 1245
f 1247 1234 1233
f 1248 1245 1246
f 1234 1223 1235
f 1234 1235 1246
f 1247 1223 1234
f 1248 1246 1235
f 1249 1250 1262
f 1249 1262 1261
f 1273 1250 1249
f 1274 1261 1262
f 1250 1251 1263
f 1250 1263 1262
f 1273 1251 1250
f 1274 1262 1263
f 1251 1252 1264
f 1251 1264 1263
f 1273 1252 1251
f 1274 1263 1264
f 1252 1253 1265
f 1252 1265 1264
f 1273 1253 1252
f 1274 1264 1265
f 1253 1254 1266
f 1253 1266 1265
f 1273 1254 1253
f 1274 1265 1266
f 1254 1255 1267
f 1254 1267 1266
f 1273 1255 1254
f 1274 1266 1267
f 1255 1256 1268
f 1255 1268 1267
f 1273 1256 1255
f 1274 1267 1268
f 1256 1257 1269
f 1256 1269 1268
f 1273 1257 1256
f 1274 1268 1269
f 1257 1258 1270
f 1257 1270 1269
f 1273 1258 1257
f 1274 1269 1270
f 1258 1259 1271
f 1258 1271 1270
f 1273 1259 1258
f 1274 1270 1271
f 1259 1260 1272
f 1259 1272 1271
f 1273 1260 1259
f 1274 1271 1272
f 1260 1249 1261
f 1260 1261 1272
f 1273 1249 1260
f 1274 1272 1261
f 1275 1276 1288
f 1275 1288 1287
f 1299 1276 1275
f 1300 1287 1288
f 1276 1277 1289
f 1276 1289 1288
f 1299 1277 1276
f 1300 1288 1289
f 1277 1278 1290
f 1277 1290 1289
f 1299 1278 1277
f 1300 1289 1290
f 1278 1279 1291
f 1278 1291 1290
f 1299 1279 1278
f 1300 1290 1291
f 1279 1280 1292
f 1279 1292 1291
f 1299 1280 1279
f 1300 1291 1292
f 1280 1281 1293
f 1280 1293 1292
f 1299 1281 1280
f 1300 1292 1293
f 1281 1282 1294
f 1281 1294 1293
f 1299 1282 1281
f 1300 1293 1294
f 1282 1283 1295
f 1282 1295 1294
f 1299 1283 1282
f 1300 1294 1295
f 1283 1284 1296
f 1283 1296 1295
f 1299 1284 1283
f 1300 1295 1296
f 1284 1285 1297
f 1284 1297 1296
f 1299 1285 1284
f 1300 1296 1297
f 1285 1286 1298
f 1285 1298 1297
f 1299 1286 1285
f 1300 1297 1298
f 1286 1275 1287
f 1286 1287 1298
f 1299 1275 1286
f 1300 1298 1287
f 1301 1302 1314
f 1301 1314 1313
f 1325 1302 1301
f 1326 1313 1314
f 1302 1303 1315
f 1302 1315 1314
f 1325 1303 1302
f 1326 1314 1315
f 1303 1304 1316
f 1303 1316 1315
f 1325 1304 1303
f 1326 1315 1316
f 1304 1305 1317
f 1304 1317 1316
f 1325 1305 1304
f 1326 1316 1317
f 1305 1306 1318
f 1305 1318 1317
f 1325 1306 1305
f 1326 1317 1318
f 1306 1307 1319
f 1306 1319 1318
f 1325 1307 1306
f 1326 1318 1319
f 1307 1308 1320
f 1307 1320 1319
f 1325 1308 1307
f 1326 1319 1320
f 1308 1309 1321
f 1308 1321 1320
f 1325 1309 1308
f 1326 1320 1321
f 1309 1310 1322
f 1309 1322 1321
f 1325 1310 1309
f 1326 1321 1322
f 1310 1311 1323
f 1310 1323 1322
f 1325 1311 1310
f 1326 1322 1323
f 1311 1312 1324
f 1311 1324 1323
f 1325 1312 1311
f 1326 1323 1324
f 1312 1301 1313
f 1312 1313 1324
f 1325 1301 1312
f 1326 1324 1313
f 1327 1328 1340
f 1327 1340 1339
f 1351 1328 1327
f 1352 1339 1340
f 1328 1329 1341
f 1328 1341 1340
f 1351 1329 1328
f 1352 1340 1341
f 1329 1330 1342
f 1329 1342 1341
f 1351 1330 1329
f 1352 1341 1342
f 1330 1331 1343
f 1330 1343 1342
f 1351 1331 1330
f 1352 1342 1343
f 1331 1332 1344
f 1331 1344 1343
f 1351 1332 1331
f 1352 1343 1344
f 1332 1333 1345
f 1332 1345 1344
f 1351 1333 1332
f 1352 1344 1345
f 1333 1334 1346
f 1333 1346 1345
f 1351 1334 1333
f 1352 1345 1346
f 1334 1335 1347
f 1334 1347 1346
f 1351 1335 1334
f 1352 1346 1347
f 1335 1336 1348
f 1335 1348 1347
f 1351 1336 1335
f 1352 1347 1348
f 1336 1337 1349
f 1336 1349 1348
f 1351 1337 1336
f 1352 1348 1349
f 1337 1338 1350
f 1337 1350 1349
f 1351 1338 1337
f 1352 1349 1350
f 1338 1327 1339
f 1338 1339 1350
f 1351 1327 1338
f 1352 1350 1339
f 1353 1354 1366
f 1353 1366 1365
f 1377 1354 1353
f 1378 1365 1366
f 1354 1355 1367
f 1354 1367 1366
f 1377 1355 1354
f 1378 1366 1367
f 1355 1356 1368
f 1355 1368 1367
f 1377 1356 1355
f 1378 1367 1368
f 1356 1357 1369
f 1356 1369 1368
f 1377 1357 1356
f 1378 1368 1369
f 1357 1358 1370
f 1357 1370 1369
f 1377 1358 1357
f 1378 1369 1370
f 1358 1359 1371
f 1358 1371 1370
f 1377 1359 1358
f 1378 1370 1371
f 1359 1360 1372
f 1359 1372 1371
f 1377 1360 1359
f 1378 1371 1372
f 1360 1361 1373
f 1360 1373 1372
f 1377 1361 1360
f 1378 1372 1373
f 1361 1362 1374
f 1361 1374 1373
f 1377 1362 1361
f 1378 1373 1374
f 1362 1363 1375
f 1362 1375 1374
f 1377 1363 1362
f 1378 1374 1375
f 1363 1364 1376
f 1363 1376 1375
f 1377 1364 1363
f 1378 1375 1376
f 1364 1353 1365
f 1364 1365 1376
f 1377 1353 1364
f 1378 1376 1365
f 1379 1380 1392
f 1379 1392 1391
f 1403 1380 1379
f 1404 1391 1392
f 1380 1381 1393
f 1380 1393 1392
f 1403 1381 1380
f 1404 1392 1393
f 1381 1382 1394
f 1381 1394 1393
f 1403 1382 1381
f 1404 1393 1394
f 1382 1383 1395
f 1382 1395 1394
f 1403 1383 1382
f 1404 1394 1395
f 1383 1384 1396
f 1383 1396 1395
f 1403 1384 1383
f 1404 1395 1396
f 1384 1385 1397
f 1384 1397 1396
f 1403 1385 1384
f 1404 1396 1397
f 1385 1386 1398
f 1385 1398 1397
f 1403 1386 1385
f 1404 1397 1398
f 1386 1387 1399
f 1386 1399 1398
f 1403 1387 1386
f 1404 1398 1399
f 1387 1388 1400
f 1387 1400 1399
f 1403 1388 1387
f 1404 1399 1400
f 1388 1389 1401
f 1388 1401 1400
f 1403 1389 1388
f 1404 1400 1401
f 1389 1390 1402
f 1389 1402 1401
f 1403 1390 1389
f 1404 1401 1402
f 1390 1379 1391
f 1390 1391 1402
f 1403 1379 1390
f 1404 1402 1391
f 1405 1406 1418
f 1405 1418 1417
f 1429 1406 1405
f 1430 1417 1418
f 1406 1407 1419
f 1406 1419 1418
f 1429 1407 1406
f 1430 1418 1419
f 1407 1408 1420
f 1407 1420 1419
f 1429 1408 1407
f 1430 1419 1420
f 1408 1409 1421
f 1408 1421 1420
f 1429 1409 1408
f 1430 1420 1421
f 1409 1410 1422
f 1409 1422 1421
f 1429 1410 1409
f 1430 1421 1422
f 1410 1411 1423
f 1410 1423 1422
f 1429 1411 1410
f 1430 1422 1423
f 1411 1412 1424
f 1411 1424 1423
f 1429 1412 1411
f 1430 1423 1424
f 1412 1413 1425
f 1412 1425 1424
f 1429 1413 1412
f 1430 1424 1425
f 1413 1414 1426
f 1413 1426 1425
f 1429 1414 1413
f 1430 1425 1426
f 1414 1415 1427
f 1414 1427 1426
f 1429 1415 1414
f 1430 1426 1427
f 1415 1416 1428
f 1415 1428 1427
f 1429 1416 1415
f 1430 1427 1428
f 1416 1405 1417
f 1416 1417 1428
f 1429 1405 1416
f 1430 1428 1417
f 1431 1432 1444
f 1431 1444 1443
f 1455 1432 1431
f 1456 1443 1444
f 1432 1433 1445
f 1432 1445 1444
f 1455 1433 1432
f 1456 1444 1445
f 1433 1434 1446
f 1433 1446 1445
f 1455 1434 1433
f 1456 1445 1446
f 1434 1435 1447
f 1434 1447 1446
f 1455 1435 1434
f 1456 1446 1447
f 1435 1436 1448
f 1435 1448 1447
f 1455 1436 1435
f 1456 1447 1448
f 1436 1437 1449
f 1436 1449 1448
f 1455 1437 1436
f 1456 1448 1449
f 1437 1438 1450
f 1437 1450 1449
f 1455 1438 1437
f 1456 1449 1450
f 1438 1439 1451
f 1438 1451 1450
f 1455 1439 1438
f 1456 1450 1451
f 1439 1440 1452
f 1439 1452 1451
f 1455 1440 1439
f 1456 1451 1452
f 1440 1441 1453
f 1440 1453 1452
f 1455 1441 1440
f 1456 1452 1453
f 1441 1442 1454
f 1441 1454 1453
f 1455 1442 1441
f 1456 1453 1454
f 1442 1431 1443
f 1442 1443 1454
f 1455 1431 1442
f 1456 1454 1443
f 1457 1458 1470
f 1457 1470 1469
f 1481 1458 1457
f 1482 1469 1470
f 1458 1459 1471
f 1458 1471 1470
f 1481 1459 1458
f 1482 1470 1471
f 1459 1460 1472
f 1459 1472 1471
f 1481 1460 1459
f 1482 1471 1472
f 1460 1461 1473
f 1460 1473 1472
f 1481 1461 1460
f 1482 1472 1473
f 1461 1462 1474
f 1461 1474 1473
f 1481 1462 1461
f 1482 1473 1474
f 1462 1463 1475
f 1462 1475 1474
f 1481 1463 1462
f 1482 1474 1475
f 1463 1464 1476
f 1463 1476 1475
f 1481 1464 1463
f 1482 1475 1476
f 1464 1465 1477
f 1464 1477 1476
f 1481 1465 1464
f 1482 1476 1477
f 1465 1466 1478
f 1465 1478 1477
f 1481 1466 1465
f 1482 1477 1478
f 1466 1467 1479
f 1466 1479 1478
f 1481 1467 1466
f 1482 1478 1479
f 1467 1468 1480
f 1467 1480 1479
f 1481 1468 1467
f 1482 1479 1480
f 1468 1457 1469
f 1468 1469 1480
f 1481 1457 1468
f 1482 1480 1469
f 1483 1484 1496
f 1483 1496 1495
f 1507 1484 1483
f 1508 1495 1496
f 1484 1485 1497
f 1484 1497 1496
f 1507 1485 1484
f 1508 1496 1497
f 1485 1486 1498
f 1485 1498 1497
f 1507 1486 1485
f 1508 1497 1498
f 1486 1487 1499
f 1486 1499 1498
f 1507 1487 1486
f 1508 1498 1499
f 1487 1488 1500
f 1487 1500 1499
f 1507 1488 1487
f 1508 1499 1500
f 1488 1489 1501
f 1488 1501 1500
f 1507 1489 1488
f 1508 1500 1501
f 1489 1490 1502
f 1489 1502 1501
f 1507 1490 1489
f 1508 1501 1502
f 1490 1491 1503
f 1490 1503 1502
f 1507 1491 1490
f 1508 1502 1503
f 1491 1492 1504
f 1491 1504 1503
f 1507 1492 1491
f 1508 1503 1504
f 1492 1493 1505
f 1492 1505 1504
f 1507 1493 1492
f 1508 1504 1505
f 1493 1494 1506
f 1493 1506 1505
f 1507 1494 1493
f 1508 1505 1506
f 1494 1483 1495
f 1494 1495 1506
f 1507 1483 1494
f 1508 1506 1495
f 1517 1518 1530
f 1517 1530 1529
f 1541 1518 1517
f 1542 1529 1530
f 1518 1519 1531
f 1518 1531 1530
f 1541 1519 1518
f 1542 1530 1531
f 1519 1520 1532
f 1519 1532 1531
f 1541 1520 1519
f 1542 1531 1532
f 1520 1521 1533
f 1520 1533 1532
f 1541 1521 1520
f 1542 1532 1533
f 1521 1522 1534
f 1521 1534 1533
f 1541 1522 1521
f 1542 1533 1534
f 1522 1523 1535
f 1522 1535 1534
f 1541 1523 1522
f 1542 1534 1535
f 1523 1524 1536
f 1523 1536 1535
f 1541 1524 1523
f 1542 1535 1536
f 1524 1525 1537
f 1524 1537 1536
f 1541 1525 1524
f 1542 1536 1537
f 1525 1526 1538
f 1525 1538 1537
f 1541 1526 1525
f 1542 1537 1538
f 1526 1527 1539
f 1526 1539 1538
f 1541 1527 1526
f 1542 1538 1539
f 1527 1528 1540
f 1527 1540 1539
f 1541 1528 1527
f 1542 1539 1540
f 1528 1517 1529
f 1528 1529 1540
f 1541 1517 1528
f 1542 1540 1529
f 1543 1544 1556
f 1543 1556 1555
f 1567 1544 1543
f 1568 1555 1556
f 1544 1545 1557
f 1544 1557 1556
f 1567 1545 1544
f 1568 1556 1557
f 1545 1546 1558
f 1545 1558 1557
f 1567 1546 1545
f 1568 1557 1558
f 1546 1547 1559
f 1546 1559 1558
f 1567 1547 1546
f 1568 1558 1559
f 1547 1548 1560
f 1547 1560 1559
f 1567 1548 1547
f 1568 1559 1560
f 1548 1549 1561
f 1548 1561 1560
f 1567 1549 1548
f 1568 1560 1561
f 1549 1550 1562
f 1549 1562 1561
f 1567 1550 1549
f 1568 1561 1562
f 1550 1551 1563
f 1550 1563 1562
f 1567 1551 1550
f 1568 1562 1563
f 1551 1552 1564
f 1551 1564 1563
f 1567 1552 1551
f 1568 1563 1564
f 1552 1553 1565
f 1552 1565 1564
f 1567 1553 1552
f 1568 1564 1565
f 1553 1554 1566
f 1553 1566 1565
f 1567 1554 1553
f 1568 1565 1566
f 1554 1543 1555
f 1554 1555 1566
f 1567 1543 1554
f 1568 1566 1555
f 1569 1570 1582
f 1569 1582 1581
f 1593 1570 1569
f 1594 1581 1582
f 1570 1571 1583
f 1570 1583 1582
f 1593 1571 1570
f 1594 1582 1583
f 1571 1572 1584
f 1571 1584 1583
f 1593 1572 1571
f 1594 1583 1584
f 1572 1573 1585
f 1572 1585 1584
f 1593 1573 1572
f 1594 1584 1585
f 1573 1574 1586
f 1573 1586 1585
f 1593 1574 1573
f 1594 1585 1586
f 1574 1575 1587
f 1574 1587 1586
f 1593 1575 1574
f 1594 1586 1587
f 1575 1576 1588
f 1575 1588 1587
f 1593 1576 1575
f 1594 1587 1588
f 1576 1577 1589
f 1576 1589 1588
f 1593 1577 1576
f 1594 1588 1589
f 1577 1578 1590
f 1577 1590 1589
f 1593 1578 1577
f 1594 1589 1590
f 1578 1579 1591
f 1578 1591 1590
f 1593 1579 1578
f 1594 1590 1591
f 1579 1580 1592
f 1579 1592 1591
f 1593 1580 1579
f 1594 1591 1592
f 1580 1569 1581
f 1580 1581 1592
f 1593 1569 1580
f 1594 1592 1581
f 1595 1596 1608
f 1595 1608 1607
f 1619 1596 1595
f 1620 1607 1608
f 1596 1597 1609
f 1596 1609 1608
f 1619 1597 1596
f 1620 1608 1609
f 1597 1598 1610
f 1597 1610 1609
f 1619 1598 1597
f 1620 1609 1610
f 1598 1599 1611
f 1598 1611 1610
f 1619 1599 1598
f 1620 1610 1611
f 1599 1600 1612
f 1599 1612 1611
f 1619 1600 1599
f 1620 1611 1612
f 1600 1601 1613
f 1600 1613 1612
f 1619 1601 1600
f 1620 1612 1613
f 1601 1602 1614
f 1601 1614 1613
f 1619 1602 1601
f 1620 1613 1614
f 1602 1603 1615
f 1602 1615 1614
f 1619 1603 1602
f 1620 1614 1615
f 1603 1604 1616
f 1603 1616 1615
f 1619 1604 1603
f 1620 1615 1616
f 1604 1605 1617
f 1604 1617 1616
f 1619 1605 1604
f 1620 1616 1617
f 1605 1606 1618
f 1605 1618 1617
f 1619 1606 1605
f 1620 1617 1618
f 1606 1595 1607
f 1606 1607 1618
f 1619 1595 1606
f 1620 1618 1607
f 1621 1622 1634
f 1621 1634 1633
f 1645 1622 1621
f 1646 1633 1634
f 1622 1623 1635
f 1622 1635 1634
f 1645 1623 1622
f 1646 1634 1635
f 1623 1624 1636
f 1623 1636 1635
f 1645 1624 1623
f 1646 1635 1636
f 1624 1625 1637
f 1624 1637 1636
f 1645 1625 1624
f 1646 1636 1637
f 1625 1626 1638
f 1625 1638 1637
f 1645 1626 1625
f 1646 1637 1638
f 1626 1627 1639
f 1626 1639 1638
f 1645 1627 1626
f 1646 1638 1639
f 1627 1628 1640
f 1627 1640 1639
f 1645 1628 1627
f 1646 1639 1640
f 1628 1629 1641
f 1628 1641 1640
f 1645 1629 1628
f 1646 1640 1641
f 1629 1630 1642
f 1629 1642 1641
f 1645 1630 1629
f 1646 1641 1642
f 1630 1631 1643
f 1630 1643 1642
f 1645 1631 1630
f 1646 1642 1643
f 1631 1632 1644
f 1631 1644 1643
f 1645 1632 1631
f 1646 1643 1644
f 1632 1621 1633
f 1632 1633 1644
f 1645 1621 1632
f 1646 1644 1633
f 1647 1648 1660
f 1647 1660 1659
f 1671 1648 1647
f 1672 1659 1660
f 1648 1649 1661
f 1648 1661 1660
f 1671 1649 1648
f 1672 1660 1661
f 1649 1650 1662
f 1649 1662 1661
f 1671 1650 1649
f 1672 1661 1662
f 1650 1651 1663
f 1650 1663 1662
f 1671 1651 1650
f 1672 1662 1663
f 1651 1652 1664
f 1651 1664 1663
f 1671 1652 1651
f 1672 1663 1664
f 1652 1653 1665
f 1652 1665 1664
f 1671 1653 1652
f 1672 1664 1665
f 1653 1654 1666
f 1653 1666 1665
f 1671 1654 1653
f 1672 1665 1666
f 1654 1655 1667
f 1654 1667 1666
f 1671 1655 1654
f 1672 1666 1667
f 1655 1656 1668
f 1655 1668 1667
f 1671 1656 1655
f 1672 1667 1668
f 1656 1657 1669
f 1656 1669 1668
f 1671 1657 1656
f 1672 1668 1669
f 1657 1658 1670
f 1657 1670 1669
f 1671 1658 1657
f 1672 1669 1670
f 1658 1647 1659
f 1658 1659 1670
f 1671 1647 1658
f 1672 1670 1659
f 1673 1674 1686
f 1673 1686 1685
f 1697 1674 1673
f 1698 1685 1686
f 1674 1675 1687
f 1674 1687 1686
f 1697 1675 1674
f 1698 1686 1687
f 1675 1676 1688
f 1675 1688 1687
f 1697 1676 1675
f 1698 1687 1688
f 1676 1677 1689
f 1676 1689 1688
f 1697 1677 1676
f 1698 1688 1689
f 1677 1678 1690
f 1677 1690 1689
f 1697 1678 1677
f 1698 1689 1690
f 1678 1679 1691
f 1678 1691 1690
f 1697 1679 1678
f 1698 1690 1691
f 1679 1680 1692
f 1679 1692 1691
f 1697 1680 1679
f 1698 1691 1692
f 1680 1681 1693
f 1680 1693 1692
f 1697 1681 1680
f 1698 1692 1693
f 1681 1682 1694
f 1681 1694 1693
f 1697 1682 1681
f 1698 1693 1694
f 1682 1683 1695
f 1682 1695 1694
f 1697 1683 1682
f 1698 1694 1695
f 1683 1684 1696
f 1683 1696 1695
f 1697 1684 1683
f 1698 1695 1696
f 1684 1673 1685
f 1684 1685 1696
f 1697 1673 1684
f 1698 1696 1685
f 1699 1700 1712
f 1699 1712 1711
f 1723 1700 1699
f 1724 1711 1712
f 1700 1701 1713
f 1700 1713 1712
f 1723 1701 1700
f 1724 1712 1713
f 1701 1702 1714
f 1701 1714 1713
f 1723 1702 1701
f 1724 1713 1714
f 1702 1703 1715
f 1702 1715 1714
f 1723 1703 1702
f 1724 1714 1715
f 1703 1704 1716
f 1703 1716 1715
f 1723 1704 1703
f 1724 1715 1716
f 1704 1705 1717
f 1704 1717 1716
f 1723 1705 1704
f 1724 1716 1717
f 1705 1706 1718
f 1705 1718 1717
f 1723 1706 1705
f 1724 1717 1718
f 1706 1707 1719
f 1706 1719 1718
f 1723 1707 1706
f 1724 1718 1719
f 1707 1708 1720
f 1707 1720 1719
f 1723 1708 1707
f 1724 1719 1720
f 1708 1709 1721
f 1708 1721 1720
f 1723 1709 1708
f 1724 1720 1721
f 1709 1710 1722
f 1709 1722 1721
f 1723 1710 1709
f 1724 1721 1722
f 1710 1699 1711
f 1710 1711 1722
f 1723 1699 1710
f 1724 1722 1711
g wood
usemtl wood
f 1509 1511 1510
f 1509 1512 1511
f 1513 1514 1515
f 1513 1515 1516
f 1509 1510 1514
f 1509 1514 1513
f 1510 1511 1515
f 1510 1515 1514
f 1511 1512 1516
f 1511 1516 1515
f 1512 1509 1513
f 1512 1513 1516
f 1725 1727 1726
f 1725 1728 1727
f 1729 1730 1731
f 1729 1731 1732
f 1725 1726 1730
f 1725 1730 1729
f 1726 1727 1731
f 1726 1731 1730
f 1727 1728 1732
f 1727 1732 1731
f 1728 1725 1729
f 1728 1729 1732
f 1733 1735 1734
f 1733 1736 1735
f 1737 1738 1739
f 1737 1739 1740
f 1733 1734 1738
f 1733 1738 1737
f 1734 1735 1739
f 1734 1739 1738
f 1735 1736 1740
f 1735 1740 1739
f 1736 1733 1737
f 1736 1737 1740
f 1741 1743 1742
f 1741 1744 1743
f 1745 1746 1747
f 1745 1747 1748
f 1741 1742 1746
f 1741 1746 1745
f 1742 1743 1747
f 1742 1747 1746
f 1743 1744 1748
f 1743 1748 1747
f 1744 1741 1745
f 1744 1745 1748
f 1749 1751 1750
f 1749 1752 1751
f 1753 1754 1755
f 1753 1755 1756
f 1749 1750 1754
f 1749 1754 1753
f 1750 1751 1755
f 1750 1755 1754
f 1751 1752 1756
f 1751 1756 1755
f 1752 1749 1753
f 1752 1753 1756
