<?xml version="1.0" encoding="utf-8"?>
<COLLADA xmlns="http://www.collada.org/2005/11/COLLADASchema" version="1.4.1">
  <asset>
    <contributor><authoring_tool>obj_to_dae.py</authoring_tool></contributor>
    <unit name="meter" meter="1"/>
    <up_axis>Z_UP</up_axis>
  </asset>
  <library_effects>
    <effect id="red-fx">
      <profile_COMMON>
        <technique sid="common">
          <phong>
            <emission><color>0 0 0 1</color></emission>
            <ambient><color>0.3500 0.0500 0.1200 1.0000</color></ambient>
            <diffuse><color>0.7200 0.1000 0.2500 1.0000</color></diffuse>
            <specular><color>0.2000 0.2000 0.2000 1.0000</color></specular>
            <shininess><float>40.0</float></shininess>
            <index_of_refraction><float>1.0</float></index_of_refraction>
          </phong>
        </technique>
      </profile_COMMON>
    </effect>
  </library_effects>
  <library_materials>
    <material id="red-mat" name="red"><instance_effect url="#red-fx"/></material>
  </library_materials>
  <library_geometries>
    <geometry id="red-geo" name="red">
      <mesh>
      <source id="red-pos">
        <float_array id="red-pos-array" count="312">-0.802500 -0.675000 0.062500 -0.805510 -0.663750 0.062500 -0.813750 -0.655510 0.062500 -0.825000 -0.652500 0.062500 -0.836250 -0.655510 0.062500 -0.844490 -0.663750 0.062500 -0.847500 -0.675000 0.062500 -0.844490 -0.686250 0.062500 -0.836250 -0.694490 0.062500 -0.825000 -0.697500 0.062500 -0.813750 -0.694490 0.062500 -0.805510 -0.686250 0.062500 -0.802500 -0.675000 0.175000 -0.805510 -0.663750 0.175000 -0.813750 -0.655510 0.175000 -0.825000 -0.652500 0.175000 -0.836250 -0.655510 0.175000 -0.844490 -0.663750 0.175000 -0.847500 -0.675000 0.175000 -0.844490 -0.686250 0.175000 -0.836250 -0.694490 0.175000 -0.825000 -0.697500 0.175000 -0.813750 -0.694490 0.175000 -0.805510 -0.686250 0.175000 -0.825000 -0.675000 0.062500 -0.825000 -0.675000 0.175000 -0.802500 0.675000 0.062500 -0.805510 0.686250 0.062500 -0.813750 0.694490 0.062500 -0.825000 0.697500 0.062500 -0.836250 0.694490 0.062500 -0.844490 0.686250 0.062500 -0.847500 0.675000 0.062500 -0.844490 0.663750 0.062500 -0.836250 0.655510 0.062500 -0.825000 0.652500 0.062500 -0.813750 0.655510 0.062500 -0.805510 0.663750 0.062500 -0.802500 0.675000 0.175000 -0.805510 0.686250 0.175000 -0.813750 0.694490 0.175000 -0.825000 0.697500 0.175000 -0.836250 0.694490 0.175000 -0.844490 0.686250 0.175000 -0.847500 0.675000 0.175000 -0.844490 0.663750 0.175000 -0.836250 0.655510 0.175000 -0.825000 0.652500 0.175000 -0.813750 0.655510 0.175000 -0.805510 0.663750 0.175000 -0.825000 0.675000 0.062500 -0.825000 0.675000 0.175000 0.847500 -0.675000 0.062500 0.844490 -0.663750 0.062500 0.836250 -0.655510 0.062500 0.825000 -0.652500 0.062500 0.813750 -0.655510 0.062500 0.805510 -0.663750 0.062500 0.802500 -0.675000 0.062500 0.805510 -0.686250 0.062500 0.813750 -0.694490 0.062500 0.825000 -0.697500 0.062500 0.836250 -0.694490 0.062500 0.844490 -0.686250 0.062500 0.847500 -0.675000 0.175000 0.844490 -0.663750 0.175000 0.836250 -0.655510 0.175000 0.825000 -0.652500 0.175000 0.813750 -0.655510 0.175000 0.805510 -0.663750 0.175000 0.802500 -0.675000 0.175000 0.805510 -0.686250 0.175000 0.813750 -0.694490 0.175000 0.825000 -0.697500 0.175000 0.836250 -0.694490 0.175000 0.844490 -0.686250 0.175000 0.825000 -0.675000 0.062500 0.825000 -0.675000 0.175000 0.847500 0.675000 0.062500 0.844490 0.686250 0.062500 0.836250 0.694490 0.062500 0.825000 0.697500 0.062500 0.813750 0.694490 0.062500 0.805510 0.686250 0.062500 0.802500 0.675000 0.062500 0.805510 0.663750 0.062500 0.813750 0.655510 0.062500 0.825000 0.652500 0.062500 0.836250 0.655510 0.062500 0.844490 0.663750 0.062500 0.847500 0.675000 0.175000 0.844490 0.686250 0.175000 0.836250 0.694490 0.175000 0.825000 0.697500 0.175000 0.813750 0.694490 0.175000 0.805510 0.686250 0.175000 0.802500 0.675000 0.175000 0.805510 0.663750 0.175000 0.813750 0.655510 0.175000 0.825000 0.652500 0.175000 0.836250 0.655510 0.175000 0.844490 0.663750 0.175000 0.825000 0.675000 0.062500 0.825000 0.675000 0.175000</float_array>
        <technique_common>
          <accessor source="#red-pos-array" count="104" stride="3"><param name="X" type="float"/><param name="Y" type="float"/><param name="Z" type="float"/></accessor>
        </technique_common>
      </source>
      <source id="red-nrm">
        <float_array id="red-nrm-array" count="576">0.966021 0.258464 0.000000 0.966021 0.258464 -0.000000 0.000000 0.000000 -1.000000 0.000000 0.000000 1.000000 0.707107 0.707107 0.000000 0.707107 0.707107 -0.000000 0.000000 0.000000 -1.000000 0.000000 0.000000 1.000000 0.258464 0.966021 0.000000 0.258464 0.966021 -0.000000 0.000000 0.000000 -1.000000 0.000000 0.000000 1.000000 -0.258464 0.966021 0.000000 -0.258464 0.966021 0.000000 0.000000 0.000000 -1.000000 0.000000 -0.000000 1.000000 -0.707107 0.707107 0.000000 -0.707107 0.707107 0.000000 0.000000 0.000000 -1.000000 0.000000 0.000000 1.000000 -0.966021 0.258464 0.000000 -0.966021 0.258464 0.000000 0.000000 0.000000 -1.000000 0.000000 0.000000 1.000000 -0.966021 -0.258464 0.000000 -0.966021 -0.258464 0.000000 -0.000000 0.000000 -1.000000 0.000000 0.000000 1.000000 -0.707107 -0.707107 0.000000 -0.707107 -0.707107 0.000000 0.000000 0.000000 -1.000000 0.000000 0.000000 1.000000 -0.258464 -0.966021 0.000000 -0.258464 -0.966021 0.000000 0.000000 -0.000000 -1.000000 0.000000 0.000000 1.000000 0.258464 -0.966021 0.000000 0.258464 -0.966021 0.000000 0.000000 0.000000 -1.000000 0.000000 0.000000 1.000000 0.707107 -0.707107 0.000000 0.707107 -0.707107 0.000000 0.000000 0.000000 -1.000000 0.000000 0.000000 1.000000 0.966021 -0.258464 0.000000 0.966021 -0.258464 0.000000 0.000000 0.000000 -1.000000 -0.000000 0.000000 1.000000 0.966021 0.258464 0.000000 0.966021 0.258464 -0.000000 0.000000 0.000000 -1.000000 0.000000 0.000000 1.000000 0.707107 0.707107 0.000000 0.707107 0.707107 -0.000000 0.000000 0.000000 -1.000000 0.000000 0.000000 1.000000 0.258464 0.966021 0.000000 0.258464 0.966021 -0.000000 0.000000 0.000000 -1.000000 0.000000 0.000000 1.000000 -0.258464 0.966021 0.000000 -0.258464 0.966021 0.000000 0.000000 0.000000 -1.000000 0.000000 -0.000000 1.000000 -0.707107 0.707107 0.000000 -0.707107 0.707107 0.000000 0.000000 0.000000 -1.000000 0.000000 0.000000 1.000000 -0.966021 0.258464 0.000000 -0.966021 0.258464 0.000000 0.000000 0.000000 -1.000000 0.000000 0.000000 1.000000 -0.966021 -0.258464 0.000000 -0.966021 -0.258464 0.000000 -0.000000 0.000000 -1.000000 0.000000 0.000000 1.000000 -0.707107 -0.707107 0.000000 -0.707107 -0.707107 0.000000 0.000000 0.000000 -1.000000 0.000000 0.000000 1.000000 -0.258464 -0.966021 0.000000 -0.258464 -0.966021 0.000000 0.000000 -0.000000 -1.000000 0.000000 0.000000 1.000000 0.258464 -0.966021 0.000000 0.258464 -0.966021 0.000000 0.000000 0.000000 -1.000000 0.000000 0.000000 1.000000 0.707107 -0.707107 0.000000 0.707107 -0.707107 0.000000 0.000000 0.000000 -1.000000 0.000000 0.000000 1.000000 0.966021 -0.258464 0.000000 0.966021 -0.258464 0.000000 0.000000 0.000000 -1.000000 -0.000000 0.000000 1.000000 0.966021 0.258464 0.000000 0.966021 0.258464 -0.000000 0.000000 0.000000 -1.000000 0.000000 0.000000 1.000000 0.707107 0.707107 0.000000 0.707107 0.707107 -0.000000 0.000000 0.000000 -1.000000 0.000000 0.000000 1.000000 0.258464 0.966021 0.000000 0.258464 0.966021 -0.000000 0.000000 0.000000 -1.000000 0.000000 0.000000 1.000000 -0.258464 0.966021 0.000000 -0.258464 0.966021 0.000000 0.000000 0.000000 -1.000000 0.000000 -0.000000 1.000000 -0.707107 0.707107 0.000000 -0.707107 0.707107 0.000000 0.000000 0.000000 -1.000000 0.000000 0.000000 1.000000 -0.966021 0.258464 0.000000 -0.966021 0.258464 0.000000 0.000000 0.000000 -1.000000 0.000000 0.000000 1.000000 -0.966021 -0.258464 0.000000 -0.966021 -0.258464 0.000000 -0.000000 0.000000 -1.000000 0.000000 0.000000 1.000000 -0.707107 -0.707107 0.000000 -0.707107 -0.707107 0.000000 0.000000 0.000000 -1.000000 0.000000 0.000000 1.000000 -0.258464 -0.966021 0.000000 -0.258464 -0.966021 0.000000 0.000000 -0.000000 -1.000000 0.000000 0.000000 1.000000 0.258464 -0.966021 0.000000 0.258464 -0.966021 0.000000 0.000000 0.000000 -1.000000 0.000000 0.000000 1.000000 0.707107 -0.707107 0.000000 0.707107 -0.707107 0.000000 0.000000 0.000000 -1.000000 0.000000 0.000000 1.000000 0.966021 -0.258464 0.000000 0.966021 -0.258464 0.000000 0.000000 0.000000 -1.000000 -0.000000 0.000000 1.000000 0.966021 0.258464 0.000000 0.966021 0.258464 -0.000000 0.000000 0.000000 -1.000000 0.000000 0.000000 1.000000 0.707107 0.707107 0.000000 0.707107 0.707107 -0.000000 0.000000 0.000000 -1.000000 0.000000 0.000000 1.000000 0.258464 0.966021 0.000000 0.258464 0.966021 -0.000000 0.000000 0.000000 -1.000000 0.000000 0.000000 1.000000 -0.258464 0.966021 0.000000 -0.258464 0.966021 0.000000 0.000000 0.000000 -1.000000 0.000000 -0.000000 1.000000 -0.707107 0.707107 0.000000 -0.707107 0.707107 0.000000 0.000000 0.000000 -1.000000 0.000000 0.000000 1.000000 -0.966021 0.258464 0.000000 -0.966021 0.258464 0.000000 0.000000 0.000000 -1.000000 0.000000 0.000000 1.000000 -0.966021 -0.258464 0.000000 -0.966021 -0.258464 0.000000 -0.000000 0.000000 -1.000000 0.000000 0.000000 1.000000 -0.707107 -0.707107 0.000000 -0.707107 -0.707107 0.000000 0.000000 0.000000 -1.000000 0.000000 0.000000 1.000000 -0.258464 -0.966021 0.000000 -0.258464 -0.966021 0.000000 0.000000 -0.000000 -1.000000 0.000000 0.000000 1.000000 0.258464 -0.966021 0.000000 0.258464 -0.966021 0.000000 0.000000 0.000000 -1.000000 0.000000 0.000000 1.000000 0.707107 -0.707107 0.000000 0.707107 -0.707107 0.000000 0.000000 0.000000 -1.000000 0.000000 0.000000 1.000000 0.966021 -0.258464 0.000000 0.966021 -0.258464 0.000000 0.000000 0.000000 -1.000000 -0.000000 0.000000 1.000000</float_array>
        <technique_common>
          <accessor source="#red-nrm-array" count="192" stride="3"><param name="X" type="float"/><param name="Y" type="float"/><param name="Z" type="float"/></accessor>
        </technique_common>
      </source>
      <vertices id="red-vtx">
        <input semantic="POSITION" source="#red-pos"/>
      </vertices>
      <triangles material="red-sym" count="192">
        <input semantic="VERTEX" source="#red-vtx" offset="0"/>
        <input semantic="NORMAL" source="#red-nrm" offset="1"/>
        <p>0 0 1 0 13 0 0 1 13 1 12 1 24 2 1 2 0 2 25 3 12 3 13 3 1 4 2 4 14 4 1 5 14 5 13 5 24 6 2 6 1 6 25 7 13 7 14 7 2 8 3 8 15 8 2 9 15 9 14 9 24 10 3 10 2 10 25 11 14 11 15 11 3 12 4 12 16 12 3 13 16 13 15 13 24 14 4 14 3 14 25 15 15 15 16 15 4 16 5 16 17 16 4 17 17 17 16 17 24 18 5 18 4 18 25 19 16 19 17 19 5 20 6 20 18 20 5 21 18 21 17 21 24 22 6 22 5 22 25 23 17 23 18 23 6 24 7 24 19 24 6 25 19 25 18 25 24 26 7 26 6 26 25 27 18 27 19 27 7 28 8 28 20 28 7 29 20 29 19 29 24 30 8 30 7 30 25 31 19 31 20 31 8 32 9 32 21 32 8 33 21 33 20 33 24 34 9 34 8 34 25 35 20 35 21 35 9 36 10 36 22 36 9 37 22 37 21 37 24 38 10 38 9 38 25 39 21 39 22 39 10 40 11 40 23 40 10 41 23 41 22 41 24 42 11 42 10 42 25 43 22 43 23 43 11 44 0 44 12 44 11 45 12 45 23 45 24 46 0 46 11 46 25 47 23 47 12 47 26 48 27 48 39 48 26 49 39 49 38 49 50 50 27 50 26 50 51 51 38 51 39 51 27 52 28 52 40 52 27 53 40 53 39 53 50 54 28 54 27 54 51 55 39 55 40 55 28 56 29 56 41 56 28 57 41 57 40 57 50 58 29 58 28 58 51 59 40 59 41 59 29 60 30 60 42 60 29 61 42 61 41 61 50 62 30 62 29 62 51 63 41 63 42 63 30 64 31 64 43 64 30 65 43 65 42 65 50 66 31 66 30 66 51 67 42 67 43 67 31 68 32 68 44 68 31 69 44 69 43 69 50 70 32 70 31 70 51 71 43 71 44 71 32 72 33 72 45 72 32 73 45 73 44 73 50 74 33 74 32 74 51 75 44 75 45 75 33 76 34 76 46 76 33 77 46 77 45 77 50 78 34 78 33 78 51 79 45 79 46 79 34 80 35 80 47 80 34 81 47 81 46 81 50 82 35 82 34 82 51 83 46 83 47 83 35 84 36 84 48 84 35 85 48 85 47 85 50 86 36 86 35 86 51 87 47 87 48 87 36 88 37 88 49 88 36 89 49 89 48 89 50 90 37 90 36 90 51 91 48 91 49 91 37 92 26 92 38 92 37 93 38 93 49 93 50 94 26 94 37 94 51 95 49 95 38 95 52 96 53 96 65 96 52 97 65 97 64 97 76 98 53 98 52 98 77 99 64 99 65 99 53 100 54 100 66 100 53 101 66 101 65 101 76 102 54 102 53 102 77 103 65 103 66 103 54 104 55 104 67 104 54 105 67 105 66 105 76 106 55 106 54 106 77 107 66 107 67 107 55 108 56 108 68 108 55 109 68 109 67 109 76 110 56 110 55 110 77 111 67 111 68 111 56 112 57 112 69 112 56 113 69 113 68 113 76 114 57 114 56 114 77 115 68 115 69 115 57 116 58 116 70 116 57 117 70 117 69 117 76 118 58 118 57 118 77 119 69 119 70 119 58 120 59 120 71 120 58 121 71 121 70 121 76 122 59 122 58 122 77 123 70 123 71 123 59 124 60 124 72 124 59 125 72 125 71 125 76 126 60 126 59 126 77 127 71 127 72 127 60 128 61 128 73 128 60 129 73 129 72 129 76 130 61 130 60 130 77 131 72 131 73 131 61 132 62 132 74 132 61 133 74 133 73 133 76 134 62 134 61 134 77 135 73 135 74 135 62 136 63 136 75 136 62 137 75 137 74 137 76 138 63 138 62 138 77 139 74 139 75 139 63 140 52 140 64 140 63 141 64 141 75 141 76 142 52 142 63 142 77 143 75 143 64 143 78 144 79 144 91 144 78 145 91 145 90 145 102 146 79 146 78 146 103 147 90 147 91 147 79 148 80 148 92 148 79 149 92 149 91 149 102 150 80 150 79 150 103 151 91 151 92 151 80 152 81 152 93 152 80 153 93 153 92 153 102 154 81 154 80 154 103 155 92 155 93 155 81 156 82 156 94 156 81 157 94 157 93 157 102 158 82 158 81 158 103 159 93 159 94 159 82 160 83 160 95 160 82 161 95 161 94 161 102 162 83 162 82 162 103 163 94 163 95 163 83 164 84 164 96 164 83 165 96 165 95 165 102 166 84 166 83 166 103 167 95 167 96 167 84 168 85 168 97 168 84 169 97 169 96 169 102 170 85 170 84 170 103 171 96 171 97 171 85 172 86 172 98 172 85 173 98 173 97 173 102 174 86 174 85 174 103 175 97 175 98 175 86 176 87 176 99 176 86 177 99 177 98 177 102 178 87 178 86 178 103 179 98 179 99 179 87 180 88 180 100 180 87 181 100 181 99 181 102 182 88 182 87 182 103 183 99 183 100 183 88 184 89 184 101 184 88 185 101 185 100 185 102 186 89 186 88 186 103 187 100 187 101 187 89 188 78 188 90 188 89 189 90 189 101 189 102 190 78 190 89 190 103 191 101 191 90 191</p>
      </triangles>
      </mesh>
    </geometry>
  </library_geometries>
  <library_visual_scenes>
    <visual_scene id="Scene" name="Scene">
        <node id="red-node" name="red" type="NODE">
          <instance_geometry url="#red-geo">
            <bind_material><technique_common>
              <instance_material symbol="red-sym" target="#red-mat"/>
            </technique_common></bind_material>
          </instance_geometry>
        </node>
    </visual_scene>
  </library_visual_scenes>
  <scene><instance_visual_scene url="#Scene"/></scene>
</COLLADA>
